<svg id="Layer_1" data-name="Layer 1" xmlns="http://www.w3.org/2000/svg" viewBox="0 0 200 34.2"><title>Bottom Cover right</title><path d="M155.09,1H200v.4a6.82,6.82,0,0,1-6.82,6.82H155.09Z"/><path d="M0,1H156.81V25.14a8.06,8.06,0,0,1-8,8.05H0V31.47H148.76a6.34,6.34,0,0,0,6.33-6.33V2.73H0Z"/><path d="M173.2,6.4h8.69V9.84H173.2Zm8.08.61h-7.48V9.23h7.48Z"/><path d="M174.23,17.33a8,8,0,0,1-6.06-7.8v-.3h18.75v.3a8.15,8.15,0,0,1-1.2,4.24,8.24,8.24,0,0,1-1.15,1.46,8,8,0,0,1-5.69,2.36h-2.65A7.92,7.92,0,0,1,174.23,17.33Zm-5.45-7.5a7.43,7.43,0,0,0,5.6,6.91,7.31,7.31,0,0,0,1.84.23h2.65a7.41,7.41,0,0,0,5.26-2.18,7.62,7.62,0,0,0,1.07-1.35,7.55,7.55,0,0,0,1.11-3.61Z"/></svg>