<svg id="Layer_1" data-name="Layer 1" xmlns="http://www.w3.org/2000/svg" viewBox="0 0 200 34.2"><title>Bottom Cover left</title><path d="M47.72,0H0A7.67,7.67,0,0,0,7.67,7.67h40Z"/><path d="M200,0H45.89V25.64a8.56,8.56,0,0,0,8.55,8.55H200V32.37H54.44a6.73,6.73,0,0,1-6.72-6.72V1.83H200Z"/><path d="M28.48,9.38H19.24V5.73h9.23Zm-8.59-.65h7.94V6.37H19.89Z"/><path d="M25.26,17.61H22.45a8.52,8.52,0,0,1-6-2.5,8.75,8.75,0,0,1-1.23-1.55,8.66,8.66,0,0,1-1.28-4.5V8.74H33.82v.32a8.54,8.54,0,0,1-6.44,8.29A8.41,8.41,0,0,1,25.26,17.61ZM14.55,9.38a8,8,0,0,0,1.18,3.84,8.1,8.1,0,0,0,1.13,1.43A7.87,7.87,0,0,0,22.45,17h2.81a7.76,7.76,0,0,0,2-.24,7.9,7.9,0,0,0,5.95-7.34Z"/></svg>