<svg id="Layer_1" data-name="Layer 1" xmlns="http://www.w3.org/2000/svg" viewBox="0 0 236 51"><title>Bottom cover Left</title><path d="M236,50.72H128.88c-12.68,0-23-10-23-22.3V0H236V1.54H107.47V28.42c0,11.45,9.61,20.76,21.41,20.76H236Z"/><path d="M106.67,0H0V.88A7.14,7.14,0,0,0,7.14,8h99.53Z"/><path d="M70.39,11.81H50.68V4H70.39ZM52.06,10.43H69v-5h-17Z"/><path d="M63.77,29.2H57.3A17.94,17.94,0,0,1,39.38,11.28v-.53H81.69v.53A17.94,17.94,0,0,1,63.77,29.2ZM40.44,11.81A16.89,16.89,0,0,0,57.3,28.14h6.47A16.89,16.89,0,0,0,80.63,11.81Z"/></svg>