<svg id="Layer_1" data-name="Layer 1" xmlns="http://www.w3.org/2000/svg" viewBox="0 0 236 51"><title>Bottom cover Right</title><path d="M0,50.72H107.12c12.68,0,23-10,23-22.3V0H0V1.54H128.53V28.42c0,11.45-9.61,20.76-21.41,20.76H0Z"/><path d="M129.33,0H236V.88A7.14,7.14,0,0,1,228.86,8H129.33Z"/><path d="M165.61,4h19.72v7.8H165.61Zm18.34,1.38H167v5h17Z"/><path d="M154.31,11.28v-.53h42.32v.53A17.94,17.94,0,0,1,178.7,29.2h-6.47A17.94,17.94,0,0,1,154.31,11.28Zm1.07.53a16.89,16.89,0,0,0,16.86,16.34h6.47a16.89,16.89,0,0,0,16.86-16.34Z"/></svg>