<svg id="Layer_1" data-name="Layer 1" xmlns="http://www.w3.org/2000/svg" xmlns:xlink="http://www.w3.org/1999/xlink" viewBox="0 0 80 200"><defs><style>.cls-1{fill:none;}.cls-2{clip-path:url(#clip-path);}.cls-3{clip-path:url(#clip-path-2);}.cls-4{clip-path:url(#clip-path-3);}.cls-5{clip-path:url(#clip-path-4);}.cls-6{clip-path:url(#clip-path-5);}.cls-7{clip-path:url(#clip-path-6);}.cls-8{clip-path:url(#clip-path-7);}.cls-9{clip-path:url(#clip-path-8);}.cls-10{clip-path:url(#clip-path-9);}.cls-11{clip-path:url(#clip-path-10);}</style><clipPath id="clip-path"><rect class="cls-1" x="72.62" y="63.99" width="7.38" height="72.03"/></clipPath><clipPath id="clip-path-2"><rect class="cls-1" x="72.62" y="64" width="15.17" height="72.01"/></clipPath><clipPath id="clip-path-3"><rect class="cls-1" x="-53.57" y="63.98" width="188.19" height="72.04"/></clipPath><clipPath id="clip-path-4"><rect class="cls-1" x="-53.57" y="64.01" width="240.29" height="46.52"/></clipPath><clipPath id="clip-path-5"><rect class="cls-1" x="-53.57" y="115.26" width="231.73" height="41.33"/></clipPath><clipPath id="clip-path-6"><rect class="cls-1" y="63.98" width="7.38" height="72.03"/></clipPath><clipPath id="clip-path-7"><rect class="cls-1" x="-7.79" y="63.99" width="15.17" height="72.01"/></clipPath><clipPath id="clip-path-8"><rect class="cls-1" x="-133.97" y="63.98" width="188.19" height="72.04"/></clipPath><clipPath id="clip-path-9"><rect class="cls-1" x="-133.97" y="64" width="240.29" height="46.52"/></clipPath><clipPath id="clip-path-10"><rect class="cls-1" x="-133.97" y="115.26" width="231.73" height="41.33"/></clipPath></defs><title>Center Comb</title><g class="cls-2"><g class="cls-3"><g class="cls-4"><g class="cls-5"><path d="M78,89.44c-2.9-1.63-9.22-1.06-14.35-1.19C46.1,87.79,32,83.13,14.2,82.09c-8.79-.51-19.5-.41-28.41-.54-7.72-.12-15.67,0-23.25.21-6,.16-28.27-.29-42.17.16a1.31,1.31,0,0,1-1.2.3l-.37-.06a10,10,0,0,0-.27,1.45,1.45,1.45,0,0,1,1,.37c11.75-.15,27.61-.83,30.45-.87,16.59-.22,33.49.24,50.07,0,12.18-.17,21.85.39,31.88,2.51,4.92,1,8.78,2.15,14.52,2.8,3.9.45,12.89.63,14.45,1.54a536.29,536.29,0,0,0-67.31,5.7c-9.93,1.4-23.35,1.61-34.36,1.43-3.15-.05-7.81-.31-12.82-.51a1.22,1.22,0,0,1-.42.2c2.41,1.69,6-.06,10.17,1.66,0,.1,0,.19,0,.28a1.37,1.37,0,0,1,.54.18c9.69,0,19-.32,28.44-1.09C2.5,96.43,18.77,94.5,35.88,93c11.29-1,21.68-.74,33.18-1C74.31,91.86,81.68,91.51,78,89.44Z"/><path d="M170.68,83.33c-17.92-.26-31.49.4-47.57,2.75-7.55,1.11-14.41,2.12-22.65.94C92,85.82,85.68,83.65,76.84,82.59c-17.65-2.13-39-2.14-57.63-3.39-21.58-1.46-43.89-1.62-66.07-1.37-6.33.07-12.65.16-18.93.32a13.35,13.35,0,0,1-1.4.08,1.71,1.71,0,0,1-.39,0q-4.08.11-8.15.27l-2.16.1a4.5,4.5,0,0,0-1.61.75,4.16,4.16,0,0,0-1.15,1.35l.43.07a1.4,1.4,0,0,1,.39.13c5.52-.29,11.47-.8,13.84-.86,8.36-.23,16.94-.3,25.2-.55,31.13-.95,66.79,1.23,97.15,3.5,7.14.53,14.75,1,20.45,2.37,6.19,1.45,10.52,3.17,17.87,4.27a99.65,99.65,0,0,0,33-.2c12.46-2.06,18.35-3.89,33.55-3.89,13.73,0,27.53,1.26,41.27.74l1.69-.09q.18-1.57.37-3.14C194.51,84,177.32,83.43,170.68,83.33Z"/><path d="M203.43,63.33c-3,.54-6,1.11-9,1.55-10.52,1.5-19.06,1.67-30.87,1.52-16.92-.21-33.49,1.41-50.38,1C95.45,67,78.69,64.89,61,64.39c-15-.42-29.69.4-44.77,0-14-.37-28.31-.88-42.46-.5-11.68.31-23.28.88-35,1.14-2,0-5.63,0-9.53.07l.22-.23-.22,0a6.6,6.6,0,0,0-1.1,1.61,5.38,5.38,0,0,0-.23.52,1.3,1.3,0,0,1,.6.21c7.28-.21,15.09-.77,20.17-.83,11.08-.14,21.85-.48,32.89-.63,23.94-.33,48.39,0,72.18.64,17.92.51,34.83,2.5,52.66,2.94,17.59.43,38,.76,54.87-.94a348.61,348.61,0,0,1,37.13-2c2,0,4.19,0,6.35,0A7.93,7.93,0,0,0,203.43,63.33Z"/><path d="M205.15,74.73c-17.73,4.22-54.49,1.94-73.49-.46-10-1.26-19.22-2.36-29.86-3.1C90,70.36,84.53,71,74.69,72.7c-13.47,2.35-26,2.22-40.67.94C18.8,72.31,5.55,72-10.34,71.73c-14.16-.23-28,0-42.27,0-6.38,0-13-.11-19.57-.06a2.9,2.9,0,0,1-.29.17c0,.19,0,.38.08.57a1.2,1.2,0,0,1,.87.26c1.23-.07,2.42-.13,3.5-.16,8.19-.22,16.58.22,24.77,0,15.52-.39,28.17-.11,43.45.77,8,.46,16.32.32,24.28.79,7.25.43,13.85,1.43,21.15,1.83a159.64,159.64,0,0,0,23.8,0c7-.6,11.12-1.74,17.33-2.65,6.67-1,11.31-.35,17.31.6,7.5,1.19,14.85,1.93,23.14,2.55C143.5,77.62,160.27,79,177.09,79c5.37,0,19.37-1.13,28-.69.1-1.19.17-2.4.21-3.61Z"/><path d="M185.63,107.28a2.74,2.74,0,0,1-.8-1.89c-5.1,0-10.21-.06-15.47.22-13.49.71-27,1.68-40.48,2.47-25.78,1.5-48-1.31-73.2-1.72-25.88-.42-51.36,1.57-77.12,2-11.51.18-23.64.16-35.17,0-1.36,0-3.7-.12-6.31-.21l0-.21-.16.14c.15.59.32,1.18.49,1.76a1.14,1.14,0,0,1,.26.2l0-.13c22.33,1.18,46.6.6,68.73,0,15-.4,30.26-1.18,45.26-1.18,8.23,0,16.34,0,24.46.2s15.34,1.27,23.27,1.62c14.51.64,29.36-.39,43.63-.79,15.28-.43,31.7-.45,47.05,0,1,0,2.22.07,3.53.13C192,108,187.48,109.17,185.63,107.28Z"/><path d="M203.74,91.76c-5.71,0-12.05.42-16.57.67-11.76.67-25.44.08-36.17,1.91-8.2,1.4-12.6,4.5-21.44,5.57s-18.53,0-26.28-1.24C86,95.91,77.7,95.77,60.34,98c-16.67,2.18-37.69,2.73-55.48,4-16.72,1.23-33.81.73-50.76.73H-46c-.48,0-1,.07-1.41.08a1.52,1.52,0,0,1-.54-.09c-3.85,0-9.39-.17-14.85-.18a3.22,3.22,0,0,1,.24-.29l-.27.08a3.59,3.59,0,0,0-.7,1.59,1.35,1.35,0,0,1,1,.34c1.82,0,3.55,0,5.08,0,7.26.21,14.57.64,22.13.41,7.4-.22,14.05-1.17,21.48-1.39,6.79-.2,13.71-.21,20.47-.4,15.07-.43,31.19-.51,45.77-1.8,12.14-1.08,20.89-4,34.35-3.12,12,.75,22.76,3.19,35,3.55,11.52.33,21.5-1.64,30.41-3.55,12.23-2.63,25.2-3.12,39.79-3.53,3.61-.1,7.79,0,11.89,0C203.84,93.61,203.75,92.65,203.74,91.76Z"/><path d="M203.78,119.25c-20.84,2.87-56.48-.45-74.09-1.24-23.58-1.06-48-3.14-71.89-3.2-18.4,0-36.44.63-54.82.59-17.8,0-35.14-1.21-53-1-2.71,0-6.9,0-11.18.15h-.2a27.4,27.4,0,0,0,.42,2.76l.21,0,0-.17c13.61.27,29.5-.4,41.08-.4,19.33,0,38.52-.07,57.63-.39,10-.17,17.09.25,26.94.93,9.42.66,19.34.44,29.07.44,19.22,0,32.68,2.32,50.39,4.09,11.75,1.17,25.16.83,37.63.83,6.2,0,12.3,0,18.35-.21,1.78-.05,4.16-.18,6.65-.29A5.49,5.49,0,0,0,203.78,119.25Z"/><path d="M191.87,139.92a5.46,5.46,0,0,0-.66-1.14,254.4,254.4,0,0,0-31.63,1,511.11,511.11,0,0,1-59.59,2c-22-.72-43-3.26-65.28-3.74-14.53-.31-28.93.18-43.33.55-11.28.29-23,.11-34,1-1.73.15-4.55.27-7.27.47a16.8,16.8,0,0,1-.86-3.64c14.71-.18,31.58-1.09,34.4-1.25,10.36-.59,20.23-1.77,30.44-2.52,5.77-.43,12.65-1.59,18.5-1.58,14.3,0,27.23,4.23,40.45,5.47,11.47,1.07,23.41,2.57,35.53,2.61s19.29-1.42,29.07-3.3c12.17-2.34,25.92-5.25,40-6.64-4.72,0-9.43.13-14.07.44-12.85.86-21.1,3.89-32.56,5.55a149.92,149.92,0,0,1-33,1.55c-16.07-1.16-26.43-5.65-42.93-6.7a214.41,214.41,0,0,0-41.85,1.19c-11.43,1.36-20.71,1.42-32.81,1.61-3.12.05-17.63,0-30.82.13A3.53,3.53,0,0,1-48.39,131c4.77-.06,9.48-.26,14.08-.68,8.36-.76,16-1.91,24.6-2.45,12-.75,24.71-.44,37-.45a581.46,581.46,0,0,1,67.87,4.18c17,2,23.38,1.47,36.52-2,8.22-2.19,25.45-1.84,31.12-4.32-4.76-1.82-30.74-.48-38.4-.59-16.32-.23-28.64-2.35-43.44-4.18-15.78-2-29.19-1.21-45.57-.54-7.61.31-14.73.61-22.61.59-10.92,0-21.38-.86-32.24-1-11.87-.14-26.35-.92-39.19-.65a1.48,1.48,0,0,1-.56.11h-1.31a5.23,5.23,0,0,0,2.19,2.83c.37,0,.74.1,1.11.18,11.4.17,23.35,0,26.54.08,15.92.23,31.18.41,46.89-.2,14.47-.55,29.54-1.21,44.15-.78,11.69.35,21.78,1.88,32.34,3.38,5.08.72,10.77,1.68,16,2.07,4.95.37,12.36-.07,15.8,1.23-7.94,1.76-23.41.56-32.62.15-20.54-.92-41.26-2.82-62-3.31-14.85-.35-28.35,1.16-42.13,2.42-9.56.87-19.26,1.24-29,1.57l0-.08-.24,0c-1.11,1.51-3.73,1.73-6.68,2.24-5,1.3-2.61,9.06-.55,12.61h.19l-.17-.3c2.15-.07,4.27-.23,5.84-.36,5.65-.44,10.72-1.24,16.48-1.58,7.08-.41,14.66-.12,21.87-.43,5.72-.25,11.41-1,17.14-1.29,9.79-.42,19.22.17,28.92.31,13.54.19,27.29-.08,39.79,1.57,21.12,2.79,40.26,2.3,62.77,1.38,11.62-.48,23.38-1.24,35-1.77,4-.18,8.74-.3,12.94-.1A4.94,4.94,0,0,0,191.87,139.92Z"/></g><g class="cls-6"><path d="M73.32,137.86c-2.79-1.45-8.9-.94-13.84-1.06-16.93-.41-30.57-4.55-47.69-5.47-8.47-.46-18.81-.36-27.4-.48-7.45-.1-15.11,0-22.43.18-5.8.15-27.26-.26-40.66.14a1.33,1.33,0,0,1-1.16.27l-.36-.05a8.29,8.29,0,0,0-.26,1.29,1.47,1.47,0,0,1,1,.33c11.34-.13,26.63-.74,29.36-.77,16-.19,32.29.21,48.29,0,11.75-.15,21.07.35,30.74,2.23,4.75.92,8.47,1.91,14,2.49,3.76.4,12.43.56,13.93,1.37a560.39,560.39,0,0,0-64.91,5.07c-9.57,1.24-22.52,1.43-33.13,1.27-3,0-7.53-.27-12.37-.46a1.22,1.22,0,0,1-.41.18c2.33,1.5,5.75,0,9.81,1.47,0,.09,0,.17,0,.25a1.4,1.4,0,0,1,.52.16c9.35,0,18.3-.28,27.43-1,16.7-1.25,32.39-3,48.88-4.28,10.88-.87,20.9-.66,32-.92C69.75,140,76.86,139.7,73.32,137.86Z"/><path d="M162.69,132.43c-17.28-.23-30.37.35-45.88,2.44-7.28,1-13.9,1.88-21.84.84-8.19-1.07-14.26-3-22.78-3.95-17-1.9-37.63-1.9-55.57-3-20.81-1.29-42.33-1.44-63.72-1.22-6.11.06-12.2.14-18.26.28-.45,0-.92.07-1.35.07a1.79,1.79,0,0,1-.38,0q-3.94.1-7.86.24l-2.09.08a4.51,4.51,0,0,0-1.55.67,3.79,3.79,0,0,0-1.11,1.2l.41.06a1.43,1.43,0,0,1,.38.12c5.33-.25,11.06-.71,13.34-.77,8.06-.21,16.34-.27,24.3-.49,30-.84,64.41,1.1,93.68,3.11,6.88.47,14.23.91,19.72,2.1,6,1.29,10.15,2.82,17.24,3.8a104.2,104.2,0,0,0,31.86-.18c12-1.83,17.69-3.45,32.36-3.45,13.24,0,26.55,1.12,39.8.66l1.63-.08q.18-1.39.36-2.79C185.67,133.05,169.09,132.52,162.69,132.43Z"/><path d="M194.27,114.66c-2.89.48-5.77,1-8.69,1.37-10.15,1.34-18.38,1.48-29.77,1.35-16.31-.19-32.3,1.25-48.58.89C90.14,117.9,74,116,56.9,115.6c-14.45-.37-28.63.35-43.17,0-13.55-.32-27.3-.78-40.95-.45-11.26.28-22.45.78-33.75,1-1.9,0-5.43,0-9.19.06L-70,116l-.21,0a5.88,5.88,0,0,0-1.06,1.43,4.6,4.6,0,0,0-.22.46,1.32,1.32,0,0,1,.58.19c7-.19,14.56-.68,19.45-.74,10.68-.13,21.07-.42,31.72-.56,23.09-.3,46.66,0,69.61.57,17.28.46,33.59,2.23,50.78,2.61,17,.38,36.66.67,52.91-.83,12.36-1.14,22.87-1.8,35.81-1.79,1.93,0,4,0,6.13,0A6.79,6.79,0,0,0,194.27,114.66Z"/><path d="M195.93,124.79c-17.1,3.75-52.54,1.72-70.87-.41-9.63-1.12-18.53-2.1-28.8-2.75A97.66,97.66,0,0,0,70.12,123c-13,2.09-25,2-39.22.83-14.68-1.18-27.46-1.47-42.78-1.7-13.65-.2-27,0-40.76,0-6.15,0-12.57-.1-18.87-.06a2.87,2.87,0,0,1-.28.15c0,.17,0,.34.07.51a1.23,1.23,0,0,1,.84.23c1.19-.06,2.33-.12,3.38-.14,7.9-.19,16,.19,23.89,0,15-.34,27.17-.1,41.9.69,7.71.41,15.74.28,23.41.7,7,.38,13.36,1.27,20.39,1.62a167.07,167.07,0,0,0,23,0c6.73-.54,10.72-1.54,16.71-2.36,6.43-.88,10.91-.31,16.69.53,7.23,1.06,14.32,1.71,22.32,2.27,15.71,1.09,31.89,2.32,48.11,2.32,5.18,0,18.68-1,27-.62.1-1.06.16-2.13.2-3.21Z"/><path d="M177.1,153.71a2.34,2.34,0,0,1-.77-1.68c-4.92,0-9.85-.05-14.92.19-13,.63-26,1.49-39,2.19-24.86,1.34-46.3-1.16-70.59-1.53-25-.38-49.53,1.4-74.37,1.75-11.1.16-22.8.14-33.91,0-1.31,0-3.57-.11-6.09-.18l0-.19-.16.13c.14.52.31,1,.48,1.57a1.09,1.09,0,0,1,.25.18l0-.12c21.53,1,44.94.53,66.28,0,14.51-.35,29.18-1,43.65-1,7.94,0,15.75,0,23.59.18s14.79,1.13,22.44,1.44c14,.57,28.31-.35,42.07-.7,14.74-.38,30.57-.4,45.38,0l3.41.11C183.21,154.36,178.89,155.38,177.1,153.71Z"/><path d="M194.57,139.92c-5.5,0-11.62.37-16,.6-11.34.59-24.54.07-34.88,1.7-7.91,1.25-12.15,4-20.67,4.95s-17.87,0-25.35-1.1C81,143.61,73,143.48,56.28,145.5c-16.07,1.94-36.35,2.42-53.5,3.58-16.12,1.09-32.61.65-49,.65h-.06c-.46,0-.92.06-1.36.07a1.58,1.58,0,0,1-.52-.08c-3.71,0-9.06-.15-14.32-.16a2.93,2.93,0,0,1,.23-.26l-.26.07a3.07,3.07,0,0,0-.67,1.41,1.37,1.37,0,0,1,.92.31c1.75,0,3.43,0,4.9,0,7,.19,14.06.57,21.34.37,7.14-.2,13.55-1,20.71-1.23,6.55-.18,13.22-.18,19.74-.35,14.54-.38,30.08-.45,44.14-1.6,11.7-1,20.15-3.51,33.13-2.77,11.62.66,21.95,2.84,33.77,3.15,11.11.29,20.73-1.45,29.33-3.16,11.8-2.34,24.3-2.77,38.37-3.14,3.48-.09,7.51,0,11.46,0C194.66,141.56,194.58,140.71,194.57,139.92Z"/><path d="M194.61,164.34c-20.09,2.55-54.47-.4-71.45-1.1-22.73-.95-46.32-2.79-69.32-2.84-17.75,0-35.14.56-52.87.52-17.17,0-33.89-1.08-51.15-.88-2.61,0-6.65,0-10.78.13h-.19a22.57,22.57,0,0,0,.41,2.45l.2,0,0-.15c13.13.24,28.44-.36,39.61-.36,18.64,0,37.14-.06,55.57-.35,9.67-.15,16.48.22,26,.83,9.09.58,18.65.39,28,.39,18.54,0,31.51,2.06,48.6,3.63,11.33,1,24.26.74,36.29.74,6,0,11.87,0,17.7-.18,1.71,0,4-.16,6.41-.26A5.13,5.13,0,0,0,194.61,164.34Z"/><path d="M183.12,182.71a4.77,4.77,0,0,0-.64-1,266.2,266.2,0,0,0-30.51.91,534.82,534.82,0,0,1-57.47,1.79c-21.24-.64-41.5-2.9-63-3.33-14-.28-27.9.16-41.78.49-10.88.26-22.18.09-32.8.92-1.67.13-4.39.24-7,.42a14,14,0,0,1-.83-3.23c14.19-.16,30.45-1,33.17-1.11,10-.53,19.5-1.57,29.36-2.24,5.57-.38,12.2-1.41,17.84-1.41,13.79,0,26.26,3.76,39,4.86,11.06,1,22.58,2.28,34.26,2.32s18.6-1.26,28-2.93c11.74-2.08,25-4.67,38.56-5.9-4.55,0-9.09.12-13.57.39-12.39.76-20.35,3.45-31.4,4.93a156.78,156.78,0,0,1-31.84,1.37c-15.49-1-25.49-5-41.4-6A224.32,224.32,0,0,0,10.81,175c-11,1.2-20,1.26-31.64,1.43-3,0-17,0-29.72.12a3.28,3.28,0,0,1,2-1.83c4.6-.05,9.15-.23,13.57-.6,8.06-.67,15.4-1.7,23.73-2.18,11.61-.67,23.83-.39,35.68-.4a608.07,608.07,0,0,1,65.45,3.71c16.43,1.8,22.55,1.31,35.22-1.8,7.92-1.94,24.55-1.64,30-3.84-4.59-1.61-29.65-.43-37-.53-15.74-.2-27.62-2.09-41.9-3.71-15.21-1.73-28.15-1.07-43.94-.48-7.34.27-14.2.54-21.81.52-10.53,0-20.62-.76-31.1-.87-11.45-.12-25.41-.81-37.79-.57a1.54,1.54,0,0,1-.54.09h-1.26a4.72,4.72,0,0,0,2.11,2.52c.36,0,.71.09,1.07.16,11,.15,22.52,0,25.6.07,15.35.21,30.07.36,45.22-.17,14-.49,28.49-1.08,42.58-.69,11.27.31,21,1.67,31.19,3,4.9.64,10.39,1.5,15.44,1.84,4.77.33,11.92-.06,15.24,1.09-7.66,1.56-22.57.5-31.46.13-19.81-.82-39.79-2.5-59.75-2.94-14.32-.31-27.34,1-40.62,2.15-9.22.77-18.58,1.1-28,1.4l0-.07-.24,0c-1.07,1.34-3.59,1.54-6.44,2-4.84,1.15-2.52,8-.53,11.2h.19l-.17-.27c2.07-.06,4.12-.21,5.63-.32,5.45-.39,10.33-1.1,15.89-1.4,6.83-.37,14.14-.11,21.09-.38,5.51-.22,11-.93,16.53-1.15,9.44-.37,18.53.15,27.89.27,13.05.16,26.31-.07,38.37,1.4,20.37,2.48,38.83,2,60.53,1.22,11.21-.42,22.55-1.1,33.73-1.57,3.86-.16,8.43-.27,12.48-.09A4.14,4.14,0,0,0,183.12,182.71Z"/></g></g></g></g><rect x="7.38" y="63.98" width="1.57" height="72.04"/><rect x="71.05" y="63.98" width="1.57" height="72.04"/><g class="cls-7"><g class="cls-8"><g class="cls-9"><g class="cls-10"><path d="M90.27,83.33c-17.92-.26-31.49.4-47.57,2.75-7.55,1.11-14.41,2.12-22.65.94-8.49-1.21-14.79-3.37-23.62-4.44-17.65-2.13-39-2.14-57.63-3.39-21.58-1.46-43.89-1.62-66.07-1.37-6.33.07-12.65.16-18.93.32a13.35,13.35,0,0,1-1.4.08,1.71,1.71,0,0,1-.39,0q-4.08.11-8.15.27l-2.16.1a4.5,4.5,0,0,0-1.61.75A4.16,4.16,0,0,0-161,80.65l.43.07a1.4,1.4,0,0,1,.39.13c5.52-.29,11.47-.8,13.84-.86,8.36-.23,16.94-.3,25.2-.55,31.13-.95,66.79,1.23,97.15,3.5,7.14.53,14.75,1,20.45,2.37,6.19,1.45,10.52,3.17,17.87,4.27a99.65,99.65,0,0,0,33-.2c12.46-2.06,18.35-3.89,33.55-3.89,13.73,0,27.53,1.26,41.27.74l1.69-.09q.18-1.57.37-3.14C114.11,84,96.92,83.42,90.27,83.33Z"/><path d="M123,63.33c-3,.54-6,1.11-9,1.55-10.52,1.5-19.06,1.67-30.87,1.52-16.92-.21-33.49,1.41-50.38,1C15,67-1.71,64.88-19.42,64.39c-15-.42-29.69.4-44.77,0-14-.37-28.31-.88-42.46-.5-11.68.31-23.28.88-35,1.14-2,0-5.63,0-9.53.07l.22-.23-.22,0a6.6,6.6,0,0,0-1.1,1.61,5.38,5.38,0,0,0-.23.52,1.3,1.3,0,0,1,.6.21c7.28-.21,15.09-.77,20.17-.83,11.08-.14,21.85-.48,32.89-.63,23.94-.33,48.39,0,72.18.64,17.92.51,34.83,2.5,52.66,2.94,17.59.43,38,.76,54.87-.94a348.61,348.61,0,0,1,37.13-2c2,0,4.19,0,6.35,0A7.93,7.93,0,0,0,123,63.33Z"/><path d="M124.75,74.73c-17.73,4.22-54.49,1.94-73.49-.46C41.27,73,32,71.91,21.4,71.17,9.6,70.36,4.12,71-5.71,72.7c-13.47,2.35-26,2.22-40.67.94C-61.6,72.31-74.86,72-90.74,71.73c-14.16-.23-28,0-42.27,0-6.38,0-13-.11-19.57-.06a2.9,2.9,0,0,1-.29.17c0,.19,0,.38.08.57a1.2,1.2,0,0,1,.87.26c1.23-.07,2.42-.13,3.5-.16,8.19-.22,16.58.22,24.77,0,15.52-.39,28.17-.11,43.45.77,8,.46,16.32.32,24.28.79,7.25.43,13.85,1.43,21.15,1.83a159.64,159.64,0,0,0,23.8,0c7-.6,11.12-1.74,17.33-2.65,6.67-1,11.31-.35,17.31.6,7.5,1.19,14.85,1.93,23.14,2.55C63.09,77.61,79.87,79,96.68,79c5.37,0,19.37-1.13,28-.69.1-1.19.17-2.4.21-3.61Z"/><path d="M105.23,107.28a2.74,2.74,0,0,1-.8-1.89c-5.1,0-10.21-.06-15.47.22-13.49.71-27,1.68-40.48,2.47-25.78,1.5-48-1.31-73.2-1.72-25.88-.42-51.36,1.57-77.12,2-11.51.18-23.64.16-35.17,0-1.36,0-3.7-.12-6.31-.21l0-.21-.16.14c.15.59.32,1.18.49,1.76a1.14,1.14,0,0,1,.26.2l0-.13c22.33,1.18,46.6.6,68.73,0,15-.4,30.26-1.18,45.26-1.18,8.23,0,16.34,0,24.46.2S11,110.17,18.9,110.53c14.51.64,29.36-.39,43.63-.79,15.28-.43,31.7-.45,47.05,0,1,0,2.22.07,3.53.13C111.55,108,107.07,109.16,105.23,107.28Z"/><path d="M123.34,91.76c-5.71,0-12.05.42-16.57.67-11.76.67-25.44.08-36.17,1.91-8.2,1.4-12.6,4.5-21.44,5.57s-18.53,0-26.28-1.24C5.6,95.91-2.7,95.77-20.07,98c-16.67,2.18-37.69,2.73-55.48,4-16.72,1.23-33.81.73-50.76.73h-.06c-.48,0-1,.07-1.41.08a1.52,1.52,0,0,1-.54-.09c-3.85,0-9.39-.17-14.85-.18a3.22,3.22,0,0,1,.24-.29l-.27.08a3.59,3.59,0,0,0-.7,1.59,1.35,1.35,0,0,1,1,.34c1.82,0,3.55,0,5.08,0,7.26.21,14.57.64,22.13.41,7.4-.22,14.05-1.17,21.48-1.39,6.79-.2,13.71-.21,20.47-.4,15.07-.43,31.19-.51,45.77-1.8,12.14-1.08,20.89-4,34.35-3.12,12,.75,22.76,3.19,35,3.55,11.52.33,21.5-1.64,30.41-3.55C84,95.44,97,94.95,111.56,94.54c3.61-.1,7.79,0,11.89,0C123.43,93.6,123.35,92.65,123.34,91.76Z"/><path d="M123.38,119.24c-20.84,2.87-56.48-.45-74.09-1.24-23.58-1.06-48-3.14-71.89-3.2-18.4,0-36.44.63-54.82.59-17.8,0-35.14-1.21-53-1-2.71,0-6.9,0-11.18.15h-.2a27.4,27.4,0,0,0,.42,2.76l.21,0,0-.17c13.61.27,29.5-.4,41.08-.4,19.33,0,38.52-.07,57.63-.39,10-.17,17.09.25,26.94.93,9.42.66,19.34.44,29.07.44,19.22,0,32.68,2.32,50.39,4.09,11.75,1.17,25.16.83,37.63.83,6.2,0,12.3,0,18.35-.21,1.78-.05,4.16-.18,6.65-.29A5.49,5.49,0,0,0,123.38,119.24Z"/><path d="M111.47,139.92a5.46,5.46,0,0,0-.66-1.14,254.4,254.4,0,0,0-31.63,1,511.11,511.11,0,0,1-59.59,2c-22-.72-43-3.26-65.28-3.74-14.53-.31-28.93.18-43.33.55-11.28.29-23,.11-34,1-1.73.15-4.55.27-7.27.47a16.8,16.8,0,0,1-.86-3.64c14.71-.18,31.58-1.09,34.4-1.25,10.36-.59,20.23-1.77,30.44-2.52,5.77-.43,12.65-1.59,18.5-1.58,14.3,0,27.23,4.23,40.45,5.47,11.47,1.07,23.41,2.57,35.53,2.61s19.29-1.42,29.07-3.3c12.17-2.34,25.92-5.25,40-6.64-4.72,0-9.43.13-14.07.44-12.85.86-21.1,3.89-32.56,5.55a149.92,149.92,0,0,1-33,1.55c-16.07-1.16-26.43-5.65-42.93-6.7a214.41,214.41,0,0,0-41.85,1.19c-11.43,1.36-20.71,1.42-32.81,1.61-3.12.05-17.63,0-30.82.13a3.53,3.53,0,0,1,2.06-2.06c4.77-.06,9.48-.26,14.08-.68,8.36-.76,16-1.91,24.6-2.45,12-.75,24.71-.44,37-.45a581.46,581.46,0,0,1,67.87,4.18c17,2,23.38,1.47,36.52-2,8.22-2.19,25.45-1.84,31.12-4.32-4.76-1.82-30.74-.48-38.4-.59-16.32-.23-28.64-2.35-43.44-4.18-15.78-2-29.19-1.21-45.57-.54-7.61.31-14.73.61-22.61.59-10.92,0-21.38-.86-32.24-1-11.87-.14-26.35-.92-39.19-.65a1.48,1.48,0,0,1-.56.11h-1.31a5.23,5.23,0,0,0,2.19,2.83c.37,0,.74.1,1.11.18,11.4.17,23.35,0,26.54.08,15.92.23,31.18.41,46.89-.2,14.47-.55,29.54-1.21,44.15-.78,11.69.35,21.78,1.88,32.34,3.38,5.08.72,10.77,1.68,16,2.07,4.95.37,12.36-.07,15.8,1.23-7.94,1.76-23.41.56-32.62.15-20.54-.92-41.26-2.82-62-3.31-14.85-.35-28.35,1.16-42.13,2.42-9.56.87-19.26,1.24-29,1.57l0-.08-.24,0c-1.11,1.51-3.73,1.73-6.68,2.24-5,1.3-2.61,9.06-.55,12.61h.19l-.17-.3c2.15-.07,4.27-.23,5.84-.36,5.65-.44,10.72-1.24,16.48-1.58,7.08-.41,14.66-.12,21.87-.43,5.72-.25,11.41-1,17.14-1.29,9.79-.42,19.22.17,28.92.31,13.54.19,27.29-.08,39.79,1.57,21.12,2.79,40.26,2.3,62.77,1.38,11.62-.48,23.38-1.24,35-1.77,4-.18,8.74-.3,12.94-.1A4.94,4.94,0,0,0,111.47,139.92Z"/></g><g class="cls-11"><path d="M82.28,132.43c-17.28-.23-30.37.35-45.88,2.44-7.28,1-13.9,1.88-21.84.84-8.19-1.07-14.26-3-22.78-3.95-17-1.9-37.63-1.9-55.57-3-20.81-1.29-42.33-1.44-63.72-1.22-6.11.06-12.2.14-18.26.28-.45,0-.92.07-1.35.07a1.79,1.79,0,0,1-.38,0q-3.94.1-7.86.24l-2.09.08a4.51,4.51,0,0,0-1.55.67,3.79,3.79,0,0,0-1.11,1.2l.41.06a1.43,1.43,0,0,1,.38.12c5.33-.25,11.06-.71,13.34-.77,8.06-.21,16.34-.27,24.3-.49,30-.84,64.41,1.1,93.68,3.11,6.88.47,14.23.91,19.72,2.1C-2.28,135.47,1.9,137,9,138a104.2,104.2,0,0,0,31.86-.18c12-1.83,17.69-3.45,32.36-3.45,13.24,0,26.55,1.12,39.8.66l1.63-.08q.18-1.39.36-2.79C105.26,133,88.69,132.51,82.28,132.43Z"/><path d="M113.86,114.66c-2.89.48-5.77,1-8.69,1.37-10.15,1.34-18.38,1.48-29.77,1.35-16.31-.19-32.3,1.25-48.58.89C9.74,117.89-6.43,116-23.5,115.6c-14.45-.37-28.63.35-43.17,0-13.55-.32-27.3-.78-40.95-.45-11.26.28-22.45.78-33.75,1-1.9,0-5.43,0-9.19.06l.21-.21-.21,0a5.88,5.88,0,0,0-1.06,1.43,4.6,4.6,0,0,0-.22.46,1.32,1.32,0,0,1,.58.19c7-.19,14.56-.68,19.45-.74,10.68-.13,21.07-.42,31.72-.56,23.09-.3,46.66,0,69.61.57,17.28.46,33.59,2.23,50.78,2.61,17,.38,36.66.67,52.91-.83,12.36-1.14,22.87-1.8,35.81-1.79,1.93,0,4,0,6.13,0A6.79,6.79,0,0,0,113.86,114.66Z"/><path d="M115.52,124.79c-17.1,3.75-52.54,1.72-70.87-.41-9.63-1.12-18.53-2.1-28.8-2.75A97.66,97.66,0,0,0-10.28,123c-13,2.09-25,2-39.22.83-14.68-1.18-27.46-1.47-42.78-1.7-13.65-.2-27,0-40.76,0-6.15,0-12.57-.1-18.87-.06a2.87,2.87,0,0,1-.28.15c0,.17,0,.34.07.51a1.23,1.23,0,0,1,.84.23c1.19-.06,2.33-.12,3.38-.14,7.9-.19,16,.19,23.89,0,15-.34,27.17-.1,41.9.69,7.71.41,15.74.28,23.41.7,7,.38,13.36,1.27,20.39,1.62a167.07,167.07,0,0,0,23,0c6.73-.54,10.72-1.54,16.71-2.36,6.43-.88,10.91-.31,16.69.53,7.23,1.06,14.32,1.71,22.32,2.27,15.71,1.09,31.89,2.32,48.11,2.32,5.18,0,18.68-1,27-.62.1-1.06.16-2.13.2-3.21Z"/><path d="M96.7,153.7a2.34,2.34,0,0,1-.77-1.68c-4.92,0-9.85-.05-14.92.19-13,.63-26,1.49-39,2.19-24.86,1.34-46.3-1.16-70.59-1.53-25-.38-49.53,1.4-74.37,1.75-11.1.16-22.8.14-33.91,0-1.31,0-3.57-.11-6.09-.18l0-.19-.16.13c.14.52.31,1,.48,1.57a1.09,1.09,0,0,1,.25.18l0-.12c21.53,1,44.94.53,66.28,0,14.51-.35,29.18-1,43.65-1,7.94,0,15.75,0,23.59.18s14.79,1.13,22.44,1.44c14,.57,28.31-.35,42.07-.7,14.74-.38,30.57-.4,45.38,0l3.41.11C102.8,154.35,98.48,155.38,96.7,153.7Z"/><path d="M114.17,139.91c-5.5,0-11.62.37-16,.6-11.34.59-24.54.07-34.88,1.7-7.91,1.25-12.15,4-20.67,4.95s-17.87,0-25.35-1.1c-16.66-2.46-24.67-2.58-41.42-.56-16.07,1.94-36.35,2.42-53.5,3.58-16.12,1.09-32.61.65-49,.65h-.06c-.46,0-.92.06-1.36.07a1.58,1.58,0,0,1-.52-.08c-3.71,0-9.06-.15-14.32-.16a2.93,2.93,0,0,1,.23-.26l-.26.07a3.07,3.07,0,0,0-.67,1.41,1.37,1.37,0,0,1,.92.31c1.75,0,3.43,0,4.9,0,7,.19,14.06.57,21.34.37,7.14-.2,13.55-1,20.71-1.23,6.55-.18,13.22-.18,19.74-.35,14.54-.38,30.08-.45,44.14-1.6,11.7-1,20.15-3.51,33.13-2.77,11.62.66,21.95,2.84,33.77,3.15,11.11.29,20.73-1.45,29.33-3.16,11.8-2.34,24.3-2.77,38.37-3.14,3.48-.09,7.51,0,11.46,0C114.26,141.55,114.18,140.71,114.17,139.91Z"/><path d="M114.21,164.33c-20.09,2.55-54.47-.4-71.45-1.1-22.73-.95-46.32-2.79-69.32-2.84-17.75,0-35.14.56-52.87.52-17.17,0-33.89-1.08-51.15-.88-2.61,0-6.65,0-10.78.13h-.19a22.57,22.57,0,0,0,.41,2.45l.2,0,0-.15c13.13.24,28.44-.36,39.61-.36,18.64,0,37.14-.06,55.57-.35,9.67-.15,16.48.22,26,.83,9.09.58,18.65.39,28,.39,18.54,0,31.51,2.06,48.6,3.63,11.33,1,24.26.74,36.29.74,6,0,11.87,0,17.7-.18,1.71,0,4-.16,6.41-.26A5.13,5.13,0,0,0,114.21,164.33Z"/><path d="M102.72,182.7a4.77,4.77,0,0,0-.64-1,266.2,266.2,0,0,0-30.51.91,534.82,534.82,0,0,1-57.47,1.79c-21.24-.64-41.5-2.9-63-3.33-14-.28-27.9.16-41.78.49-10.88.26-22.18.09-32.8.92-1.67.13-4.39.24-7,.42a14,14,0,0,1-.83-3.23c14.19-.16,30.45-1,33.17-1.11,10-.53,19.5-1.57,29.36-2.24,5.57-.38,12.2-1.41,17.84-1.41,13.79,0,26.26,3.76,39,4.86,11.06,1,22.58,2.28,34.26,2.32s18.6-1.26,28-2.93c11.74-2.08,25-4.67,38.56-5.9-4.55,0-9.09.12-13.57.39-12.39.76-20.35,3.45-31.4,4.93a156.78,156.78,0,0,1-31.84,1.37c-15.49-1-25.49-5-41.4-6A224.32,224.32,0,0,0-69.6,175c-11,1.2-20,1.26-31.64,1.43-3,0-17,0-29.72.12a3.28,3.28,0,0,1,2-1.83c4.6-.05,9.15-.23,13.57-.6,8.06-.67,15.4-1.7,23.73-2.18,11.61-.67,23.83-.39,35.68-.4a608.07,608.07,0,0,1,65.45,3.71c16.43,1.8,22.55,1.31,35.22-1.8,7.92-1.94,24.55-1.64,30-3.84-4.59-1.61-29.65-.43-37-.53-15.74-.2-27.62-2.09-41.9-3.71-15.21-1.73-28.15-1.07-43.94-.48-7.34.27-14.2.54-21.81.52-10.53,0-20.62-.76-31.1-.87-11.45-.12-25.41-.81-37.79-.57a1.54,1.54,0,0,1-.54.09h-1.26a4.72,4.72,0,0,0,2.11,2.52c.36,0,.71.09,1.07.16,11,.15,22.52,0,25.6.07,15.35.21,30.07.36,45.22-.17,14-.49,28.49-1.08,42.58-.69,11.27.31,21,1.67,31.19,3,4.9.64,10.39,1.5,15.44,1.84,4.77.33,11.92-.06,15.24,1.09-7.66,1.56-22.57.5-31.46.13-19.81-.82-39.79-2.5-59.75-2.94-14.32-.31-27.34,1-40.62,2.15-9.22.77-18.58,1.1-28,1.4l0-.07-.24,0c-1.07,1.34-3.59,1.54-6.44,2-4.84,1.15-2.52,8-.53,11.2h.19l-.17-.27c2.07-.06,4.12-.21,5.63-.32,5.45-.39,10.33-1.1,15.89-1.4,6.83-.37,14.14-.11,21.09-.38,5.51-.22,11-.93,16.53-1.15,9.44-.37,18.53.15,27.89.27,13.05.16,26.31-.07,38.37,1.4,20.37,2.48,38.83,2,60.53,1.22,11.21-.42,22.55-1.1,33.73-1.57,3.86-.16,8.43-.27,12.48-.09A4.14,4.14,0,0,0,102.72,182.7Z"/></g></g></g></g></svg>