<svg id="Layer_1" data-name="Layer 1" xmlns="http://www.w3.org/2000/svg" xmlns:xlink="http://www.w3.org/1999/xlink" viewBox="0 0 80 73"><defs><style>.cls-1{fill:none;}.cls-2{clip-path:url(#clip-path);}.cls-3{clip-path:url(#clip-path-2);}.cls-4{clip-path:url(#clip-path-3);}.cls-5{clip-path:url(#clip-path-4);}.cls-6{clip-path:url(#clip-path-5);}.cls-7{clip-path:url(#clip-path-6);}.cls-8{clip-path:url(#clip-path-7);}.cls-9{clip-path:url(#clip-path-8);}.cls-10{clip-path:url(#clip-path-9);}.cls-11{clip-path:url(#clip-path-10);}</style><clipPath id="clip-path"><rect class="cls-1" x="72.62" y="0.49" width="7.38" height="72.03"/></clipPath><clipPath id="clip-path-2"><rect class="cls-1" x="72.62" y="0.5" width="15.17" height="72.01"/></clipPath><clipPath id="clip-path-3"><rect class="cls-1" x="-53.57" y="0.48" width="188.19" height="72.04"/></clipPath><clipPath id="clip-path-4"><rect class="cls-1" x="-53.57" y="0.51" width="240.29" height="46.52"/></clipPath><clipPath id="clip-path-5"><rect class="cls-1" x="-53.57" y="51.76" width="231.73" height="41.33"/></clipPath><clipPath id="clip-path-6"><rect class="cls-1" y="0.48" width="7.38" height="72.03"/></clipPath><clipPath id="clip-path-7"><rect class="cls-1" x="-7.79" y="0.49" width="15.17" height="72.01"/></clipPath><clipPath id="clip-path-8"><rect class="cls-1" x="-133.97" y="0.48" width="188.19" height="72.04"/></clipPath><clipPath id="clip-path-9"><rect class="cls-1" x="-133.97" y="0.5" width="240.29" height="46.52"/></clipPath><clipPath id="clip-path-10"><rect class="cls-1" x="-133.97" y="51.76" width="231.73" height="41.33"/></clipPath></defs><title>Middle Comb</title><g class="cls-2"><g class="cls-3"><g class="cls-4"><g class="cls-5"><path d="M78,25.94c-2.9-1.63-9.22-1.06-14.35-1.19C46.1,24.29,32,19.63,14.2,18.59c-8.79-.51-19.5-.41-28.41-.54-7.72-.12-15.67,0-23.25.21-6,.16-28.27-.29-42.17.16a1.31,1.31,0,0,1-1.2.3l-.37-.06a10,10,0,0,0-.27,1.45,1.45,1.45,0,0,1,1,.37c11.75-.15,27.61-.83,30.45-.87,16.59-.22,33.49.24,50.07,0,12.18-.17,21.85.39,31.88,2.51,4.92,1,8.78,2.15,14.52,2.8,3.9.45,12.89.63,14.45,1.54a536.29,536.29,0,0,0-67.31,5.7c-9.93,1.4-23.35,1.61-34.36,1.43-3.15-.05-7.81-.31-12.82-.51a1.22,1.22,0,0,1-.42.2C-51.6,35-48,33.25-43.84,35c0,.1,0,.19,0,.28a1.37,1.37,0,0,1,.54.18c9.69,0,19-.32,28.44-1.09C2.5,32.93,18.77,31,35.88,29.52c11.29-1,21.68-.74,33.18-1C74.31,28.36,81.68,28,78,25.94Z"/><path d="M170.68,19.83c-17.92-.26-31.49.4-47.57,2.75-7.55,1.11-14.41,2.12-22.65.94C92,22.32,85.68,20.15,76.84,19.09c-17.65-2.13-39-2.14-57.63-3.39-21.58-1.46-43.89-1.62-66.07-1.37-6.33.07-12.65.16-18.93.32a13.35,13.35,0,0,1-1.4.08,1.71,1.71,0,0,1-.39,0q-4.08.11-8.15.27l-2.16.1a4.5,4.5,0,0,0-1.61.75,4.16,4.16,0,0,0-1.15,1.35l.43.07a1.4,1.4,0,0,1,.39.13c5.52-.29,11.47-.8,13.84-.86,8.36-.23,16.94-.3,25.2-.55C-9.65,15,26,17.17,56.36,19.44c7.14.53,14.75,1,20.45,2.37C83,23.25,87.33,25,94.68,26.08a99.65,99.65,0,0,0,33-.2C140.18,23.82,146.06,22,161.27,22c13.73,0,27.53,1.26,41.27.74l1.69-.09q.18-1.57.37-3.14C194.51,20.53,177.32,19.93,170.68,19.83Z"/><path d="M203.43-.17c-3,.54-6,1.11-9,1.55C183.89,2.88,175.35,3,163.54,2.9c-16.92-.21-33.49,1.41-50.38,1C95.45,3.47,78.69,1.39,61,.89c-15-.42-29.69.4-44.77,0C2.17.53-12.1,0-26.25.39c-11.68.31-23.28.88-35,1.14-2,0-5.63,0-9.53.07l.22-.23-.22,0A6.6,6.6,0,0,0-71.88,3a5.38,5.38,0,0,0-.23.52,1.3,1.3,0,0,1,.6.21c7.28-.21,15.09-.77,20.17-.83,11.08-.14,21.85-.48,32.89-.63,23.94-.33,48.39,0,72.18.64,17.92.51,34.83,2.5,52.66,2.94,17.59.43,38,.76,54.87-.94a348.61,348.61,0,0,1,37.13-2c2,0,4.19,0,6.35,0A7.93,7.93,0,0,0,203.43-.17Z"/><path d="M205.15,11.23c-17.73,4.22-54.49,1.94-73.49-.46-10-1.26-19.22-2.36-29.86-3.1C90,6.86,84.53,7.49,74.69,9.2c-13.47,2.35-26,2.22-40.67.94C18.8,8.81,5.55,8.49-10.34,8.23c-14.16-.23-28,0-42.27,0-6.38,0-13-.11-19.57-.06a2.9,2.9,0,0,1-.29.17c0,.19,0,.38.08.57a1.2,1.2,0,0,1,.87.26C-70.29,9.09-69.1,9-68,9c8.19-.22,16.58.22,24.77,0,15.52-.39,28.17-.11,43.45.77,8,.46,16.32.32,24.28.79C31.72,11,38.33,12,45.62,12.4a159.64,159.64,0,0,0,23.8,0c7-.6,11.12-1.74,17.33-2.65,6.67-1,11.31-.35,17.31.6,7.5,1.19,14.85,1.93,23.14,2.55,16.29,1.22,33.07,2.61,49.88,2.61,5.37,0,19.37-1.13,28-.69.1-1.19.17-2.4.21-3.61Z"/><path d="M185.63,43.78a2.74,2.74,0,0,1-.8-1.89c-5.1,0-10.21-.06-15.47.22-13.49.71-27,1.68-40.48,2.47-25.78,1.5-48-1.31-73.2-1.72-25.88-.42-51.36,1.57-77.12,2-11.51.18-23.64.16-35.17,0-1.36,0-3.7-.12-6.31-.21l0-.21-.16.14c.15.59.32,1.18.49,1.76a1.14,1.14,0,0,1,.26.2l0-.13c22.33,1.18,46.6.6,68.73,0,15-.4,30.26-1.18,45.26-1.18,8.23,0,16.34,0,24.46.2S91.37,46.68,99.3,47c14.51.64,29.36-.39,43.63-.79,15.28-.43,31.7-.45,47.05,0,1,0,2.22.07,3.53.13C192,44.52,187.48,45.67,185.63,43.78Z"/><path d="M203.74,28.26c-5.71,0-12.05.42-16.57.67-11.76.67-25.44.08-36.17,1.91-8.2,1.4-12.6,4.5-21.44,5.57s-18.53,0-26.28-1.24C86,32.41,77.7,32.27,60.34,34.54c-16.67,2.18-37.69,2.73-55.48,4-16.72,1.23-33.81.73-50.76.73H-46c-.48,0-1,.07-1.41.08a1.52,1.52,0,0,1-.54-.09c-3.85,0-9.39-.17-14.85-.18a3.22,3.22,0,0,1,.24-.29l-.27.08a3.59,3.59,0,0,0-.7,1.59,1.35,1.35,0,0,1,1,.34c1.82,0,3.55,0,5.08,0,7.26.21,14.57.64,22.13.41,7.4-.22,14.05-1.17,21.48-1.39,6.79-.2,13.71-.21,20.47-.4,15.07-.43,31.19-.51,45.77-1.8,12.14-1.08,20.89-4,34.35-3.12,12,.75,22.76,3.19,35,3.55,11.52.33,21.5-1.64,30.41-3.55,12.23-2.63,25.2-3.12,39.79-3.53,3.61-.1,7.79,0,11.89,0C203.84,30.11,203.75,29.15,203.74,28.26Z"/><path d="M203.78,55.75c-20.84,2.87-56.48-.45-74.09-1.24-23.58-1.06-48-3.14-71.89-3.2-18.4,0-36.44.63-54.82.59-17.8,0-35.14-1.21-53-1-2.71,0-6.9,0-11.18.15h-.2A27.4,27.4,0,0,0-61,53.82l.21,0,0-.17c13.61.27,29.5-.4,41.08-.4,19.33,0,38.52-.07,57.63-.39,10-.17,17.09.25,26.94.93,9.42.66,19.34.44,29.07.44,19.22,0,32.68,2.32,50.39,4.09,11.75,1.17,25.16.83,37.63.83,6.2,0,12.3,0,18.35-.21,1.78-.05,4.16-.18,6.65-.29A5.49,5.49,0,0,0,203.78,55.75Z"/><path d="M191.87,76.42a5.46,5.46,0,0,0-.66-1.14,254.4,254.4,0,0,0-31.63,1,511.11,511.11,0,0,1-59.59,2c-22-.72-43-3.26-65.28-3.74-14.53-.31-28.93.18-43.33.55-11.28.29-23,.11-34,1-1.73.15-4.55.27-7.27.47A16.8,16.8,0,0,1-50.77,73c14.71-.18,31.58-1.09,34.4-1.25C-6,71.14,3.85,70,14.07,69.22c5.77-.43,12.65-1.59,18.5-1.58,14.3,0,27.23,4.23,40.45,5.47,11.47,1.07,23.41,2.57,35.53,2.61s19.29-1.42,29.07-3.3c12.17-2.34,25.92-5.25,40-6.64-4.72,0-9.43.13-14.07.44-12.85.86-21.1,3.89-32.56,5.55a149.92,149.92,0,0,1-33,1.55C81.9,72.15,71.53,67.66,55,66.61A214.41,214.41,0,0,0,13.19,67.8C1.76,69.15-7.52,69.21-19.62,69.41c-3.12.05-17.63,0-30.82.13a3.53,3.53,0,0,1,2.06-2.06c4.77-.06,9.48-.26,14.08-.68,8.36-.76,16-1.91,24.6-2.45,12-.75,24.71-.44,37-.45a581.46,581.46,0,0,1,67.87,4.18c17,2,23.38,1.47,36.52-2,8.22-2.19,25.45-1.84,31.12-4.32-4.76-1.82-30.74-.48-38.4-.59C108.07,60.92,95.75,58.8,80.95,57c-15.78-2-29.19-1.21-45.57-.54-7.61.31-14.73.61-22.61.59-10.92,0-21.38-.86-32.24-1-11.87-.14-26.35-.92-39.19-.65a1.48,1.48,0,0,1-.56.11h-1.31a5.23,5.23,0,0,0,2.19,2.83c.37,0,.74.1,1.11.18,11.4.17,23.35,0,26.54.08,15.92.23,31.18.41,46.89-.2,14.47-.55,29.54-1.21,44.15-.78C72,58,82.13,59.5,92.69,61c5.08.72,10.77,1.68,16,2.07,4.95.37,12.36-.07,15.8,1.23-7.94,1.76-23.41.56-32.62.15-20.54-.92-41.26-2.82-62-3.31-14.85-.35-28.35,1.16-42.13,2.42-9.56.87-19.26,1.24-29,1.57l0-.08-.24,0c-1.11,1.51-3.73,1.73-6.68,2.24-5,1.3-2.61,9.06-.55,12.61h.19l-.17-.3c2.15-.07,4.27-.23,5.84-.36C-37.1,78.81-32,78-26.27,77.67c7.08-.41,14.66-.12,21.87-.43C1.32,77,7,76.2,12.75,75.95c9.79-.42,19.22.17,28.92.31,13.54.19,27.29-.08,39.79,1.57,21.12,2.79,40.26,2.3,62.77,1.38,11.62-.48,23.38-1.24,35-1.77,4-.18,8.74-.3,12.94-.1A4.94,4.94,0,0,0,191.87,76.42Z"/></g><g class="cls-6"><path d="M73.32,74.36c-2.79-1.45-8.9-.94-13.84-1.06-16.93-.41-30.57-4.55-47.69-5.47-8.47-.46-18.81-.36-27.4-.48-7.45-.1-15.11,0-22.43.18-5.8.15-27.26-.26-40.66.14a1.33,1.33,0,0,1-1.16.27l-.36-.05a8.29,8.29,0,0,0-.26,1.29,1.47,1.47,0,0,1,1,.33c11.34-.13,26.63-.74,29.36-.77,16-.19,32.29.21,48.29,0C9.89,68.6,19.21,69.1,28.88,71c4.75.92,8.47,1.91,14,2.49,3.76.4,12.43.56,13.93,1.37A560.39,560.39,0,0,0-8.09,79.91c-9.57,1.24-22.52,1.43-33.13,1.27-3,0-7.53-.27-12.37-.46a1.22,1.22,0,0,1-.41.18c2.33,1.5,5.75,0,9.81,1.47,0,.09,0,.17,0,.25a1.4,1.4,0,0,1,.52.16c9.35,0,18.3-.28,27.43-1,16.7-1.25,32.39-3,48.88-4.28,10.88-.87,20.9-.66,32-.92C69.75,76.5,76.86,76.2,73.32,74.36Z"/><path d="M162.69,68.93c-17.28-.23-30.37.35-45.88,2.44-7.28,1-13.9,1.88-21.84.84-8.19-1.07-14.26-3-22.78-3.95-17-1.9-37.63-1.9-55.57-3C-4.19,64-25.71,63.81-47.1,64c-6.11.06-12.2.14-18.26.28-.45,0-.92.07-1.35.07a1.79,1.79,0,0,1-.38,0q-3.94.1-7.86.24l-2.09.08a4.51,4.51,0,0,0-1.55.67,3.79,3.79,0,0,0-1.11,1.2l.41.06a1.43,1.43,0,0,1,.38.12c5.33-.25,11.06-.71,13.34-.77,8.06-.21,16.34-.27,24.3-.49,30-.84,64.41,1.1,93.68,3.11,6.88.47,14.23.91,19.72,2.1,6,1.29,10.15,2.82,17.24,3.8a104.2,104.2,0,0,0,31.86-.18c12-1.83,17.69-3.45,32.36-3.45,13.24,0,26.55,1.12,39.8.66l1.63-.08q.18-1.39.36-2.79C185.67,69.55,169.09,69,162.69,68.93Z"/><path d="M194.27,51.16c-2.89.48-5.77,1-8.69,1.37-10.15,1.34-18.38,1.48-29.77,1.35-16.31-.19-32.3,1.25-48.58.89C90.14,54.4,74,52.54,56.9,52.1c-14.45-.37-28.63.35-43.17,0-13.55-.32-27.3-.78-40.95-.45-11.26.28-22.45.78-33.75,1-1.9,0-5.43,0-9.19.06l.21-.21-.21,0A5.88,5.88,0,0,0-71.23,54a4.6,4.6,0,0,0-.22.46,1.32,1.32,0,0,1,.58.19c7-.19,14.56-.68,19.45-.74,10.68-.13,21.07-.42,31.72-.56,23.09-.3,46.66,0,69.61.57,17.28.46,33.59,2.23,50.78,2.61,17,.38,36.66.67,52.91-.83,12.36-1.14,22.87-1.8,35.81-1.79,1.93,0,4,0,6.13,0A6.79,6.79,0,0,0,194.27,51.16Z"/><path d="M195.93,61.29c-17.1,3.75-52.54,1.72-70.87-.41-9.63-1.12-18.53-2.1-28.8-2.75a97.66,97.66,0,0,0-26.14,1.36c-13,2.09-25,2-39.22.83-14.68-1.18-27.46-1.47-42.78-1.7-13.65-.2-27,0-40.76,0-6.15,0-12.57-.1-18.87-.06a2.87,2.87,0,0,1-.28.15c0,.17,0,.34.07.51a1.23,1.23,0,0,1,.84.23c1.19-.06,2.33-.12,3.38-.14,7.9-.19,16,.19,23.89,0,15-.34,27.17-.1,41.9.69,7.71.41,15.74.28,23.41.7,7,.38,13.36,1.27,20.39,1.62a167.07,167.07,0,0,0,23,0c6.73-.54,10.72-1.54,16.71-2.36,6.43-.88,10.91-.31,16.69.53,7.23,1.06,14.32,1.71,22.32,2.27,15.71,1.09,31.89,2.32,48.11,2.32,5.18,0,18.68-1,27-.62.1-1.06.16-2.13.2-3.21Z"/></g></g></g></g><rect x="7.38" y="0.48" width="1.57" height="72.04"/><rect x="71.05" y="0.48" width="1.57" height="72.04"/><g class="cls-7"><g class="cls-8"><g class="cls-9"><g class="cls-10"><path d="M90.27,19.83c-17.92-.26-31.49.4-47.57,2.75-7.55,1.11-14.41,2.12-22.65.94-8.49-1.21-14.79-3.37-23.62-4.44-17.65-2.13-39-2.14-57.63-3.39-21.58-1.46-43.89-1.62-66.07-1.37-6.33.07-12.65.16-18.93.32a13.35,13.35,0,0,1-1.4.08,1.71,1.71,0,0,1-.39,0q-4.08.11-8.15.27l-2.16.1a4.5,4.5,0,0,0-1.61.75A4.16,4.16,0,0,0-161,17.15l.43.07a1.4,1.4,0,0,1,.39.13c5.52-.29,11.47-.8,13.84-.86,8.36-.23,16.94-.3,25.2-.55C-90.06,15-54.4,17.17-24,19.43c7.14.53,14.75,1,20.45,2.37C2.59,23.25,6.92,25,14.27,26.07a99.65,99.65,0,0,0,33-.2C59.77,23.81,65.66,22,80.86,22c13.73,0,27.53,1.26,41.27.74l1.69-.09q.18-1.57.37-3.14C114.11,20.53,96.92,19.92,90.27,19.83Z"/><path d="M123-.17c-3,.54-6,1.11-9,1.55C103.48,2.88,94.95,3,83.14,2.89c-16.92-.21-33.49,1.41-50.38,1C15,3.47-1.71,1.38-19.42.89c-15-.42-29.69.4-44.77,0C-78.23.53-92.5,0-106.65.39c-11.68.31-23.28.88-35,1.14-2,0-5.63,0-9.53.07l.22-.23-.22,0A6.6,6.6,0,0,0-152.29,3a5.38,5.38,0,0,0-.23.52,1.3,1.3,0,0,1,.6.21c7.28-.21,15.09-.77,20.17-.83,11.08-.14,21.85-.48,32.89-.63,23.94-.33,48.39,0,72.18.64C-8.76,3.43,8.16,5.42,26,5.86c17.59.43,38,.76,54.87-.94A348.61,348.61,0,0,1,118,2.9c2,0,4.19,0,6.35,0A7.93,7.93,0,0,0,123-.17Z"/><path d="M124.75,11.23c-17.73,4.22-54.49,1.94-73.49-.46C41.27,9.52,32,8.41,21.4,7.67,9.6,6.86,4.12,7.48-5.71,9.2c-13.47,2.35-26,2.22-40.67.94C-61.6,8.81-74.86,8.48-90.74,8.23c-14.16-.23-28,0-42.27,0-6.38,0-13-.11-19.57-.06a2.9,2.9,0,0,1-.29.17c0,.19,0,.38.08.57a1.2,1.2,0,0,1,.87.26c1.23-.07,2.42-.13,3.5-.16,8.19-.22,16.58.22,24.77,0,15.52-.39,28.17-.11,43.45.77,8,.46,16.32.32,24.28.79C-48.68,11-42.08,12-34.78,12.4a159.64,159.64,0,0,0,23.8,0c7-.6,11.12-1.74,17.33-2.65,6.67-1,11.31-.35,17.31.6,7.5,1.19,14.85,1.93,23.14,2.55,16.29,1.22,33.07,2.61,49.88,2.61,5.37,0,19.37-1.13,28-.69.1-1.19.17-2.4.21-3.61Z"/><path d="M105.23,43.78a2.74,2.74,0,0,1-.8-1.89c-5.1,0-10.21-.06-15.47.22-13.49.71-27,1.68-40.48,2.47-25.78,1.5-48-1.31-73.2-1.72-25.88-.42-51.36,1.57-77.12,2-11.51.18-23.64.16-35.17,0-1.36,0-3.7-.12-6.31-.21l0-.21-.16.14c.15.59.32,1.18.49,1.76a1.14,1.14,0,0,1,.26.2l0-.13c22.33,1.18,46.6.6,68.73,0,15-.4,30.26-1.18,45.26-1.18,8.23,0,16.34,0,24.46.2S11,46.67,18.9,47c14.51.64,29.36-.39,43.63-.79,15.28-.43,31.7-.45,47.05,0,1,0,2.22.07,3.53.13C111.55,44.51,107.07,45.66,105.23,43.78Z"/><path d="M123.34,28.26c-5.71,0-12.05.42-16.57.67C95,29.6,81.33,29,70.6,30.84c-8.2,1.4-12.6,4.5-21.44,5.57s-18.53,0-26.28-1.24C5.6,32.41-2.7,32.27-20.07,34.54c-16.67,2.18-37.69,2.73-55.48,4-16.72,1.23-33.81.73-50.76.73h-.06c-.48,0-1,.07-1.41.08a1.52,1.52,0,0,1-.54-.09c-3.85,0-9.39-.17-14.85-.18a3.22,3.22,0,0,1,.24-.29l-.27.08a3.59,3.59,0,0,0-.7,1.59,1.35,1.35,0,0,1,1,.34c1.82,0,3.55,0,5.08,0,7.26.21,14.57.64,22.13.41,7.4-.22,14.05-1.17,21.48-1.39,6.79-.2,13.71-.21,20.47-.4,15.07-.43,31.19-.51,45.77-1.8,12.14-1.08,20.89-4,34.35-3.12,12,.75,22.76,3.19,35,3.55,11.52.33,21.5-1.64,30.41-3.55C84,31.94,97,31.45,111.56,31c3.61-.1,7.79,0,11.89,0C123.43,30.1,123.35,29.15,123.34,28.26Z"/><path d="M123.38,55.74c-20.84,2.87-56.48-.45-74.09-1.24-23.58-1.06-48-3.14-71.89-3.2-18.4,0-36.44.63-54.82.59-17.8,0-35.14-1.21-53-1-2.71,0-6.9,0-11.18.15h-.2a27.4,27.4,0,0,0,.42,2.76l.21,0,0-.17c13.61.27,29.5-.4,41.08-.4,19.33,0,38.52-.07,57.63-.39,10-.17,17.09.25,26.94.93,9.42.66,19.34.44,29.07.44,19.22,0,32.68,2.32,50.39,4.09,11.75,1.17,25.16.83,37.63.83,6.2,0,12.3,0,18.35-.21,1.78-.05,4.16-.18,6.65-.29A5.49,5.49,0,0,0,123.38,55.74Z"/><path d="M111.47,76.42a5.46,5.46,0,0,0-.66-1.14,254.4,254.4,0,0,0-31.63,1,511.11,511.11,0,0,1-59.59,2c-22-.72-43-3.26-65.28-3.74-14.53-.31-28.93.18-43.33.55-11.28.29-23,.11-34,1-1.73.15-4.55.27-7.27.47a16.8,16.8,0,0,1-.86-3.64c14.71-.18,31.58-1.09,34.4-1.25,10.36-.59,20.23-1.77,30.44-2.52,5.77-.43,12.65-1.59,18.5-1.58,14.3,0,27.23,4.23,40.45,5.47C4.08,74.17,16,75.67,28.15,75.7s19.29-1.42,29.07-3.3c12.17-2.34,25.92-5.25,40-6.64-4.72,0-9.43.13-14.07.44-12.85.86-21.1,3.89-32.56,5.55a149.92,149.92,0,0,1-33,1.55C1.5,72.14-8.87,67.65-25.37,66.6a214.41,214.41,0,0,0-41.85,1.19C-78.65,69.15-87.92,69.21-100,69.4c-3.12.05-17.63,0-30.82.13a3.53,3.53,0,0,1,2.06-2.06c4.77-.06,9.48-.26,14.08-.68,8.36-.76,16-1.91,24.6-2.45,12-.75,24.71-.44,37-.45a581.46,581.46,0,0,1,67.87,4.18c17,2,23.38,1.47,36.52-2,8.22-2.19,25.45-1.84,31.12-4.32-4.76-1.82-30.74-.48-38.4-.59C27.67,60.91,15.35,58.79.54,57c-15.78-2-29.19-1.21-45.57-.54-7.61.31-14.73.61-22.61.59-10.92,0-21.38-.86-32.24-1-11.87-.14-26.35-.92-39.19-.65a1.48,1.48,0,0,1-.56.11h-1.31a5.23,5.23,0,0,0,2.19,2.83c.37,0,.74.1,1.11.18,11.4.17,23.35,0,26.54.08,15.92.23,31.18.41,46.89-.2,14.47-.55,29.54-1.21,44.15-.78C-8.36,58,1.73,59.49,12.29,61c5.08.72,10.77,1.68,16,2.07,4.95.37,12.36-.07,15.8,1.23-7.94,1.76-23.41.56-32.62.15-20.54-.92-41.26-2.82-62-3.31-14.85-.35-28.35,1.16-42.13,2.42-9.56.87-19.26,1.24-29,1.57l0-.08-.24,0c-1.11,1.51-3.73,1.73-6.68,2.24-5,1.3-2.61,9.06-.55,12.61h.19l-.17-.3c2.15-.07,4.27-.23,5.84-.36,5.65-.44,10.72-1.24,16.48-1.58,7.08-.41,14.66-.12,21.87-.43,5.72-.25,11.41-1,17.14-1.29,9.79-.42,19.22.17,28.92.31,13.54.19,27.29-.08,39.79,1.57,21.12,2.79,40.26,2.3,62.77,1.38,11.62-.48,23.38-1.24,35-1.77,4-.18,8.74-.3,12.94-.1A4.94,4.94,0,0,0,111.47,76.42Z"/></g><g class="cls-11"><path d="M82.28,68.93c-17.28-.23-30.37.35-45.88,2.44-7.28,1-13.9,1.88-21.84.84-8.19-1.07-14.26-3-22.78-3.95-17-1.9-37.63-1.9-55.57-3C-84.6,64-106.11,63.81-127.5,64c-6.11.06-12.2.14-18.26.28-.45,0-.92.07-1.35.07a1.79,1.79,0,0,1-.38,0q-3.94.1-7.86.24l-2.09.08a4.51,4.51,0,0,0-1.55.67,3.79,3.79,0,0,0-1.11,1.2l.41.06a1.43,1.43,0,0,1,.38.12c5.33-.25,11.06-.71,13.34-.77,8.06-.21,16.34-.27,24.3-.49,30-.84,64.41,1.1,93.68,3.11,6.88.47,14.23.91,19.72,2.1C-2.28,72,1.9,73.49,9,74.47a104.2,104.2,0,0,0,31.86-.18c12-1.83,17.69-3.45,32.36-3.45,13.24,0,26.55,1.12,39.8.66l1.63-.08q.18-1.39.36-2.79C105.26,69.55,88.69,69,82.28,68.93Z"/><path d="M113.86,51.16c-2.89.48-5.77,1-8.69,1.37C95,53.87,86.79,54,75.4,53.88c-16.31-.19-32.3,1.25-48.58.89C9.74,54.39-6.43,52.54-23.5,52.1c-14.45-.37-28.63.35-43.17,0-13.55-.32-27.3-.78-40.95-.45-11.26.28-22.45.78-33.75,1-1.9,0-5.43,0-9.19.06l.21-.21-.21,0A5.88,5.88,0,0,0-151.63,54a4.6,4.6,0,0,0-.22.46,1.32,1.32,0,0,1,.58.19c7-.19,14.56-.68,19.45-.74,10.68-.13,21.07-.42,31.72-.56,23.09-.3,46.66,0,69.61.57,17.28.46,33.59,2.23,50.78,2.61,17,.38,36.66.67,52.91-.83,12.36-1.14,22.87-1.8,35.81-1.79,1.93,0,4,0,6.13,0A6.79,6.79,0,0,0,113.86,51.16Z"/><path d="M115.52,61.29C98.43,65,63,63,44.66,60.88c-9.63-1.12-18.53-2.1-28.8-2.75a97.66,97.66,0,0,0-26.14,1.36c-13,2.09-25,2-39.22.83-14.68-1.18-27.46-1.47-42.78-1.7-13.65-.2-27,0-40.76,0-6.15,0-12.57-.1-18.87-.06a2.87,2.87,0,0,1-.28.15c0,.17,0,.34.07.51a1.23,1.23,0,0,1,.84.23c1.19-.06,2.33-.12,3.38-.14,7.9-.19,16,.19,23.89,0,15-.34,27.17-.1,41.9.69,7.71.41,15.74.28,23.41.7,7,.38,13.36,1.27,20.39,1.62a167.07,167.07,0,0,0,23,0C-8.64,61.78-4.64,60.78,1.35,60c6.43-.88,10.91-.31,16.69.53,7.23,1.06,14.32,1.71,22.32,2.27,15.71,1.09,31.89,2.32,48.11,2.32,5.18,0,18.68-1,27-.62.1-1.06.16-2.13.2-3.21Z"/></g></g></g></g></svg>