<svg id="Layer_1" data-name="Layer 1" xmlns="http://www.w3.org/2000/svg" xmlns:xlink="http://www.w3.org/1999/xlink" viewBox="0 0 236 73"><defs><style>.cls-1{fill:none;}.cls-2{clip-path:url(#clip-path);}.cls-3{clip-path:url(#clip-path-2);}.cls-4{clip-path:url(#clip-path-3);}.cls-5{clip-path:url(#clip-path-4);}.cls-6{clip-path:url(#clip-path-5);}.cls-7{clip-path:url(#clip-path-6);}.cls-8{clip-path:url(#clip-path-7);}.cls-9{clip-path:url(#clip-path-8);}</style><clipPath id="clip-path"><rect class="cls-1" y="0.14" width="162.69" height="72.72"/></clipPath><clipPath id="clip-path-2"><rect class="cls-1" y="0.16" width="242.57" height="46.96"/></clipPath><clipPath id="clip-path-3"><rect class="cls-1" y="51.9" width="233.93" height="41.72"/></clipPath><clipPath id="clip-path-4"><rect class="cls-1" x="228.55" y="0.15" width="7.45" height="72.71"/></clipPath><clipPath id="clip-path-5"><rect class="cls-1" x="228.55" y="0.15" width="15.31" height="72.7"/></clipPath><clipPath id="clip-path-6"><rect class="cls-1" x="101.16" y="0.14" width="189.98" height="72.72"/></clipPath><clipPath id="clip-path-7"><rect class="cls-1" x="101.16" y="0.16" width="242.57" height="46.96"/></clipPath><clipPath id="clip-path-8"><rect class="cls-1" x="101.16" y="51.91" width="233.93" height="41.72"/></clipPath></defs><title>Left Comb</title><rect x="162.69" y="0.14" width="1.59" height="72.72"/><rect x="226.96" y="0.14" width="1.59" height="72.72"/><g class="cls-2"><g class="cls-3"><path d="M132.83,25.83c-2.92-1.65-9.31-1.07-14.49-1.2-17.72-.46-32-5.17-49.93-6.22-8.87-.52-19.69-.41-28.68-.55-7.79-.12-15.82,0-23.47.21-6.07.17-28.53-.29-42.57.16a1.32,1.32,0,0,1-1.21.3l-.38-.06A10.14,10.14,0,0,0-28.16,20a1.47,1.47,0,0,1,1,.38c11.87-.15,27.87-.84,30.74-.87,16.75-.22,33.8.24,50.55,0,12.3-.17,22.06.4,32.18,2.53,5,1,8.87,2.17,14.66,2.83,3.94.45,13,.64,14.59,1.55a541.38,541.38,0,0,0-67.94,5.76c-10,1.41-23.57,1.62-34.68,1.44C9.75,33.53,5,33.27,0,33.06a1.23,1.23,0,0,1-.43.2c2.44,1.7,6-.06,10.27,1.67,0,.1,0,.19,0,.29a1.39,1.39,0,0,1,.55.18c9.78,0,19.16-.32,28.71-1.1C56.6,32.89,73,30.94,90.29,29.45c11.39-1,21.88-.75,33.5-1C129.1,28.27,136.53,27.92,132.83,25.83Z"/><path d="M226.38,19.67c-18.09-.26-31.79.4-48,2.78-7.62,1.12-14.55,2.14-22.86,1-8.57-1.22-14.93-3.41-23.84-4.48-17.81-2.15-39.39-2.16-58.18-3.43C51.69,14,29.16,13.85,6.77,14.1c-6.39.07-12.77.16-19.11.32a13.47,13.47,0,0,1-1.41.08,1.73,1.73,0,0,1-.4,0q-4.12.11-8.22.28l-2.18.1a4.54,4.54,0,0,0-1.62.76A4.2,4.2,0,0,0-27.33,17l.43.07a1.42,1.42,0,0,1,.4.14c5.58-.29,11.58-.8,14-.87,8.44-.24,17.11-.3,25.44-.56,31.43-1,67.42,1.25,98.07,3.53,7.2.54,14.89,1,20.64,2.39,6.24,1.47,10.62,3.2,18,4.31a100.6,100.6,0,0,0,33.35-.2c12.58-2.08,18.52-3.92,33.87-3.92,13.86,0,27.79,1.27,41.67.75l1.7-.09q.18-1.58.37-3.17C250.44,20.37,233.08,19.77,226.38,19.67Z"/><path d="M259.44-.52c-3,.55-6,1.12-9.1,1.56-10.62,1.52-19.24,1.68-31.16,1.53-17.08-.21-33.81,1.43-50.85,1-17.88-.43-34.8-2.54-52.68-3-15.13-.42-30,.4-45.19,0C56.27.18,41.87-.34,27.58,0,15.79.36,4.08.93-7.75,1.19c-2,0-5.68,0-9.62.07l.22-.23-.22,0a6.66,6.66,0,0,0-1.11,1.62,5.43,5.43,0,0,0-.23.52,1.31,1.31,0,0,1,.61.21c7.35-.21,15.24-.77,20.36-.84,11.18-.15,22.05-.48,33.2-.64,24.17-.34,48.85,0,72.86.65,18.09.52,35.16,2.53,53.16,3,17.75.44,38.38.76,55.39-.94a351.92,351.92,0,0,1,37.49-2c2,0,4.23,0,6.41,0A8,8,0,0,0,259.44-.52Z"/><path d="M261.18,11c-17.9,4.26-55,2-74.18-.46-10.09-1.27-19.4-2.39-30.15-3.13-11.91-.82-17.44-.19-27.37,1.54-13.6,2.37-26.2,2.24-41.05.94C73.06,8.54,59.68,8.21,43.64,8c-14.29-.23-28.3,0-42.67,0-6.44,0-13.15-.11-19.75-.06a2.93,2.93,0,0,1-.3.17c0,.19,0,.39.08.58a1.21,1.21,0,0,1,.88.27c1.24-.07,2.44-.13,3.53-.16,8.27-.22,16.74.22,25,0,15.67-.39,28.44-.11,43.86.78,8.08.47,16.48.32,24.51.79,7.31.43,14,1.44,21.35,1.84a161.15,161.15,0,0,0,24,0c7-.61,11.23-1.75,17.49-2.68,6.73-1,11.42-.35,17.47.61,7.57,1.2,15,1.95,23.36,2.58,16.45,1.23,33.38,2.64,50.36,2.63,5.42,0,19.55-1.14,28.27-.7.1-1.21.17-2.42.21-3.64Z"/><path d="M241.47,43.85a2.76,2.76,0,0,1-.81-1.91c-5.15,0-10.31-.06-15.62.22-13.62.72-27.25,1.69-40.87,2.49-26,1.52-48.46-1.32-73.89-1.74-26.13-.43-51.85,1.59-77.85,2-11.62.18-23.87.16-35.5,0-1.37,0-3.73-.13-6.37-.21l0-.21-.17.14c.15.59.32,1.19.5,1.78a1.15,1.15,0,0,1,.26.2l0-.13c22.54,1.19,47,.6,69.39,0,15.19-.4,30.55-1.19,45.69-1.19,8.31,0,16.49,0,24.7.2s15.48,1.28,23.49,1.64c14.65.65,29.64-.4,44-.8,15.43-.43,32-.45,47.5,0,1,0,2.24.07,3.57.13C247.86,44.59,243.34,45.75,241.47,43.85Z"/><path d="M259.75,28.18c-5.76,0-12.17.42-16.72.68-11.87.67-25.68.08-36.52,1.93-8.28,1.42-12.72,4.55-21.64,5.62s-18.71,0-26.53-1.25c-17.44-2.79-25.83-2.93-43.35-.64-16.83,2.2-38,2.76-56,4.07-16.88,1.24-34.13.74-51.24.74H7.67c-.48,0-1,.07-1.42.08a1.54,1.54,0,0,1-.54-.09c-3.88,0-9.48-.18-15-.18A3.25,3.25,0,0,1-9,38.84l-.27.08A3.62,3.62,0,0,0-10,40.53a1.36,1.36,0,0,1,1,.35c1.84,0,3.59,0,5.13,0,7.33.21,14.71.65,22.34.42,7.47-.23,14.19-1.18,21.68-1.4,6.86-.2,13.84-.21,20.66-.4C76,39.09,92.25,39,107,37.7c12.25-1.09,21.09-4,34.68-3.14,12.16.76,23,3.22,35.35,3.58,11.63.33,21.7-1.65,30.7-3.59C220,31.9,233.14,31.4,247.87,31c3.65-.1,7.87,0,12,0C259.85,30,259.77,29.08,259.75,28.18Z"/><path d="M259.8,55.93c-21,2.9-57-.45-74.79-1.25-23.8-1.07-48.48-3.17-72.57-3.23-18.58,0-36.79.63-55.34.6-18,0-35.47-1.22-53.55-1-2.74,0-7,0-11.29.15h-.2A27.66,27.66,0,0,0-7.51,54l.21,0,0-.17c13.74.28,29.78-.4,41.47-.4,19.51,0,38.88-.07,58.17-.4,10.12-.17,17.25.25,27.2.94,9.51.66,19.52.45,29.35.45,19.41,0,33,2.34,50.87,4.13,11.86,1.18,25.39.84,38,.84,6.26,0,12.42,0,18.53-.21,1.79-.05,4.2-.18,6.71-.29A5.54,5.54,0,0,0,259.8,55.93Z"/><path d="M247.77,76.8a5.51,5.51,0,0,0-.67-1.15,256.81,256.81,0,0,0-31.93,1,516,516,0,0,1-60.16,2c-22.23-.73-43.45-3.29-65.9-3.78-14.67-.32-29.2.18-43.74.55-11.39.29-23.22.11-34.33,1-1.75.15-4.6.28-7.34.47a17,17,0,0,1-.87-3.67c14.85-.18,31.88-1.1,34.73-1.26C48,71.47,58,70.28,68.28,69.52c5.83-.43,12.77-1.6,18.68-1.6,14.44,0,27.49,4.27,40.83,5.52,11.58,1.08,23.64,2.59,35.87,2.63s19.47-1.44,29.35-3.33c12.29-2.36,26.16-5.3,40.37-6.7-4.77,0-9.52.13-14.2.45-13,.87-21.3,3.92-32.87,5.6A151.34,151.34,0,0,1,153,73.65c-16.22-1.17-26.68-5.7-43.34-6.76a216.44,216.44,0,0,0-42.24,1.2c-11.54,1.37-20.9,1.43-33.12,1.63-3.15.05-17.79,0-31.12.13a3.57,3.57,0,0,1,2.08-2.08c4.81-.06,9.57-.26,14.21-.68,8.44-.77,16.12-1.93,24.84-2.48,12.15-.76,24.94-.44,37.35-.45a587,587,0,0,1,68.51,4.22c17.2,2,23.61,1.48,36.87-2,8.29-2.21,25.69-1.86,31.41-4.36-4.8-1.83-31-.49-38.77-.6-16.48-.23-28.92-2.37-43.86-4.22-15.92-2-29.47-1.22-46-.55-7.69.31-14.87.62-22.83.6-11,0-21.59-.87-32.55-1-12-.14-26.6-.92-39.56-.65a1.5,1.5,0,0,1-.57.11H-7a5.28,5.28,0,0,0,2.21,2.86c.37,0,.75.11,1.12.19,11.5.17,23.58,0,26.79.08,16.07.24,31.47.41,47.34-.2C85,58,100.26,57.37,115,57.81c11.8.35,22,1.9,32.65,3.42,5.13.73,10.88,1.7,16.16,2.09,5,.37,12.47-.07,16,1.24-8,1.77-23.63.56-32.93.15-20.74-.93-41.66-2.84-62.54-3.34-15-.35-28.62,1.18-42.53,2.44-9.65.88-19.45,1.25-29.27,1.59l0-.08-.25,0c-1.12,1.52-3.76,1.75-6.74,2.26C.49,68.91,2.93,76.74,5,80.33H5.2L5,80c2.17-.07,4.31-.24,5.89-.36,5.71-.44,10.82-1.25,16.64-1.59,7.15-.42,14.8-.12,22.08-.44,5.77-.25,11.52-1.05,17.31-1.3,9.89-.43,19.4.17,29.2.31,13.67.19,27.54-.08,40.17,1.59C157.63,81,177,80.54,199.68,79.61c11.73-.48,23.6-1.25,35.31-1.79,4-.19,8.82-.31,13.06-.1A5,5,0,0,0,247.77,76.8Z"/></g><g class="cls-4"><path d="M128.1,74.71c-2.82-1.47-9-.95-14-1.07C97,73.23,83.26,69,66,68.12c-8.55-.46-19-.36-27.66-.49-7.52-.11-15.26,0-22.64.19-5.85.15-27.52-.26-41,.15a1.35,1.35,0,0,1-1.17.27l-.36-.05a8.37,8.37,0,0,0-.26,1.3,1.48,1.48,0,0,1,1,.34C-14.74,69.69.69,69.08,3.45,69c16.15-.19,32.6.21,48.75,0,11.86-.15,21.27.35,31,2.25,4.79.93,8.55,1.93,14.13,2.51,3.8.4,12.55.57,14.07,1.38a565.71,565.71,0,0,0-65.52,5.11c-9.66,1.25-22.73,1.44-33.45,1.28-3.06,0-7.6-.27-12.48-.46a1.23,1.23,0,0,1-.41.18c2.35,1.51,5.81,0,9.9,1.49,0,.09,0,.17,0,.25a1.42,1.42,0,0,1,.53.16c9.43,0,18.48-.29,27.69-1,16.86-1.26,32.69-3,49.35-4.32,11-.88,21.1-.67,32.3-.93C124.49,76.88,131.67,76.57,128.1,74.71Z"/><path d="M218.31,69.23c-17.44-.23-30.66.36-46.31,2.47-7.35,1-14,1.9-22,.85-8.26-1.08-14.39-3-23-4-17.18-1.91-38-1.92-56.1-3-21-1.31-42.73-1.45-64.32-1.23-6.17.06-12.31.14-18.43.28-.46,0-.93.07-1.36.07a1.8,1.8,0,0,1-.38,0q-4,.1-7.93.25l-2.11.09a4.56,4.56,0,0,0-1.56.67,3.83,3.83,0,0,0-1.12,1.21l.42.06a1.45,1.45,0,0,1,.38.12c5.38-.26,11.16-.72,13.47-.77C-4,66,4.41,66,12.45,65.74c30.31-.85,65,1.11,94.57,3.14,6.95.48,14.36.92,19.9,2.12,6,1.3,10.24,2.84,17.4,3.83a105.19,105.19,0,0,0,32.16-.18c12.13-1.85,17.86-3.49,32.66-3.49,13.36,0,26.8,1.13,40.18.67l1.64-.08q.18-1.41.36-2.81C241.51,69.86,224.78,69.32,218.31,69.23Z"/><path d="M250.19,51.3c-2.92.48-5.83,1-8.78,1.39C231.17,54,222.86,54.18,211.36,54c-16.47-.19-32.6,1.27-49,.9-17.24-.38-33.56-2.25-50.8-2.7-14.59-.38-28.9.36-43.58,0-13.67-.33-27.56-.79-41.34-.45-11.37.28-22.67.79-34.07,1-1.92,0-5.48,0-9.28.06l.21-.21-.21,0a5.93,5.93,0,0,0-1.07,1.44,4.64,4.64,0,0,0-.22.47,1.33,1.33,0,0,1,.59.19c7.09-.19,14.69-.69,19.63-.75,10.78-.13,21.27-.43,32-.56,23.31-.3,47.11,0,70.27.58,17.44.46,33.91,2.25,51.27,2.64,17.12.39,37,.68,53.42-.84,12.47-1.15,23.08-1.81,36.15-1.81,1.95,0,4.07,0,6.19,0A6.85,6.85,0,0,0,250.19,51.3Z"/><path d="M251.87,61.52c-17.26,3.78-53,1.74-71.54-.41C170.6,60,161.62,59,151.25,58.33a98.59,98.59,0,0,0-26.39,1.37c-13.11,2.11-25.27,2-39.59.84-14.82-1.19-27.72-1.48-43.19-1.71-13.78-.2-27.29,0-41.15,0-6.21,0-12.69-.1-19.05-.06a2.89,2.89,0,0,1-.29.15c0,.17,0,.34.07.51a1.24,1.24,0,0,1,.85.24c1.2-.06,2.36-.12,3.41-.14,8-.19,16.14.2,24.12,0,15.11-.35,27.42-.1,42.3.69,7.79.41,15.89.28,23.64.71,7.05.38,13.48,1.28,20.59,1.64a168.66,168.66,0,0,0,23.17,0c6.79-.54,10.83-1.56,16.87-2.38,6.49-.88,11-.31,16.85.54,7.3,1.07,14.46,1.73,22.53,2.29,15.86,1.1,32.19,2.34,48.56,2.34,5.23,0,18.85-1,27.27-.62.1-1.07.16-2.15.2-3.24Z"/></g></g><path d="M162,.93V72.07H.68V.93H162m.68-.79H0V72.86H162.69V.14Z"/><g class="cls-5"><g class="cls-6"><g class="cls-7"><g class="cls-8"><path d="M234,25.84c-2.92-1.65-9.31-1.07-14.49-1.2-17.72-.46-32-5.17-49.93-6.22-8.87-.52-19.69-.41-28.68-.55-7.79-.12-15.82,0-23.47.21-6.07.17-28.53-.29-42.57.16a1.32,1.32,0,0,1-1.21.3l-.38-.06A10.14,10.14,0,0,0,73,20a1.47,1.47,0,0,1,1,.38c11.87-.15,27.87-.84,30.74-.87,16.75-.22,33.8.24,50.55,0,12.3-.17,22.06.4,32.18,2.53,5,1,8.87,2.17,14.66,2.83,3.94.45,13,.64,14.59,1.55a541.38,541.38,0,0,0-67.94,5.76c-10,1.41-23.57,1.62-34.68,1.44-3.18-.05-7.88-.31-12.94-.52a1.23,1.23,0,0,1-.43.2c2.44,1.7,6-.06,10.27,1.67,0,.1,0,.19,0,.29a1.39,1.39,0,0,1,.55.18c9.78,0,19.16-.32,28.71-1.1,17.48-1.42,33.9-3.37,51.17-4.86,11.39-1,21.88-.75,33.5-1C230.26,28.28,237.7,27.93,234,25.84Z"/><path d="M327.54,19.68c-18.09-.26-31.79.4-48,2.78-7.62,1.12-14.55,2.14-22.86,1-8.57-1.22-14.93-3.41-23.84-4.48-17.81-2.15-39.39-2.16-58.18-3.43-21.78-1.47-44.31-1.63-66.7-1.39-6.39.07-12.77.16-19.11.32a13.47,13.47,0,0,1-1.41.08,1.73,1.73,0,0,1-.4,0q-4.12.11-8.22.28l-2.18.1A4.54,4.54,0,0,0,75,15.6,4.2,4.2,0,0,0,73.83,17l.43.07a1.42,1.42,0,0,1,.4.14c5.58-.29,11.58-.8,14-.87,8.44-.24,17.11-.3,25.44-.56,31.43-1,67.42,1.25,98.07,3.53,7.2.54,14.89,1,20.64,2.39,6.24,1.47,10.62,3.2,18,4.31a100.6,100.6,0,0,0,33.35-.2c12.58-2.08,18.52-3.92,33.87-3.92,13.86,0,27.79,1.27,41.67.75l1.7-.09q.18-1.58.37-3.17C351.6,20.38,334.24,19.77,327.54,19.68Z"/><path d="M360.6-.52c-3,.55-6,1.12-9.1,1.56-10.62,1.52-19.24,1.68-31.16,1.53-17.08-.21-33.81,1.43-50.85,1-17.88-.43-34.8-2.54-52.68-3-15.13-.42-30,.4-45.19,0C157.43.19,143-.33,128.75.05,117,.37,105.24.94,93.41,1.2c-2,0-5.68,0-9.62.07L84,1l-.22,0a6.66,6.66,0,0,0-1.11,1.62,5.43,5.43,0,0,0-.23.52,1.31,1.31,0,0,1,.61.21c7.35-.21,15.24-.77,20.36-.84,11.18-.15,22.05-.48,33.2-.64,24.17-.34,48.85,0,72.86.65,18.09.52,35.16,2.53,53.16,3C280.39,6,301,6.33,318,4.62a351.92,351.92,0,0,1,37.49-2c2,0,4.23,0,6.41,0A8,8,0,0,0,360.6-.52Z"/><path d="M362.34,11c-17.9,4.26-55,2-74.18-.46C278.07,9.27,268.76,8.15,258,7.41c-11.91-.82-17.44-.19-27.37,1.54-13.6,2.37-26.2,2.24-41.05.94C174.22,8.55,160.84,8.22,144.8,8c-14.29-.23-28.3,0-42.67,0C95.69,8,89,7.84,82.38,7.89a2.93,2.93,0,0,1-.3.17c0,.19,0,.39.08.58A1.21,1.21,0,0,1,83,8.9c1.24-.07,2.44-.13,3.53-.16,8.27-.22,16.74.22,25,0,15.67-.39,28.44-.11,43.86.78,8.08.47,16.48.32,24.51.79,7.31.43,14,1.44,21.35,1.84a161.15,161.15,0,0,0,24,0c7-.61,11.23-1.75,17.49-2.68,6.73-1,11.42-.35,17.47.61,7.57,1.2,15,1.95,23.36,2.58C300.1,13.9,317,15.31,334,15.3c5.42,0,19.55-1.14,28.27-.7.1-1.21.17-2.42.21-3.64Z"/><path d="M342.63,43.85a2.76,2.76,0,0,1-.81-1.91c-5.15,0-10.31-.06-15.62.22-13.62.72-27.25,1.69-40.87,2.49-26,1.52-48.46-1.32-73.89-1.74-26.13-.43-51.85,1.59-77.85,2-11.62.18-23.87.16-35.5,0-1.37,0-3.73-.13-6.37-.21l0-.21-.17.14c.15.59.32,1.19.5,1.78a1.15,1.15,0,0,1,.26.2l0-.13c22.54,1.19,47,.6,69.39,0,15.19-.4,30.55-1.19,45.69-1.19,8.31,0,16.49,0,24.7.2s15.48,1.28,23.49,1.64c14.65.65,29.64-.4,44-.8,15.43-.43,32-.45,47.5,0,1,0,2.24.07,3.57.13C349,44.59,344.5,45.75,342.63,43.85Z"/><path d="M360.92,28.18c-5.76,0-12.17.42-16.72.68-11.87.67-25.68.08-36.52,1.93C299.4,32.21,295,35.34,286,36.42s-18.71,0-26.53-1.25c-17.44-2.79-25.83-2.93-43.35-.64-16.83,2.2-38,2.76-56,4.07-16.88,1.24-34.13.74-51.24.74h-.07c-.48,0-1,.07-1.42.08a1.54,1.54,0,0,1-.54-.09c-3.88,0-9.48-.18-15-.18a3.25,3.25,0,0,1,.24-.29l-.27.08a3.62,3.62,0,0,0-.71,1.61,1.36,1.36,0,0,1,1,.35c1.84,0,3.59,0,5.13,0,7.33.21,14.71.65,22.34.42,7.47-.23,14.19-1.18,21.68-1.4,6.86-.2,13.84-.21,20.66-.4,15.22-.43,31.48-.51,46.2-1.82,12.25-1.09,21.09-4,34.68-3.14,12.16.76,23,3.22,35.35,3.58,11.63.33,21.7-1.65,30.7-3.59C321.21,31.9,334.3,31.4,349,31c3.65-.1,7.87,0,12,0C361,30,360.93,29.08,360.92,28.18Z"/><path d="M361,55.93c-21,2.9-57-.45-74.79-1.25-23.8-1.07-48.48-3.17-72.57-3.23-18.58,0-36.79.63-55.34.6-18,0-35.47-1.22-53.55-1-2.74,0-7,0-11.29.15h-.2A27.66,27.66,0,0,0,93.65,54l.21,0,0-.17c13.74.28,29.78-.4,41.47-.4,19.51,0,38.88-.07,58.17-.4,10.12-.17,17.25.25,27.2.94,9.51.66,19.52.45,29.35.45,19.41,0,33,2.34,50.87,4.13,11.86,1.18,25.39.84,38,.84,6.26,0,12.42,0,18.53-.21,1.79-.05,4.2-.18,6.71-.29A5.54,5.54,0,0,0,361,55.93Z"/><path d="M348.93,76.8a5.51,5.51,0,0,0-.67-1.15,256.81,256.81,0,0,0-31.93,1,516,516,0,0,1-60.16,2c-22.23-.73-43.45-3.29-65.9-3.78-14.67-.32-29.2.18-43.74.55-11.39.29-23.22.11-34.33,1-1.75.15-4.6.28-7.34.47a17,17,0,0,1-.87-3.67c14.85-.18,31.88-1.1,34.73-1.26,10.46-.6,20.42-1.78,30.73-2.54,5.83-.43,12.77-1.6,18.68-1.6,14.44,0,27.49,4.27,40.83,5.52,11.58,1.08,23.64,2.59,35.87,2.63s19.47-1.44,29.35-3.33c12.29-2.36,26.16-5.3,40.37-6.7-4.77,0-9.52.13-14.2.45-13,.87-21.3,3.92-32.87,5.6a151.34,151.34,0,0,1-33.33,1.56c-16.22-1.17-26.68-5.7-43.34-6.76a216.44,216.44,0,0,0-42.24,1.2c-11.54,1.37-20.9,1.43-33.12,1.63-3.15.05-17.79,0-31.12.13a3.57,3.57,0,0,1,2.08-2.08c4.81-.06,9.57-.26,14.21-.68,8.44-.77,16.12-1.93,24.84-2.48,12.15-.76,24.94-.44,37.35-.45a587,587,0,0,1,68.51,4.22c17.2,2,23.61,1.48,36.87-2,8.29-2.21,25.69-1.86,31.41-4.36-4.8-1.83-31-.49-38.77-.6C264.34,61.15,251.9,59,237,57.16c-15.92-2-29.47-1.22-46-.55-7.69.31-14.87.62-22.83.6-11,0-21.59-.87-32.55-1-12-.14-26.6-.92-39.56-.65a1.5,1.5,0,0,1-.57.11H94.13a5.28,5.28,0,0,0,2.21,2.86c.37,0,.75.11,1.12.19,11.5.17,23.58,0,26.79.08,16.07.24,31.47.41,47.34-.2,14.6-.56,29.82-1.22,44.57-.78,11.8.35,22,1.9,32.65,3.42,5.13.73,10.88,1.7,16.16,2.09,5,.37,12.47-.07,16,1.24-8,1.77-23.63.56-32.93.15-20.74-.93-41.66-2.84-62.54-3.34-15-.35-28.62,1.18-42.53,2.44-9.65.88-19.45,1.25-29.27,1.59l0-.08-.25,0c-1.12,1.52-3.76,1.75-6.74,2.26-5.07,1.31-2.63,9.14-.55,12.73h.19l-.17-.3c2.17-.07,4.31-.24,5.89-.36,5.71-.44,10.82-1.25,16.64-1.59,7.15-.42,14.8-.12,22.08-.44,5.77-.25,11.52-1.05,17.31-1.3,9.89-.43,19.4.17,29.2.31,13.67.19,27.54-.08,40.17,1.59,21.32,2.82,40.64,2.32,63.37,1.39,11.73-.48,23.6-1.25,35.31-1.79,4-.19,8.82-.31,13.06-.1A5,5,0,0,0,348.93,76.8Z"/></g><g class="cls-9"><path d="M229.26,74.72c-2.82-1.47-9-.95-14-1.07-17.09-.41-30.86-4.59-48.15-5.52-8.55-.46-19-.36-27.66-.49-7.52-.11-15.26,0-22.64.19-5.85.15-27.52-.26-41,.15a1.35,1.35,0,0,1-1.17.27l-.36-.05a8.37,8.37,0,0,0-.26,1.3,1.48,1.48,0,0,1,1,.34c11.44-.13,26.88-.74,29.64-.78,16.15-.19,32.6.21,48.75,0,11.86-.15,21.27.35,31,2.25,4.79.93,8.55,1.93,14.13,2.51,3.8.4,12.55.57,14.07,1.38a565.71,565.71,0,0,0-65.52,5.11c-9.66,1.25-22.73,1.44-33.45,1.28-3.06,0-7.6-.27-12.48-.46a1.23,1.23,0,0,1-.41.18c2.35,1.51,5.81,0,9.9,1.49,0,.09,0,.17,0,.25a1.42,1.42,0,0,1,.53.16c9.43,0,18.48-.29,27.69-1,16.86-1.26,32.69-3,49.35-4.32,11-.88,21.1-.67,32.3-.93C225.66,76.88,232.83,76.57,229.26,74.72Z"/><path d="M319.47,69.24c-17.44-.23-30.66.36-46.31,2.47-7.35,1-14,1.9-22,.85-8.26-1.08-14.39-3-23-4-17.18-1.91-38-1.92-56.1-3-21-1.31-42.73-1.45-64.32-1.23-6.17.06-12.31.14-18.43.28-.46,0-.93.07-1.36.07a1.8,1.8,0,0,1-.38,0q-4,.1-7.93.25l-2.11.09a4.56,4.56,0,0,0-1.56.67,3.83,3.83,0,0,0-1.12,1.21l.42.06a1.45,1.45,0,0,1,.38.12c5.38-.26,11.16-.72,13.47-.77,8.14-.21,16.5-.27,24.54-.5,30.31-.85,65,1.11,94.57,3.14,6.95.48,14.36.92,19.9,2.12,6,1.3,10.24,2.84,17.4,3.83a105.19,105.19,0,0,0,32.16-.18c12.13-1.85,17.86-3.49,32.66-3.49,13.36,0,26.8,1.13,40.18.67l1.64-.08q.18-1.41.36-2.81C342.67,69.86,325.94,69.33,319.47,69.24Z"/><path d="M351.35,51.3c-2.92.48-5.83,1-8.78,1.39C332.33,54,324,54.18,312.52,54.05c-16.47-.19-32.6,1.27-49,.9-17.24-.38-33.56-2.25-50.8-2.7-14.59-.38-28.9.36-43.58,0-13.67-.33-27.56-.79-41.34-.45-11.37.28-22.67.79-34.07,1-1.92,0-5.48,0-9.28.06l.21-.21-.21,0a5.93,5.93,0,0,0-1.07,1.44,4.64,4.64,0,0,0-.22.47,1.33,1.33,0,0,1,.59.19c7.09-.19,14.69-.69,19.63-.75,10.78-.13,21.27-.43,32-.56,23.31-.3,47.11,0,70.27.58,17.44.46,33.91,2.25,51.27,2.64,17.12.39,37,.68,53.42-.84,12.47-1.15,23.08-1.81,36.15-1.81,1.95,0,4.07,0,6.19,0A6.85,6.85,0,0,0,351.35,51.3Z"/><path d="M353,61.53c-17.26,3.78-53,1.74-71.54-.41C271.76,60,262.78,59,252.42,58.34A98.59,98.59,0,0,0,226,59.71c-13.11,2.11-25.27,2-39.59.84-14.82-1.19-27.72-1.48-43.19-1.71-13.78-.2-27.29,0-41.15,0-6.21,0-12.69-.1-19.05-.06a2.89,2.89,0,0,1-.29.15c0,.17,0,.34.07.51a1.24,1.24,0,0,1,.85.24c1.2-.06,2.36-.12,3.41-.14,8-.19,16.14.2,24.12,0,15.11-.35,27.42-.1,42.3.69,7.79.41,15.89.28,23.64.71,7.05.38,13.48,1.28,20.59,1.64a168.66,168.66,0,0,0,23.17,0c6.79-.54,10.83-1.56,16.87-2.38,6.49-.88,11-.31,16.85.54,7.3,1.07,14.46,1.73,22.53,2.29,15.86,1.1,32.19,2.34,48.56,2.34,5.23,0,18.85-1,27.27-.62.1-1.07.16-2.15.2-3.24Z"/></g></g></g></g></svg>