<svg id="Layer_1" data-name="Layer 1" xmlns="http://www.w3.org/2000/svg" xmlns:xlink="http://www.w3.org/1999/xlink" viewBox="0 0 236 200"><defs><style>.cls-1{fill:none;}.cls-2{clip-path:url(#clip-path);}.cls-3{clip-path:url(#clip-path-2);}.cls-4{clip-path:url(#clip-path-3);}.cls-5{clip-path:url(#clip-path-4);}.cls-6{clip-path:url(#clip-path-5);}.cls-7{clip-path:url(#clip-path-6);}.cls-8{clip-path:url(#clip-path-7);}.cls-9{clip-path:url(#clip-path-8);}</style><clipPath id="clip-path"><rect class="cls-1" y="63.64" width="162.69" height="72.72"/></clipPath><clipPath id="clip-path-2"><rect class="cls-1" y="63.66" width="242.57" height="46.96"/></clipPath><clipPath id="clip-path-3"><rect class="cls-1" y="115.4" width="233.93" height="41.72"/></clipPath><clipPath id="clip-path-4"><rect class="cls-1" x="228.55" y="63.65" width="7.45" height="72.71"/></clipPath><clipPath id="clip-path-5"><rect class="cls-1" x="228.55" y="63.65" width="15.31" height="72.7"/></clipPath><clipPath id="clip-path-6"><rect class="cls-1" x="101.16" y="63.64" width="189.98" height="72.72"/></clipPath><clipPath id="clip-path-7"><rect class="cls-1" x="101.16" y="63.66" width="242.57" height="46.96"/></clipPath><clipPath id="clip-path-8"><rect class="cls-1" x="101.16" y="115.41" width="233.93" height="41.72"/></clipPath></defs><title>Left Comb</title><rect x="162.69" y="63.64" width="1.59" height="72.72"/><rect x="226.96" y="63.64" width="1.59" height="72.72"/><g class="cls-2"><g class="cls-3"><path d="M132.83,89.33c-2.92-1.65-9.31-1.07-14.49-1.2-17.72-.46-32-5.17-49.93-6.22-8.87-.52-19.69-.41-28.68-.55-7.79-.12-15.82,0-23.47.21-6.07.17-28.53-.29-42.57.16a1.32,1.32,0,0,1-1.21.3l-.38-.06a10.14,10.14,0,0,0-.27,1.47,1.47,1.47,0,0,1,1,.38C-15.29,83.68.72,83,3.58,83c16.75-.22,33.8.24,50.55,0,12.3-.17,22.06.4,32.18,2.53,5,1,8.87,2.17,14.66,2.83,3.94.45,13,.64,14.59,1.55a541.38,541.38,0,0,0-67.94,5.76c-10,1.41-23.57,1.62-34.68,1.44C9.75,97,5,96.77,0,96.56a1.23,1.23,0,0,1-.43.2c2.44,1.7,6-.06,10.27,1.67,0,.1,0,.19,0,.29a1.39,1.39,0,0,1,.55.18c9.78,0,19.16-.32,28.71-1.1C56.6,96.39,73,94.44,90.29,92.95c11.39-1,21.88-.75,33.5-1C129.1,91.77,136.53,91.42,132.83,89.33Z"/><path d="M226.38,83.17c-18.09-.26-31.79.4-48,2.78-7.62,1.12-14.55,2.14-22.86,1-8.57-1.22-14.93-3.41-23.84-4.48C113.84,80.26,92.26,80.26,73.47,79c-21.78-1.47-44.31-1.63-66.7-1.39-6.39.07-12.77.16-19.11.32a13.47,13.47,0,0,1-1.41.08,1.73,1.73,0,0,1-.4,0q-4.12.11-8.22.28l-2.18.1a4.54,4.54,0,0,0-1.62.76,4.2,4.2,0,0,0-1.16,1.36l.43.07a1.42,1.42,0,0,1,.4.14c5.58-.29,11.58-.8,14-.87,8.44-.24,17.11-.3,25.44-.56,31.43-1,67.42,1.25,98.07,3.53,7.2.54,14.89,1,20.64,2.39,6.24,1.47,10.62,3.2,18,4.31a100.6,100.6,0,0,0,33.35-.2c12.58-2.08,18.52-3.92,33.87-3.92,13.86,0,27.79,1.27,41.67.75l1.7-.09q.18-1.58.37-3.17C250.44,83.87,233.08,83.27,226.38,83.17Z"/><path d="M259.44,63c-3,.55-6,1.12-9.1,1.56-10.62,1.52-19.24,1.68-31.16,1.53-17.08-.21-33.81,1.43-50.85,1-17.88-.43-34.8-2.54-52.68-3-15.13-.42-30,.4-45.19,0-14.18-.37-28.58-.89-42.87-.51-11.79.31-23.51.89-35.33,1.15-2,0-5.68,0-9.62.07l.22-.23-.22,0a6.66,6.66,0,0,0-1.11,1.62,5.43,5.43,0,0,0-.23.52,1.31,1.31,0,0,1,.61.21c7.35-.21,15.24-.77,20.36-.84,11.18-.15,22.05-.48,33.2-.64,24.17-.34,48.85,0,72.86.65,18.09.52,35.16,2.53,53.16,3,17.75.44,38.38.76,55.39-.94a351.92,351.92,0,0,1,37.49-2c2,0,4.23,0,6.41,0A8,8,0,0,0,259.44,63Z"/><path d="M261.18,74.49c-17.9,4.26-55,2-74.18-.46-10.09-1.27-19.4-2.39-30.15-3.13-11.91-.82-17.44-.19-27.37,1.54-13.6,2.37-26.2,2.24-41.05.94C73.06,72,59.68,71.71,43.64,71.46c-14.29-.23-28.3,0-42.67,0-6.44,0-13.15-.11-19.75-.06a2.93,2.93,0,0,1-.3.17c0,.19,0,.39.08.58a1.21,1.21,0,0,1,.88.27c1.24-.07,2.44-.13,3.53-.16,8.27-.22,16.74.22,25,0,15.67-.39,28.44-.11,43.86.78,8.08.47,16.48.32,24.51.79,7.31.43,14,1.44,21.35,1.84a161.15,161.15,0,0,0,24,0c7-.61,11.23-1.75,17.49-2.68,6.73-1,11.42-.35,17.47.61,7.57,1.2,15,1.95,23.36,2.58,16.45,1.23,33.38,2.64,50.36,2.63,5.42,0,19.55-1.14,28.27-.7.1-1.21.17-2.42.21-3.64Z"/><path d="M241.47,107.35a2.76,2.76,0,0,1-.81-1.91c-5.15,0-10.31-.06-15.62.22-13.62.72-27.25,1.69-40.87,2.49-26,1.52-48.46-1.32-73.89-1.74-26.13-.43-51.85,1.59-77.85,2-11.62.18-23.87.16-35.5,0-1.37,0-3.73-.13-6.37-.21l0-.21-.17.14c.15.59.32,1.19.5,1.78a1.15,1.15,0,0,1,.26.2l0-.13c22.54,1.19,47,.6,69.39,0,15.19-.4,30.55-1.19,45.69-1.19,8.31,0,16.49,0,24.7.2s15.48,1.28,23.49,1.64c14.65.65,29.64-.4,44-.8,15.43-.43,32-.45,47.5,0,1,0,2.24.07,3.57.13C247.86,108.09,243.34,109.25,241.47,107.35Z"/><path d="M259.75,91.68c-5.76,0-12.17.42-16.72.68-11.87.67-25.68.08-36.52,1.93-8.28,1.42-12.72,4.55-21.64,5.62s-18.71,0-26.53-1.25C140.9,95.87,132.52,95.73,115,98c-16.83,2.2-38,2.76-56,4.07-16.88,1.24-34.13.74-51.24.74H7.67c-.48,0-1,.07-1.42.08a1.54,1.54,0,0,1-.54-.09c-3.88,0-9.48-.18-15-.18a3.25,3.25,0,0,1,.24-.29l-.27.08A3.62,3.62,0,0,0-10,104a1.36,1.36,0,0,1,1,.35c1.84,0,3.59,0,5.13,0,7.33.21,14.71.65,22.34.42,7.47-.23,14.19-1.18,21.68-1.4,6.86-.2,13.84-.21,20.66-.4,15.22-.43,31.48-.51,46.2-1.82,12.25-1.09,21.09-4,34.68-3.14,12.16.76,23,3.22,35.35,3.58,11.63.33,21.7-1.65,30.7-3.59,12.35-2.65,25.44-3.15,40.17-3.56,3.65-.1,7.87,0,12,0C259.85,93.54,259.77,92.58,259.75,91.68Z"/><path d="M259.8,119.43c-21,2.9-57-.45-74.79-1.25-23.8-1.07-48.48-3.17-72.57-3.23-18.58,0-36.79.63-55.34.6-18,0-35.47-1.22-53.55-1-2.74,0-7,0-11.29.15h-.2a27.66,27.66,0,0,0,.43,2.78l.21,0,0-.17c13.74.28,29.78-.4,41.47-.4,19.51,0,38.88-.07,58.17-.4,10.12-.17,17.25.25,27.2.94,9.51.66,19.52.45,29.35.45,19.41,0,33,2.34,50.87,4.13,11.86,1.18,25.39.84,38,.84,6.26,0,12.42,0,18.53-.21,1.79-.05,4.2-.18,6.71-.29A5.54,5.54,0,0,0,259.8,119.43Z"/><path d="M247.77,140.3a5.51,5.51,0,0,0-.67-1.15,256.81,256.81,0,0,0-31.93,1,516,516,0,0,1-60.16,2c-22.23-.73-43.45-3.29-65.9-3.78-14.67-.32-29.2.18-43.74.55-11.39.29-23.22.11-34.33,1-1.75.15-4.6.28-7.34.47a17,17,0,0,1-.87-3.67c14.85-.18,31.88-1.1,34.73-1.26C48,135,58,133.78,68.28,133c5.83-.43,12.77-1.6,18.68-1.6,14.44,0,27.49,4.27,40.83,5.52,11.58,1.08,23.64,2.59,35.87,2.63s19.47-1.44,29.35-3.33c12.29-2.36,26.16-5.3,40.37-6.7-4.77,0-9.52.13-14.2.45-13,.87-21.3,3.92-32.87,5.6A151.34,151.34,0,0,1,153,137.15c-16.22-1.17-26.68-5.7-43.34-6.76a216.44,216.44,0,0,0-42.24,1.2C55.85,133,46.49,133,34.27,133.22c-3.15.05-17.79,0-31.12.13a3.57,3.57,0,0,1,2.08-2.08c4.81-.06,9.57-.26,14.21-.68,8.44-.77,16.12-1.93,24.84-2.48,12.15-.76,24.94-.44,37.35-.45a587,587,0,0,1,68.51,4.22c17.2,2,23.61,1.48,36.87-2,8.29-2.21,25.69-1.86,31.41-4.36-4.8-1.83-31-.49-38.77-.6-16.48-.23-28.92-2.37-43.86-4.22-15.92-2-29.47-1.22-46-.55-7.69.31-14.87.62-22.83.6-11,0-21.59-.87-32.55-1-12-.14-26.6-.92-39.56-.65a1.5,1.5,0,0,1-.57.11H-7A5.28,5.28,0,0,0-4.82,122c.37,0,.75.11,1.12.19,11.5.17,23.58,0,26.79.08,16.07.24,31.47.41,47.34-.2,14.6-.56,29.82-1.22,44.57-.78,11.8.35,22,1.9,32.65,3.42,5.13.73,10.88,1.7,16.16,2.09,5,.37,12.47-.07,16,1.24-8,1.77-23.63.56-32.93.15-20.74-.93-41.66-2.84-62.54-3.34-15-.35-28.62,1.18-42.53,2.44-9.65.88-19.45,1.25-29.27,1.59l0-.08-.25,0c-1.12,1.52-3.76,1.75-6.74,2.26-5.07,1.31-2.63,9.14-.55,12.73H5.2l-.17-.3c2.17-.07,4.31-.24,5.89-.36,5.71-.44,10.82-1.25,16.64-1.59,7.15-.42,14.8-.12,22.08-.44,5.77-.25,11.52-1.05,17.31-1.3,9.89-.43,19.4.17,29.2.31,13.67.19,27.54-.08,40.17,1.59,21.32,2.82,40.64,2.32,63.37,1.39,11.73-.48,23.6-1.25,35.31-1.79,4-.19,8.82-.31,13.06-.1A5,5,0,0,0,247.77,140.3Z"/></g><g class="cls-4"><path d="M128.1,138.21c-2.82-1.47-9-.95-14-1.07C97,136.73,83.26,132.55,66,131.62c-8.55-.46-19-.36-27.66-.49-7.52-.11-15.26,0-22.64.19-5.85.15-27.52-.26-41,.15a1.35,1.35,0,0,1-1.17.27l-.36-.05a8.37,8.37,0,0,0-.26,1.3,1.48,1.48,0,0,1,1,.34c11.44-.13,26.88-.74,29.64-.78,16.15-.19,32.6.21,48.75,0,11.86-.15,21.27.35,31,2.25,4.79.93,8.55,1.93,14.13,2.51,3.8.4,12.55.57,14.07,1.38a565.71,565.71,0,0,0-65.52,5.11c-9.66,1.25-22.73,1.44-33.45,1.28-3.06,0-7.6-.27-12.48-.46a1.23,1.23,0,0,1-.41.18c2.35,1.51,5.81,0,9.9,1.49,0,.09,0,.17,0,.25a1.42,1.42,0,0,1,.53.16c9.43,0,18.48-.29,27.69-1,16.86-1.26,32.69-3,49.35-4.32,11-.88,21.1-.67,32.3-.93C124.49,140.38,131.67,140.07,128.1,138.21Z"/><path d="M218.31,132.73c-17.44-.23-30.66.36-46.31,2.47-7.35,1-14,1.9-22,.85-8.26-1.08-14.39-3-23-4-17.18-1.91-38-1.92-56.1-3-21-1.31-42.73-1.45-64.32-1.23-6.17.06-12.31.14-18.43.28-.46,0-.93.07-1.36.07a1.8,1.8,0,0,1-.38,0q-4,.1-7.93.25l-2.11.09a4.56,4.56,0,0,0-1.56.67,3.83,3.83,0,0,0-1.12,1.21l.42.06a1.45,1.45,0,0,1,.38.12c5.38-.26,11.16-.72,13.47-.77,8.14-.21,16.5-.27,24.54-.5,30.31-.85,65,1.11,94.57,3.14,6.95.48,14.36.92,19.9,2.12,6,1.3,10.24,2.84,17.4,3.83a105.19,105.19,0,0,0,32.16-.18c12.13-1.85,17.86-3.49,32.66-3.49,13.36,0,26.8,1.13,40.18.67l1.64-.08q.18-1.41.36-2.81C241.51,133.36,224.78,132.82,218.31,132.73Z"/><path d="M250.19,114.8c-2.92.48-5.83,1-8.78,1.39-10.25,1.35-18.55,1.49-30.05,1.36-16.47-.19-32.6,1.27-49,.9-17.24-.38-33.56-2.25-50.8-2.7-14.59-.38-28.9.36-43.58,0-13.67-.33-27.56-.79-41.34-.45-11.37.28-22.67.79-34.07,1-1.92,0-5.48,0-9.28.06l.21-.21-.21,0a5.93,5.93,0,0,0-1.07,1.44,4.64,4.64,0,0,0-.22.47,1.33,1.33,0,0,1,.59.19c7.09-.19,14.69-.69,19.63-.75,10.78-.13,21.27-.43,32-.56,23.31-.3,47.11,0,70.27.58,17.44.46,33.91,2.25,51.27,2.64,17.12.39,37,.68,53.42-.84,12.47-1.15,23.08-1.81,36.15-1.81,1.95,0,4.07,0,6.19,0A6.85,6.85,0,0,0,250.19,114.8Z"/><path d="M251.87,125c-17.26,3.78-53,1.74-71.54-.41-9.73-1.13-18.71-2.12-29.07-2.78a98.59,98.59,0,0,0-26.39,1.37c-13.11,2.11-25.27,2-39.59.84-14.82-1.19-27.72-1.48-43.19-1.71-13.78-.2-27.29,0-41.15,0-6.21,0-12.69-.1-19.05-.06a2.89,2.89,0,0,1-.29.15c0,.17,0,.34.07.51a1.24,1.24,0,0,1,.85.24c1.2-.06,2.36-.12,3.41-.14,8-.19,16.14.2,24.12,0,15.11-.35,27.42-.1,42.3.69,7.79.41,15.89.28,23.64.71,7.05.38,13.48,1.28,20.59,1.64a168.66,168.66,0,0,0,23.17,0c6.79-.54,10.83-1.56,16.87-2.38,6.49-.88,11-.31,16.85.54,7.3,1.07,14.46,1.73,22.53,2.29,15.86,1.1,32.19,2.34,48.56,2.34,5.23,0,18.85-1,27.27-.62.1-1.07.16-2.15.2-3.24Z"/><path d="M232.86,154.21a2.36,2.36,0,0,1-.78-1.7c-5,0-9.94-.05-15.06.19-13.13.64-26.28,1.51-39.41,2.21-25.09,1.35-46.73-1.18-71.26-1.54-25.2-.38-50,1.41-75.08,1.77-11.21.16-23,.14-34.24,0-1.32,0-3.6-.11-6.15-.19l0-.19-.16.13c.14.53.31,1.06.48,1.58a1.1,1.1,0,0,1,.25.18l0-.12c21.74,1.06,45.37.53,66.91,0,14.65-.36,29.46-1.05,44.06-1.05,8,0,15.9,0,23.81.18s14.93,1.14,22.66,1.45c14.13.58,28.58-.35,42.47-.71,14.88-.38,30.86-.4,45.81,0l3.44.11C239,154.87,234.66,155.9,232.86,154.21Z"/><path d="M250.5,140.29c-5.56,0-11.73.38-16.13.6-11.45.6-24.77.07-35.21,1.72-8,1.26-12.27,4-20.87,5s-18,0-25.59-1.11c-16.82-2.48-24.91-2.61-41.81-.57-16.23,2-36.69,2.45-54,3.62-16.27,1.1-32.91.66-49.42.66H7.4c-.46,0-.93.07-1.37.07a1.59,1.59,0,0,1-.52-.08c-3.74,0-9.14-.16-14.45-.16a3,3,0,0,1,.23-.26l-.26.07a3.1,3.1,0,0,0-.68,1.43,1.38,1.38,0,0,1,.93.31c1.77,0,3.46,0,4.95,0,7.07.19,14.19.58,21.54.37,7.2-.2,13.68-1,20.91-1.24,6.61-.18,13.35-.18,19.92-.36,14.67-.39,30.36-.45,44.56-1.62,11.82-1,20.34-3.54,33.44-2.79,11.73.67,22.15,2.87,34.09,3.18,11.22.3,20.93-1.47,29.6-3.19,11.91-2.36,24.53-2.8,38.74-3.17,3.52-.09,7.59,0,11.57,0C250.59,141.95,250.51,141.09,250.5,140.29Z"/><path d="M250.54,164.95c-20.28,2.58-55-.4-72.13-1.11-23-1-46.76-2.81-70-2.87-17.92,0-35.48.56-53.37.53-17.33,0-34.21-1.09-51.64-.89-2.64,0-6.71,0-10.89.13h-.19a22.78,22.78,0,0,0,.41,2.47l.2,0,0-.15c13.25.25,28.71-.36,40-.36,18.82,0,37.5-.06,56.1-.35,9.76-.15,16.64.22,26.23.84,9.17.59,18.83.4,28.3.4,18.71,0,31.81,2.08,49.06,3.67,11.44,1.05,24.49.75,36.63.75,6,0,12,0,17.87-.19,1.73,0,4-.16,6.47-.26A5.17,5.17,0,0,0,250.54,164.95Z"/><path d="M238.94,183.49a4.82,4.82,0,0,0-.65-1,268.73,268.73,0,0,0-30.8.92,539.9,539.9,0,0,1-58,1.81c-21.44-.65-41.9-2.93-63.55-3.36-14.15-.28-28.16.16-42.18.49-11,.26-22.39.09-33.11.93-1.68.13-4.43.25-7.08.42a14.09,14.09,0,0,1-.84-3.26c14.32-.16,30.74-1,33.49-1.12,10.09-.53,19.69-1.58,29.64-2.26,5.62-.38,12.31-1.42,18-1.42,13.92,0,26.51,3.8,39.38,4.91,11.16,1,22.79,2.3,34.59,2.34s18.78-1.28,28.3-3c11.85-2.1,25.23-4.71,38.93-6-4.6,0-9.18.12-13.7.4-12.51.77-20.54,3.49-31.7,5a158.27,158.27,0,0,1-32.14,1.39c-15.64-1-25.73-5.07-41.8-6A226.45,226.45,0,0,0,65,175.75C53.86,177,44.83,177,33,177.2c-3,0-17.16,0-30,.12a3.31,3.31,0,0,1,2-1.84c4.64-.05,9.23-.23,13.7-.61,8.14-.68,15.55-1.72,24-2.2,11.72-.68,24.05-.39,36-.4A613.84,613.84,0,0,1,144.79,176c16.59,1.81,22.77,1.32,35.56-1.82,8-2,24.78-1.65,30.29-3.87-4.63-1.63-29.93-.43-37.39-.53-15.89-.21-27.89-2.11-42.29-3.75-15.36-1.75-28.42-1.08-44.36-.49-7.41.28-14.34.55-22,.53-10.63,0-20.82-.77-31.39-.88-11.56-.12-25.65-.82-38.15-.58a1.55,1.55,0,0,1-.55.1H-6.78a4.77,4.77,0,0,0,2.13,2.54c.36,0,.72.09,1.08.17,11.09.15,22.74,0,25.84.07,15.5.21,30.35.36,45.65-.18,14.08-.5,28.76-1.09,43-.7,11.38.31,21.2,1.69,31.48,3,4.95.65,10.49,1.51,15.58,1.86,4.82.33,12-.06,15.39,1.1-7.73,1.57-22.79.5-31.76.13-20-.82-40.17-2.53-60.31-3-14.45-.31-27.6,1-41,2.17-9.31.78-18.75,1.11-28.23,1.41l0-.07-.24,0c-1.08,1.35-3.63,1.55-6.5,2-4.89,1.16-2.54,8.12-.53,11.31H5l-.17-.27c2.09-.06,4.16-.21,5.68-.32,5.5-.39,10.43-1.11,16-1.42,6.9-.37,14.27-.11,21.29-.39,5.56-.22,11.11-.94,16.69-1.16,9.53-.38,18.71.16,28.16.27,13.18.17,26.56-.07,38.74,1.41,20.56,2.5,39.2,2.06,61.11,1.24,11.31-.43,22.76-1.11,34.05-1.59,3.89-.17,8.51-.27,12.59-.09A4.18,4.18,0,0,0,238.94,183.49Z"/></g></g><path d="M162,64.43v71.14H.68V64.43H162m.68-.79H0v72.72H162.69V63.64Z"/><g class="cls-5"><g class="cls-6"><g class="cls-7"><g class="cls-8"><path d="M234,89.34c-2.92-1.65-9.31-1.07-14.49-1.2-17.72-.46-32-5.17-49.93-6.22-8.87-.52-19.69-.41-28.68-.55-7.79-.12-15.82,0-23.47.21-6.07.17-28.53-.29-42.57.16a1.32,1.32,0,0,1-1.21.3L73.27,82A10.14,10.14,0,0,0,73,83.46a1.47,1.47,0,0,1,1,.38c11.87-.15,27.87-.84,30.74-.87,16.75-.22,33.8.24,50.55,0,12.3-.17,22.06.4,32.18,2.53,5,1,8.87,2.17,14.66,2.83,3.94.45,13,.64,14.59,1.55a541.38,541.38,0,0,0-67.94,5.76c-10,1.41-23.57,1.62-34.68,1.44-3.18-.05-7.88-.31-12.94-.52a1.23,1.23,0,0,1-.43.2c2.44,1.7,6-.06,10.27,1.67,0,.1,0,.19,0,.29a1.39,1.39,0,0,1,.55.18c9.78,0,19.16-.32,28.71-1.1,17.48-1.42,33.9-3.37,51.17-4.86,11.39-1,21.88-.75,33.5-1C230.26,91.78,237.7,91.43,234,89.34Z"/><path d="M327.54,83.18c-18.09-.26-31.79.4-48,2.78-7.62,1.12-14.55,2.14-22.86,1-8.57-1.22-14.93-3.41-23.84-4.48C215,80.27,193.42,80.26,174.64,79c-21.78-1.47-44.31-1.63-66.7-1.39-6.39.07-12.77.16-19.11.32a13.47,13.47,0,0,1-1.41.08,1.73,1.73,0,0,1-.4,0q-4.12.11-8.22.28l-2.18.1A4.54,4.54,0,0,0,75,79.1a4.2,4.2,0,0,0-1.16,1.36l.43.07a1.42,1.42,0,0,1,.4.14c5.58-.29,11.58-.8,14-.87,8.44-.24,17.11-.3,25.44-.56,31.43-1,67.42,1.25,98.07,3.53,7.2.54,14.89,1,20.64,2.39,6.24,1.47,10.62,3.2,18,4.31a100.6,100.6,0,0,0,33.35-.2c12.58-2.08,18.52-3.92,33.87-3.92,13.86,0,27.79,1.27,41.67.75l1.7-.09q.18-1.58.37-3.17C351.6,83.88,334.24,83.27,327.54,83.18Z"/><path d="M360.6,63c-3,.55-6,1.12-9.1,1.56-10.62,1.52-19.24,1.68-31.16,1.53-17.08-.21-33.81,1.43-50.85,1-17.88-.43-34.8-2.54-52.68-3-15.13-.42-30,.4-45.19,0-14.18-.37-28.58-.89-42.87-.51-11.79.31-23.51.89-35.33,1.15-2,0-5.68,0-9.62.07l.22-.23-.22,0a6.66,6.66,0,0,0-1.11,1.62,5.43,5.43,0,0,0-.23.52,1.31,1.31,0,0,1,.61.21c7.35-.21,15.24-.77,20.36-.84,11.18-.15,22.05-.48,33.2-.64,24.17-.34,48.85,0,72.86.65,18.09.52,35.16,2.53,53.16,3,17.75.44,38.38.76,55.39-.94a351.92,351.92,0,0,1,37.49-2c2,0,4.23,0,6.41,0A8,8,0,0,0,360.6,63Z"/><path d="M362.34,74.49c-17.9,4.26-55,2-74.18-.46-10.09-1.27-19.4-2.39-30.15-3.13-11.91-.82-17.44-.19-27.37,1.54-13.6,2.37-26.2,2.24-41.05.94-15.37-1.34-28.75-1.67-44.79-1.93-14.29-.23-28.3,0-42.67,0-6.44,0-13.15-.11-19.75-.06a2.93,2.93,0,0,1-.3.17c0,.19,0,.39.08.58a1.21,1.21,0,0,1,.88.27c1.24-.07,2.44-.13,3.53-.16,8.27-.22,16.74.22,25,0,15.67-.39,28.44-.11,43.86.78,8.08.47,16.48.32,24.51.79,7.31.43,14,1.44,21.35,1.84a161.15,161.15,0,0,0,24,0c7-.61,11.23-1.75,17.49-2.68,6.73-1,11.42-.35,17.47.61,7.57,1.2,15,1.95,23.36,2.58C300.1,77.4,317,78.81,334,78.8c5.42,0,19.55-1.14,28.27-.7.1-1.21.17-2.42.21-3.64Z"/><path d="M342.63,107.35a2.76,2.76,0,0,1-.81-1.91c-5.15,0-10.31-.06-15.62.22-13.62.72-27.25,1.69-40.87,2.49-26,1.52-48.46-1.32-73.89-1.74-26.13-.43-51.85,1.59-77.85,2-11.62.18-23.87.16-35.5,0-1.37,0-3.73-.13-6.37-.21l0-.21-.17.14c.15.59.32,1.19.5,1.78a1.15,1.15,0,0,1,.26.2l0-.13c22.54,1.19,47,.6,69.39,0,15.19-.4,30.55-1.19,45.69-1.19,8.31,0,16.49,0,24.7.2s15.48,1.28,23.49,1.64c14.65.65,29.64-.4,44-.8,15.43-.43,32-.45,47.5,0,1,0,2.24.07,3.57.13C349,108.09,344.5,109.25,342.63,107.35Z"/><path d="M360.92,91.68c-5.76,0-12.17.42-16.72.68-11.87.67-25.68.08-36.52,1.93C299.4,95.71,295,98.84,286,99.92s-18.71,0-26.53-1.25c-17.44-2.79-25.83-2.93-43.35-.64-16.83,2.2-38,2.76-56,4.07-16.88,1.24-34.13.74-51.24.74h-.07c-.48,0-1,.07-1.42.08a1.54,1.54,0,0,1-.54-.09c-3.88,0-9.48-.18-15-.18a3.25,3.25,0,0,1,.24-.29l-.27.08a3.62,3.62,0,0,0-.71,1.61,1.36,1.36,0,0,1,1,.35c1.84,0,3.59,0,5.13,0,7.33.21,14.71.65,22.34.42,7.47-.23,14.19-1.18,21.68-1.4,6.86-.2,13.84-.21,20.66-.4,15.22-.43,31.48-.51,46.2-1.82,12.25-1.09,21.09-4,34.68-3.14,12.16.76,23,3.22,35.35,3.58,11.63.33,21.7-1.65,30.7-3.59C321.21,95.4,334.3,94.9,349,94.49c3.65-.1,7.87,0,12,0C361,93.55,360.93,92.58,360.92,91.68Z"/><path d="M361,119.43c-21,2.9-57-.45-74.79-1.25-23.8-1.07-48.48-3.17-72.57-3.23-18.58,0-36.79.63-55.34.6-18,0-35.47-1.22-53.55-1-2.74,0-7,0-11.29.15h-.2a27.66,27.66,0,0,0,.43,2.78l.21,0,0-.17c13.74.28,29.78-.4,41.47-.4,19.51,0,38.88-.07,58.17-.4,10.12-.17,17.25.25,27.2.94,9.51.66,19.52.45,29.35.45,19.41,0,33,2.34,50.87,4.13,11.86,1.18,25.39.84,38,.84,6.26,0,12.42,0,18.53-.21,1.79-.05,4.2-.18,6.71-.29A5.54,5.54,0,0,0,361,119.43Z"/><path d="M348.93,140.3a5.51,5.51,0,0,0-.67-1.15,256.81,256.81,0,0,0-31.93,1,516,516,0,0,1-60.16,2c-22.23-.73-43.45-3.29-65.9-3.78-14.67-.32-29.2.18-43.74.55-11.39.29-23.22.11-34.33,1-1.75.15-4.6.28-7.34.47a17,17,0,0,1-.87-3.67c14.85-.18,31.88-1.1,34.73-1.26,10.46-.6,20.42-1.78,30.73-2.54,5.83-.43,12.77-1.6,18.68-1.6,14.44,0,27.49,4.27,40.83,5.52,11.58,1.08,23.64,2.59,35.87,2.63s19.47-1.44,29.35-3.33c12.29-2.36,26.16-5.3,40.37-6.7-4.77,0-9.52.13-14.2.45-13,.87-21.3,3.92-32.87,5.6a151.34,151.34,0,0,1-33.33,1.56c-16.22-1.17-26.68-5.7-43.34-6.76a216.44,216.44,0,0,0-42.24,1.2C157,133,147.65,133,135.43,133.22c-3.15.05-17.79,0-31.12.13a3.57,3.57,0,0,1,2.08-2.08c4.81-.06,9.57-.26,14.21-.68,8.44-.77,16.12-1.93,24.84-2.48,12.15-.76,24.94-.44,37.35-.45a587,587,0,0,1,68.51,4.22c17.2,2,23.61,1.48,36.87-2,8.29-2.21,25.69-1.86,31.41-4.36-4.8-1.83-31-.49-38.77-.6-16.48-.23-28.92-2.37-43.86-4.22-15.92-2-29.47-1.22-46-.55-7.69.31-14.87.62-22.83.6-11,0-21.59-.87-32.55-1-12-.14-26.6-.92-39.56-.65a1.5,1.5,0,0,1-.57.11H94.13A5.28,5.28,0,0,0,96.34,122c.37,0,.75.11,1.12.19,11.5.17,23.58,0,26.79.08,16.07.24,31.47.41,47.34-.2,14.6-.56,29.82-1.22,44.57-.78,11.8.35,22,1.9,32.65,3.42,5.13.73,10.88,1.7,16.16,2.09,5,.37,12.47-.07,16,1.24-8,1.77-23.63.56-32.93.15-20.74-.93-41.66-2.84-62.54-3.34-15-.35-28.62,1.18-42.53,2.44-9.65.88-19.45,1.25-29.27,1.59l0-.08-.25,0c-1.12,1.52-3.76,1.75-6.74,2.26-5.07,1.31-2.63,9.14-.55,12.73h.19l-.17-.3c2.17-.07,4.31-.24,5.89-.36,5.71-.44,10.82-1.25,16.64-1.59,7.15-.42,14.8-.12,22.08-.44,5.77-.25,11.52-1.05,17.31-1.3,9.89-.43,19.4.17,29.2.31,13.67.19,27.54-.08,40.17,1.59,21.32,2.82,40.64,2.32,63.37,1.39,11.73-.48,23.6-1.25,35.31-1.79,4-.19,8.82-.31,13.06-.1A5,5,0,0,0,348.93,140.3Z"/></g><g class="cls-9"><path d="M229.26,138.22c-2.82-1.47-9-.95-14-1.07-17.09-.41-30.86-4.59-48.15-5.52-8.55-.46-19-.36-27.66-.49-7.52-.11-15.26,0-22.64.19-5.85.15-27.52-.26-41,.15a1.35,1.35,0,0,1-1.17.27l-.36-.05A8.37,8.37,0,0,0,74,133a1.48,1.48,0,0,1,1,.34c11.44-.13,26.88-.74,29.64-.78,16.15-.19,32.6.21,48.75,0,11.86-.15,21.27.35,31,2.25,4.79.93,8.55,1.93,14.13,2.51,3.8.4,12.55.57,14.07,1.38a565.71,565.71,0,0,0-65.52,5.11c-9.66,1.25-22.73,1.44-33.45,1.28-3.06,0-7.6-.27-12.48-.46a1.23,1.23,0,0,1-.41.18c2.35,1.51,5.81,0,9.9,1.49,0,.09,0,.17,0,.25a1.42,1.42,0,0,1,.53.16c9.43,0,18.48-.29,27.69-1,16.86-1.26,32.69-3,49.35-4.32,11-.88,21.1-.67,32.3-.93C225.66,140.38,232.83,140.07,229.26,138.22Z"/><path d="M319.47,132.74c-17.44-.23-30.66.36-46.31,2.47-7.35,1-14,1.9-22,.85-8.26-1.08-14.39-3-23-4-17.18-1.91-38-1.92-56.1-3-21-1.31-42.73-1.45-64.32-1.23-6.17.06-12.31.14-18.43.28-.46,0-.93.07-1.36.07a1.8,1.8,0,0,1-.38,0q-4,.1-7.93.25l-2.11.09a4.56,4.56,0,0,0-1.56.67,3.83,3.83,0,0,0-1.12,1.21l.42.06a1.45,1.45,0,0,1,.38.12c5.38-.26,11.16-.72,13.47-.77,8.14-.21,16.5-.27,24.54-.5,30.31-.85,65,1.11,94.57,3.14,6.95.48,14.36.92,19.9,2.12,6,1.3,10.24,2.84,17.4,3.83a105.19,105.19,0,0,0,32.16-.18c12.13-1.85,17.86-3.49,32.66-3.49,13.36,0,26.8,1.13,40.18.67l1.64-.08q.18-1.41.36-2.81C342.67,133.36,325.94,132.83,319.47,132.74Z"/><path d="M351.35,114.8c-2.92.48-5.83,1-8.78,1.39-10.25,1.35-18.55,1.49-30.05,1.36-16.47-.19-32.6,1.27-49,.9-17.24-.38-33.56-2.25-50.8-2.7-14.59-.38-28.9.36-43.58,0-13.67-.33-27.56-.79-41.34-.45-11.37.28-22.67.79-34.07,1-1.92,0-5.48,0-9.28.06l.21-.21-.21,0a5.93,5.93,0,0,0-1.07,1.44,4.64,4.64,0,0,0-.22.47,1.33,1.33,0,0,1,.59.19c7.09-.19,14.69-.69,19.63-.75,10.78-.13,21.27-.43,32-.56,23.31-.3,47.11,0,70.27.58,17.44.46,33.91,2.25,51.27,2.64,17.12.39,37,.68,53.42-.84,12.47-1.15,23.08-1.81,36.15-1.81,1.95,0,4.07,0,6.19,0A6.85,6.85,0,0,0,351.35,114.8Z"/><path d="M353,125c-17.26,3.78-53,1.74-71.54-.41-9.73-1.13-18.71-2.12-29.07-2.78A98.59,98.59,0,0,0,226,123.21c-13.11,2.11-25.27,2-39.59.84-14.82-1.19-27.72-1.48-43.19-1.71-13.78-.2-27.29,0-41.15,0-6.21,0-12.69-.1-19.05-.06a2.89,2.89,0,0,1-.29.15c0,.17,0,.34.07.51a1.24,1.24,0,0,1,.85.24c1.2-.06,2.36-.12,3.41-.14,8-.19,16.14.2,24.12,0,15.11-.35,27.42-.1,42.3.69,7.79.41,15.89.28,23.64.71,7.05.38,13.48,1.28,20.59,1.64a168.66,168.66,0,0,0,23.17,0c6.79-.54,10.83-1.56,16.87-2.38,6.49-.88,11-.31,16.85.54,7.3,1.07,14.46,1.73,22.53,2.29,15.86,1.1,32.19,2.34,48.56,2.34,5.23,0,18.85-1,27.27-.62.1-1.07.16-2.15.2-3.24Z"/><path d="M334,154.22a2.36,2.36,0,0,1-.78-1.7c-5,0-9.94-.05-15.06.19-13.13.64-26.28,1.51-39.41,2.21-25.09,1.35-46.73-1.18-71.26-1.54-25.2-.38-50,1.41-75.08,1.77-11.21.16-23,.14-34.24,0-1.32,0-3.6-.11-6.15-.19l0-.19-.16.13c.14.53.31,1.06.48,1.58a1.1,1.1,0,0,1,.25.18l0-.12c21.74,1.06,45.37.53,66.91,0,14.65-.36,29.46-1.05,44.06-1.05,8,0,15.9,0,23.81.18s14.93,1.14,22.66,1.45c14.13.58,28.58-.35,42.47-.71,14.88-.38,30.86-.4,45.81,0l3.44.11C340.19,154.87,335.83,155.91,334,154.22Z"/><path d="M351.66,140.3c-5.56,0-11.73.38-16.13.6-11.45.6-24.77.07-35.21,1.72-8,1.26-12.27,4-20.87,5s-18,0-25.59-1.11C237,144,229,143.89,212.05,145.93c-16.23,2-36.69,2.45-54,3.62-16.27,1.1-32.91.66-49.42.66h-.06c-.46,0-.93.07-1.37.07a1.59,1.59,0,0,1-.52-.08c-3.74,0-9.14-.16-14.45-.16a3,3,0,0,1,.23-.26l-.26.07a3.1,3.1,0,0,0-.68,1.43,1.38,1.38,0,0,1,.93.31c1.77,0,3.46,0,4.95,0,7.07.19,14.19.58,21.54.37,7.2-.2,13.68-1,20.91-1.24,6.61-.18,13.35-.18,19.92-.36,14.67-.39,30.36-.45,44.56-1.62,11.82-1,20.34-3.54,33.44-2.79,11.73.67,22.15,2.87,34.09,3.18,11.22.3,20.93-1.47,29.6-3.19,11.91-2.36,24.53-2.8,38.74-3.17,3.52-.09,7.59,0,11.57,0C351.75,142,351.67,141.1,351.66,140.3Z"/><path d="M351.7,165c-20.28,2.58-55-.4-72.13-1.11-23-1-46.76-2.81-70-2.87-17.92,0-35.48.56-53.37.53-17.33,0-34.21-1.09-51.64-.89-2.64,0-6.71,0-10.89.13h-.19a22.78,22.78,0,0,0,.41,2.47l.2,0,0-.15c13.25.25,28.71-.36,40-.36,18.82,0,37.5-.06,56.1-.35,9.76-.15,16.64.22,26.23.84,9.17.59,18.83.4,28.3.4,18.71,0,31.81,2.08,49.06,3.67,11.44,1.05,24.49.75,36.63.75,6,0,12,0,17.87-.19,1.73,0,4-.16,6.47-.26A5.17,5.17,0,0,0,351.7,165Z"/><path d="M340.1,183.49a4.82,4.82,0,0,0-.65-1,268.73,268.73,0,0,0-30.8.92,539.9,539.9,0,0,1-58,1.81c-21.44-.65-41.9-2.93-63.55-3.36-14.15-.28-28.16.16-42.18.49-11,.26-22.39.09-33.11.93-1.68.13-4.43.25-7.08.42a14.09,14.09,0,0,1-.84-3.26c14.32-.16,30.74-1,33.49-1.12,10.09-.53,19.69-1.58,29.64-2.26,5.62-.38,12.31-1.42,18-1.42,13.92,0,26.51,3.8,39.38,4.91,11.16,1,22.79,2.3,34.59,2.34s18.78-1.28,28.3-3c11.85-2.1,25.23-4.71,38.93-6-4.6,0-9.18.12-13.7.4-12.51.77-20.54,3.49-31.7,5a158.27,158.27,0,0,1-32.14,1.39c-15.64-1-25.73-5.07-41.8-6a226.45,226.45,0,0,0-40.74,1.06C155,177,146,177,134.21,177.2c-3,0-17.16,0-30,.12a3.31,3.31,0,0,1,2-1.84c4.64-.05,9.23-.23,13.7-.61,8.14-.68,15.55-1.72,24-2.2,11.72-.68,24.05-.39,36-.4A613.84,613.84,0,0,1,245.95,176c16.59,1.81,22.77,1.32,35.56-1.82,8-2,24.78-1.65,30.29-3.87-4.63-1.63-29.93-.43-37.39-.53-15.89-.21-27.89-2.11-42.29-3.75-15.36-1.75-28.42-1.08-44.36-.49-7.41.28-14.34.55-22,.53-10.63,0-20.82-.77-31.39-.88-11.56-.12-25.65-.82-38.15-.58a1.55,1.55,0,0,1-.55.1H94.38a4.77,4.77,0,0,0,2.13,2.54c.36,0,.72.09,1.08.17,11.09.15,22.74,0,25.84.07,15.5.21,30.35.36,45.65-.18,14.08-.5,28.76-1.09,43-.7,11.38.31,21.2,1.69,31.48,3,4.95.65,10.49,1.51,15.58,1.86,4.82.33,12-.06,15.39,1.1-7.73,1.57-22.79.5-31.76.13-20-.82-40.17-2.53-60.31-3-14.45-.31-27.6,1-41,2.17-9.31.78-18.75,1.11-28.23,1.41l0-.07-.24,0c-1.08,1.35-3.63,1.55-6.5,2-4.89,1.16-2.54,8.12-.53,11.31h.19l-.17-.27c2.09-.06,4.16-.21,5.68-.32,5.5-.39,10.43-1.11,16-1.42,6.9-.37,14.27-.11,21.29-.39,5.56-.22,11.11-.94,16.69-1.16,9.53-.38,18.71.16,28.16.27,13.18.17,26.56-.07,38.74,1.41,20.56,2.5,39.2,2.06,61.11,1.24,11.31-.43,22.76-1.11,34.05-1.59,3.89-.17,8.51-.27,12.59-.09A4.18,4.18,0,0,0,340.1,183.49Z"/></g></g></g></g></svg>