<svg id="Layer_1" data-name="Layer 1" xmlns="http://www.w3.org/2000/svg" xmlns:xlink="http://www.w3.org/1999/xlink" viewBox="0 0 236 73"><defs><style>.cls-1{fill:none;}.cls-2{clip-path:url(#clip-path);}.cls-3{clip-path:url(#clip-path-2);}.cls-4{clip-path:url(#clip-path-3);}.cls-5{clip-path:url(#clip-path-4);}.cls-6{clip-path:url(#clip-path-5);}.cls-7{clip-path:url(#clip-path-6);}.cls-8{clip-path:url(#clip-path-7);}.cls-9{clip-path:url(#clip-path-8);}</style><clipPath id="clip-path"><rect class="cls-1" x="73.31" y="0.14" width="162.69" height="72.72" transform="translate(309.31 73) rotate(-180)"/></clipPath><clipPath id="clip-path-2"><rect class="cls-1" x="-6.57" y="0.16" width="242.57" height="46.96" transform="translate(229.43 47.28) rotate(-180)"/></clipPath><clipPath id="clip-path-3"><rect class="cls-1" x="2.07" y="51.9" width="233.93" height="41.72" transform="translate(238.07 145.52) rotate(-180)"/></clipPath><clipPath id="clip-path-4"><rect class="cls-1" y="0.14" width="7.45" height="72.71"/></clipPath><clipPath id="clip-path-5"><rect class="cls-1" x="-7.86" y="0.15" width="15.31" height="72.7"/></clipPath><clipPath id="clip-path-6"><rect class="cls-1" x="-135.25" y="0.14" width="189.98" height="72.72"/></clipPath><clipPath id="clip-path-7"><rect class="cls-1" x="-135.25" y="0.16" width="242.57" height="46.96"/></clipPath><clipPath id="clip-path-8"><rect class="cls-1" x="-135.25" y="51.9" width="233.93" height="41.72"/></clipPath></defs><title>Right Comb</title><rect x="71.72" y="0.14" width="1.59" height="72.72"/><rect x="7.45" y="0.14" width="1.59" height="72.72"/><g class="cls-2"><g class="cls-3"><path d="M103.17,25.83c2.92-1.65,9.31-1.07,14.49-1.2,17.72-.46,32-5.17,49.93-6.22,8.87-.52,19.69-.41,28.68-.55,7.79-.12,15.82,0,23.47.21,6.07.17,28.53-.29,42.57.16a1.32,1.32,0,0,0,1.21.3l.38-.06a10.14,10.14,0,0,1,.27,1.47,1.47,1.47,0,0,0-1,.38c-11.87-.15-27.87-.84-30.74-.87-16.75-.22-33.8.24-50.55,0-12.3-.17-22.06.4-32.18,2.53-5,1-8.87,2.17-14.66,2.83-3.94.45-13,.64-14.59,1.55a541.38,541.38,0,0,1,67.94,5.76c10,1.41,23.57,1.62,34.68,1.44,3.18-.05,7.88-.31,12.94-.52a1.23,1.23,0,0,0,.43.2c-2.44,1.7-6-.06-10.27,1.67,0,.1,0,.19,0,.29a1.39,1.39,0,0,0-.55.18c-9.78,0-19.16-.32-28.71-1.1-17.48-1.42-33.9-3.37-51.17-4.86-11.39-1-21.88-.75-33.5-1C106.9,28.27,99.47,27.92,103.17,25.83Z"/><path d="M9.62,19.67c18.09-.26,31.79.4,48,2.78,7.62,1.12,14.55,2.14,22.86,1,8.57-1.22,14.93-3.41,23.84-4.48,17.81-2.15,39.39-2.16,58.18-3.43,21.78-1.47,44.31-1.63,66.7-1.39,6.39.07,12.77.16,19.11.32a13.47,13.47,0,0,0,1.41.08,1.73,1.73,0,0,0,.4,0q4.12.11,8.22.28l2.18.1a4.54,4.54,0,0,1,1.62.76A4.2,4.2,0,0,1,263.33,17l-.43.07a1.42,1.42,0,0,0-.4.14c-5.58-.29-11.58-.8-14-.87-8.44-.24-17.11-.3-25.44-.56-31.43-1-67.42,1.25-98.07,3.53-7.2.54-14.89,1-20.64,2.39-6.24,1.47-10.62,3.2-18,4.31A100.6,100.6,0,0,1,53,25.77c-12.58-2.08-18.52-3.92-33.87-3.92-13.86,0-27.79,1.27-41.67.75l-1.7-.09q-.18-1.58-.37-3.17C-14.44,20.37,2.92,19.77,9.62,19.67Z"/><path d="M-23.44-.52c3,.55,6,1.12,9.1,1.56C-3.71,2.56,4.91,2.72,16.83,2.57c17.08-.21,33.81,1.43,50.85,1,17.88-.43,34.8-2.54,52.68-3,15.13-.42,30,.4,45.19,0C179.73.18,194.13-.34,208.42,0c11.79.31,23.51.89,35.33,1.15,2,0,5.68,0,9.62.07L253.15,1l.22,0a6.66,6.66,0,0,1,1.11,1.62,5.43,5.43,0,0,1,.23.52,1.31,1.31,0,0,0-.61.21c-7.35-.21-15.24-.77-20.36-.84-11.18-.15-22.05-.48-33.2-.64-24.17-.34-48.85,0-72.86.65-18.09.52-35.16,2.53-53.16,3-17.75.44-38.38.76-55.39-.94a351.92,351.92,0,0,0-37.49-2c-2,0-4.23,0-6.41,0A8,8,0,0,1-23.44-.52Z"/><path d="M-25.18,11c17.9,4.26,55,2,74.18-.46C59.09,9.26,68.41,8.14,79.16,7.4c11.91-.82,17.44-.19,27.37,1.54,13.6,2.37,26.2,2.24,41.05.94C162.94,8.54,176.32,8.21,192.36,8c14.29-.23,28.3,0,42.67,0,6.44,0,13.15-.11,19.75-.06a2.93,2.93,0,0,0,.3.17c0,.19,0,.39-.08.58a1.21,1.21,0,0,0-.88.27c-1.24-.07-2.44-.13-3.53-.16-8.27-.22-16.74.22-25,0-15.67-.39-28.44-.11-43.86.78-8.08.47-16.48.32-24.51.79-7.31.43-14,1.44-21.35,1.84a161.15,161.15,0,0,1-24,0c-7-.61-11.23-1.75-17.49-2.68-6.73-1-11.42-.35-17.47.61-7.57,1.2-15,1.95-23.36,2.58C37.06,13.9,20.13,15.3,3.15,15.3c-5.42,0-19.55-1.14-28.27-.7-.1-1.21-.17-2.42-.21-3.64Z"/><path d="M-5.47,43.85a2.76,2.76,0,0,0,.81-1.91c5.15,0,10.31-.06,15.62.22,13.62.72,27.25,1.69,40.87,2.49,26,1.52,48.46-1.32,73.89-1.74,26.13-.43,51.85,1.59,77.85,2,11.62.18,23.87.16,35.5,0,1.37,0,3.73-.13,6.37-.21l0-.21.17.14c-.15.59-.32,1.19-.5,1.78a1.15,1.15,0,0,0-.26.2l0-.13c-22.54,1.19-47,.6-69.39,0-15.19-.4-30.55-1.19-45.69-1.19-8.31,0-16.49,0-24.7.2s-15.48,1.28-23.49,1.64c-14.65.65-29.64-.4-44-.8-15.43-.43-32-.45-47.5,0-1,0-2.24.07-3.57.13C-11.86,44.59-7.34,45.75-5.47,43.85Z"/><path d="M-23.75,28.18c5.76,0,12.17.42,16.72.68,11.87.67,25.68.08,36.52,1.93,8.28,1.42,12.72,4.55,21.64,5.62s18.71,0,26.53-1.25c17.44-2.79,25.83-2.93,43.35-.64,16.83,2.2,38,2.76,56,4.07,16.88,1.24,34.13.74,51.24.74h.07c.48,0,1,.07,1.42.08a1.54,1.54,0,0,0,.54-.09c3.88,0,9.48-.18,15-.18a3.25,3.25,0,0,0-.24-.29l.27.08a3.62,3.62,0,0,1,.71,1.61,1.36,1.36,0,0,0-1,.35c-1.84,0-3.59,0-5.13,0-7.33.21-14.71.65-22.34.42-7.47-.23-14.19-1.18-21.68-1.4-6.86-.2-13.84-.21-20.66-.4C160,39.09,143.75,39,129,37.7c-12.25-1.09-21.09-4-34.68-3.14-12.16.76-23,3.22-35.35,3.58-11.63.33-21.7-1.65-30.7-3.59C16,31.9,2.86,31.4-11.87,31c-3.65-.1-7.87,0-12,0C-23.85,30-23.77,29.08-23.75,28.18Z"/><path d="M-23.8,55.93c21,2.9,57-.45,74.79-1.25,23.8-1.07,48.48-3.17,72.57-3.23,18.58,0,36.79.63,55.34.6,18,0,35.47-1.22,53.55-1,2.74,0,7,0,11.29.15h.2a27.66,27.66,0,0,1-.43,2.78l-.21,0,0-.17c-13.74.28-29.78-.4-41.47-.4-19.51,0-38.88-.07-58.17-.4-10.12-.17-17.25.25-27.2.94-9.51.66-19.52.45-29.35.45-19.41,0-33,2.34-50.87,4.13-11.86,1.18-25.39.84-38,.84-6.26,0-12.42,0-18.53-.21-1.79-.05-4.2-.18-6.71-.29A5.54,5.54,0,0,1-23.8,55.93Z"/><path d="M-11.77,76.8a5.51,5.51,0,0,1,.67-1.15,256.81,256.81,0,0,1,31.93,1,516,516,0,0,0,60.16,2c22.23-.73,43.45-3.29,65.9-3.78,14.67-.32,29.2.18,43.74.55,11.39.29,23.22.11,34.33,1,1.75.15,4.6.28,7.34.47a17,17,0,0,0,.87-3.67c-14.85-.18-31.88-1.1-34.73-1.26-10.46-.6-20.42-1.78-30.73-2.54-5.83-.43-12.77-1.6-18.68-1.6-14.44,0-27.49,4.27-40.83,5.52C96.63,74.53,84.57,76,72.34,76.08S52.87,74.64,43,72.74C30.7,70.38,16.83,67.44,2.62,66c4.77,0,9.52.13,14.2.45,13,.87,21.3,3.92,32.87,5.6A151.34,151.34,0,0,0,83,73.65c16.22-1.17,26.68-5.7,43.34-6.76a216.44,216.44,0,0,1,42.24,1.2c11.54,1.37,20.9,1.43,33.12,1.63,3.15.05,17.79,0,31.12.13a3.57,3.57,0,0,0-2.08-2.08c-4.81-.06-9.57-.26-14.21-.68-8.44-.77-16.12-1.93-24.84-2.48-12.15-.76-24.94-.44-37.35-.45a587,587,0,0,0-68.51,4.22c-17.2,2-23.61,1.48-36.87-2C40.7,64.13,23.3,64.47,17.58,62c4.8-1.83,31-.49,38.77-.6,16.48-.23,28.92-2.37,43.86-4.22,15.92-2,29.47-1.22,46-.55,7.69.31,14.87.62,22.83.6,11,0,21.59-.87,32.55-1,12-.14,26.6-.92,39.56-.65a1.5,1.5,0,0,0,.57.11H243a5.28,5.28,0,0,1-2.21,2.86c-.37,0-.75.11-1.12.19-11.5.17-23.58,0-26.79.08-16.07.24-31.47.41-47.34-.2C151,58,135.74,57.37,121,57.81c-11.8.35-22,1.9-32.65,3.42-5.13.73-10.88,1.7-16.16,2.09-5,.37-12.47-.07-16,1.24,8,1.77,23.63.56,32.93.15,20.74-.93,41.66-2.84,62.54-3.34,15-.35,28.62,1.18,42.53,2.44,9.65.88,19.45,1.25,29.27,1.59l0-.08.25,0c1.12,1.52,3.76,1.75,6.74,2.26,5.07,1.31,2.63,9.14.55,12.73h-.19L231,80c-2.17-.07-4.31-.24-5.89-.36-5.71-.44-10.82-1.25-16.64-1.59-7.15-.42-14.8-.12-22.08-.44-5.77-.25-11.52-1.05-17.31-1.3-9.89-.43-19.4.17-29.2.31-13.67.19-27.54-.08-40.17,1.59C78.37,81,59,80.54,36.32,79.61,24.59,79.13,12.71,78.36,1,77.82c-4-.19-8.82-.31-13.06-.1A5,5,0,0,1-11.77,76.8Z"/></g><g class="cls-4"><path d="M107.9,74.71c2.82-1.47,9-.95,14-1.07C139,73.23,152.74,69,170,68.12c8.55-.46,19-.36,27.66-.49,7.52-.11,15.26,0,22.64.19,5.85.15,27.52-.26,41,.15a1.35,1.35,0,0,0,1.17.27l.36-.05a8.37,8.37,0,0,1,.26,1.3,1.48,1.48,0,0,0-1,.34c-11.44-.13-26.88-.74-29.64-.78-16.15-.19-32.6.21-48.75,0-11.86-.15-21.27.35-31,2.25-4.79.93-8.55,1.93-14.13,2.51-3.8.4-12.55.57-14.07,1.38a565.71,565.71,0,0,1,65.52,5.11c9.66,1.25,22.73,1.44,33.45,1.28,3.06,0,7.6-.27,12.48-.46a1.23,1.23,0,0,0,.41.18c-2.35,1.51-5.81,0-9.9,1.49,0,.09,0,.17,0,.25a1.42,1.42,0,0,0-.53.16c-9.43,0-18.48-.29-27.69-1-16.86-1.26-32.69-3-49.35-4.32-11-.88-21.1-.67-32.3-.93C111.51,76.88,104.33,76.57,107.9,74.71Z"/><path d="M17.69,69.23C35.13,69,48.35,69.59,64,71.7c7.35,1,14,1.9,22,.85,8.26-1.08,14.39-3,23-4,17.18-1.91,38-1.92,56.1-3,21-1.31,42.73-1.45,64.32-1.23,6.17.06,12.31.14,18.43.28.46,0,.93.07,1.36.07a1.8,1.8,0,0,0,.38,0q4,.1,7.93.25l2.11.09a4.56,4.56,0,0,1,1.56.67,3.83,3.83,0,0,1,1.12,1.21l-.42.06a1.45,1.45,0,0,0-.38.12c-5.38-.26-11.16-.72-13.47-.77-8.14-.21-16.5-.27-24.54-.5-30.31-.85-65,1.11-94.57,3.14-6.95.48-14.36.92-19.9,2.12-6,1.3-10.24,2.84-17.4,3.83a105.19,105.19,0,0,1-32.16-.18c-12.13-1.85-17.86-3.49-32.66-3.49-13.36,0-26.8,1.13-40.18.67L-15,71.76q-.18-1.41-.36-2.81C-5.51,69.86,11.22,69.32,17.69,69.23Z"/><path d="M-14.19,51.3c2.92.48,5.83,1,8.78,1.39C4.83,54,13.14,54.18,24.64,54c16.47-.19,32.6,1.27,49,.9,17.24-.38,33.56-2.25,50.8-2.7,14.59-.38,28.9.36,43.58,0,13.67-.33,27.56-.79,41.34-.45,11.37.28,22.67.79,34.07,1,1.92,0,5.48,0,9.28.06l-.21-.21.21,0a5.93,5.93,0,0,1,1.07,1.44,4.64,4.64,0,0,1,.22.47,1.33,1.33,0,0,0-.59.19c-7.09-.19-14.69-.69-19.63-.75-10.78-.13-21.27-.43-32-.56-23.31-.3-47.11,0-70.27.58-17.44.46-33.91,2.25-51.27,2.64-17.12.39-37,.68-53.42-.84C14.39,54.71,3.78,54.05-9.29,54.05c-1.95,0-4.07,0-6.19,0A6.85,6.85,0,0,1-14.19,51.3Z"/><path d="M-15.87,61.52c17.26,3.78,53,1.74,71.54-.41C65.4,60,74.38,59,84.75,58.33a98.59,98.59,0,0,1,26.39,1.37c13.11,2.11,25.27,2,39.59.84,14.82-1.19,27.72-1.48,43.19-1.71,13.78-.2,27.29,0,41.15,0,6.21,0,12.69-.1,19.05-.06a2.89,2.89,0,0,0,.29.15c0,.17,0,.34-.07.51a1.24,1.24,0,0,0-.85.24c-1.2-.06-2.36-.12-3.41-.14-8-.19-16.14.2-24.12,0-15.11-.35-27.42-.1-42.3.69-7.79.41-15.89.28-23.64.71-7.05.38-13.48,1.28-20.59,1.64a168.66,168.66,0,0,1-23.17,0C109.47,62,105.43,61,99.39,60.18c-6.49-.88-11-.31-16.85.54C75.24,61.79,68.09,62.45,60,63c-15.86,1.1-32.19,2.34-48.56,2.34-5.23,0-18.85-1-27.27-.62-.1-1.07-.16-2.15-.2-3.24Z"/></g></g><path d="M74,.93H235.32V72.07H74V.93M73.31.14V72.86H236V.14Z"/><g class="cls-5"><g class="cls-6"><g class="cls-7"><g class="cls-8"><path d="M91.13,19.67c-18.09-.26-31.79.4-48,2.78-7.62,1.12-14.55,2.14-22.86,1C11.68,22.18,5.32,20-3.6,18.92-21.41,16.76-43,16.76-61.77,15.49c-21.78-1.47-44.31-1.63-66.7-1.39-6.39.07-12.77.16-19.11.32a13.47,13.47,0,0,1-1.41.08,1.73,1.73,0,0,1-.4,0q-4.12.11-8.22.28l-2.18.1a4.54,4.54,0,0,0-1.62.76A4.2,4.2,0,0,0-162.58,17l.43.07a1.42,1.42,0,0,1,.4.14c5.58-.29,11.58-.8,14-.87,8.44-.24,17.11-.3,25.44-.56,31.43-1,67.42,1.25,98.07,3.53,7.2.54,14.89,1,20.64,2.39C2.61,23.12,7,24.86,14.41,26a100.6,100.6,0,0,0,33.35-.2c12.58-2.08,18.52-3.92,33.87-3.92,13.86,0,27.79,1.27,41.67.75l1.7-.09q.18-1.58.37-3.17C115.19,20.37,97.84,19.77,91.13,19.67Z"/><path d="M124.19-.52c-3,.55-6,1.12-9.1,1.56C104.46,2.56,95.85,2.72,83.92,2.57,66.85,2.36,50.12,4,33.07,3.59c-17.88-.43-34.8-2.54-52.68-3-15.13-.42-30,.4-45.19,0C-79,.18-93.38-.34-107.66,0-119.45.36-131.17.93-143,1.19c-2,0-5.68,0-9.62.07l.22-.23-.22,0a6.66,6.66,0,0,0-1.11,1.62,5.43,5.43,0,0,0-.23.52,1.31,1.31,0,0,1,.61.21c7.35-.21,15.24-.77,20.36-.84,11.18-.15,22.05-.48,33.2-.64,24.17-.34,48.85,0,72.86.65,18.09.52,35.16,2.53,53.16,3C44,6,64.61,6.33,81.62,4.62a351.92,351.92,0,0,1,37.49-2c2,0,4.23,0,6.41,0A8,8,0,0,0,124.19-.52Z"/><path d="M125.93,11c-17.9,4.26-55,2-74.18-.46C41.66,9.26,32.35,8.14,21.6,7.4,9.69,6.58,4.16,7.21-5.77,8.94c-13.6,2.37-26.2,2.24-41.05.94C-62.19,8.54-75.57,8.21-91.61,8c-14.29-.23-28.3,0-42.67,0-6.44,0-13.15-.11-19.75-.06a2.93,2.93,0,0,1-.3.17c0,.19,0,.39.08.58a1.21,1.21,0,0,1,.88.27c1.24-.07,2.44-.13,3.53-.16,8.27-.22,16.74.22,25,0,15.67-.39,28.44-.11,43.86.78,8.08.47,16.48.32,24.51.79,7.31.43,14,1.44,21.35,1.84a161.15,161.15,0,0,0,24,0C-4,11.55.15,10.41,6.41,9.48c6.73-1,11.42-.35,17.47.61,7.57,1.2,15,1.95,23.36,2.58C63.69,13.9,80.62,15.3,97.6,15.3c5.42,0,19.55-1.14,28.27-.7.1-1.21.17-2.42.21-3.64Z"/><path d="M106.22,43.85a2.76,2.76,0,0,1-.81-1.91c-5.15,0-10.31-.06-15.62.22-13.62.72-27.25,1.69-40.87,2.49C22.91,46.16.47,43.32-25,42.91c-26.13-.43-51.85,1.59-77.85,2-11.62.18-23.87.16-35.5,0-1.37,0-3.73-.13-6.37-.21l0-.21-.17.14c.15.59.32,1.19.5,1.78a1.15,1.15,0,0,1,.26.2l0-.13c22.54,1.19,47,.6,69.39,0,15.19-.4,30.55-1.19,45.69-1.19,8.31,0,16.49,0,24.7.2s15.48,1.28,23.49,1.64c14.65.65,29.64-.4,44-.8,15.43-.43,32-.45,47.5,0,1,0,2.24.07,3.57.13C112.61,44.59,108.09,45.75,106.22,43.85Z"/><path d="M124.51,28.18c-5.76,0-12.17.42-16.72.68-11.87.67-25.68.08-36.52,1.93C63,32.21,58.55,35.34,49.63,36.41s-18.71,0-26.53-1.25c-17.44-2.79-25.83-2.93-43.35-.64-16.83,2.2-38,2.76-56,4.07-16.88,1.24-34.13.74-51.24.74h-.07c-.48,0-1,.07-1.42.08a1.54,1.54,0,0,1-.54-.09c-3.88,0-9.48-.18-15-.18a3.25,3.25,0,0,1,.24-.29l-.27.08a3.62,3.62,0,0,0-.71,1.61,1.36,1.36,0,0,1,1,.35c1.84,0,3.59,0,5.13,0,7.33.21,14.71.65,22.34.42,7.47-.23,14.19-1.18,21.68-1.4,6.86-.2,13.84-.21,20.66-.4C-59.26,39.09-43,39-28.28,37.7c12.25-1.09,21.09-4,34.68-3.14,12.16.76,23,3.22,35.35,3.58,11.63.33,21.7-1.65,30.7-3.59C84.8,31.9,97.89,31.4,112.62,31c3.65-.1,7.87,0,12,0C124.61,30,124.52,29.08,124.51,28.18Z"/><path d="M124.55,55.93c-21,2.9-57-.45-74.79-1.25C26,53.6,1.28,51.51-22.81,51.45c-18.58,0-36.79.63-55.34.6-18,0-35.47-1.22-53.55-1-2.74,0-7,0-11.29.15h-.2a27.66,27.66,0,0,0,.43,2.78l.21,0,0-.17c13.74.28,29.78-.4,41.47-.4,19.51,0,38.88-.07,58.17-.4,10.12-.17,17.25.25,27.2.94,9.51.66,19.52.45,29.35.45,19.41,0,33,2.34,50.87,4.13,11.86,1.18,25.39.84,38,.84,6.26,0,12.42,0,18.53-.21,1.79-.05,4.2-.18,6.71-.29A5.54,5.54,0,0,0,124.55,55.93Z"/><path d="M112.52,76.8a5.51,5.51,0,0,0-.67-1.15,256.81,256.81,0,0,0-31.93,1,516,516,0,0,1-60.16,2c-22.23-.73-43.45-3.29-65.9-3.78-14.67-.32-29.2.18-43.74.55-11.39.29-23.22.11-34.33,1-1.75.15-4.6.28-7.34.47a17,17,0,0,1-.87-3.67c14.85-.18,31.88-1.1,34.73-1.26,10.46-.6,20.42-1.78,30.73-2.54,5.83-.43,12.77-1.6,18.68-1.6,14.44,0,27.49,4.27,40.83,5.52C4.12,74.53,16.19,76,28.41,76.08s19.47-1.44,29.35-3.33c12.29-2.36,26.16-5.3,40.37-6.7-4.77,0-9.52.13-14.2.45-13,.87-21.3,3.92-32.87,5.6a151.34,151.34,0,0,1-33.33,1.56C1.51,72.48-9,68-25.61,66.89a216.44,216.44,0,0,0-42.24,1.2c-11.54,1.37-20.9,1.43-33.12,1.63-3.15.05-17.79,0-31.12.13A3.57,3.57,0,0,1-130,67.77c4.81-.06,9.57-.26,14.21-.68,8.44-.77,16.12-1.93,24.84-2.48,12.15-.76,24.94-.44,37.35-.45a587,587,0,0,1,68.51,4.22c17.2,2,23.61,1.48,36.87-2,8.29-2.21,25.69-1.86,31.41-4.36-4.8-1.83-31-.49-38.77-.6C27.93,61.15,15.49,59,.55,57.16c-15.92-2-29.47-1.22-46-.55-7.69.31-14.87.62-22.83.6-11,0-21.59-.87-32.55-1-12-.14-26.6-.92-39.56-.65a1.5,1.5,0,0,1-.57.11h-1.32a5.28,5.28,0,0,0,2.21,2.86c.37,0,.75.11,1.12.19,11.5.17,23.58,0,26.79.08,16.07.24,31.47.41,47.34-.2,14.6-.56,29.82-1.22,44.57-.78,11.8.35,22,1.9,32.65,3.42,5.13.73,10.88,1.7,16.16,2.09,5,.37,12.47-.07,16,1.24-8,1.77-23.63.56-32.93.15C-9.15,63.78-30.07,61.87-51,61.37c-15-.35-28.62,1.18-42.53,2.44-9.65.88-19.45,1.25-29.27,1.59l0-.08-.25,0c-1.12,1.52-3.76,1.75-6.74,2.26-5.07,1.31-2.63,9.14-.55,12.73h.19l-.17-.3c2.17-.07,4.31-.24,5.89-.36,5.71-.44,10.82-1.25,16.64-1.59,7.15-.42,14.8-.12,22.08-.44,5.77-.25,11.52-1.05,17.31-1.3,9.89-.43,19.4.17,29.2.31,13.67.19,27.54-.08,40.17,1.59C22.39,81,41.71,80.54,64.44,79.61c11.73-.48,23.6-1.25,35.31-1.79,4-.19,8.82-.31,13.06-.1A5,5,0,0,0,112.52,76.8Z"/></g><g class="cls-9"><path d="M83.06,69.23C65.62,69,52.4,69.59,36.75,71.7c-7.35,1-14,1.9-22,.85-8.26-1.08-14.39-3-23-4-17.18-1.91-38-1.92-56.1-3-21-1.31-42.73-1.45-64.32-1.23-6.17.06-12.31.14-18.43.28-.46,0-.93.07-1.36.07a1.8,1.8,0,0,1-.38,0q-4,.1-7.93.25l-2.11.09a4.56,4.56,0,0,0-1.56.67,3.83,3.83,0,0,0-1.12,1.21l.42.06a1.45,1.45,0,0,1,.38.12c5.38-.26,11.16-.72,13.47-.77,8.14-.21,16.5-.27,24.54-.5,30.31-.85,65,1.11,94.57,3.14,6.95.48,14.36.92,19.9,2.12,6,1.3,10.24,2.84,17.4,3.83a105.19,105.19,0,0,0,32.16-.18c12.13-1.85,17.86-3.49,32.66-3.49,13.36,0,26.8,1.13,40.18.67l1.64-.08q.18-1.41.36-2.81C106.26,69.86,89.53,69.32,83.06,69.23Z"/><path d="M114.94,51.3c-2.92.48-5.83,1-8.78,1.39C95.92,54,87.61,54.18,76.11,54c-16.47-.19-32.6,1.27-49,.9-17.24-.38-33.56-2.25-50.8-2.7-14.59-.38-28.9.36-43.58,0-13.67-.33-27.56-.79-41.34-.45-11.37.28-22.67.79-34.07,1-1.92,0-5.48,0-9.28.06l.21-.21-.21,0a5.93,5.93,0,0,0-1.07,1.44,4.64,4.64,0,0,0-.22.47,1.33,1.33,0,0,1,.59.19c7.09-.19,14.69-.69,19.63-.75,10.78-.13,21.27-.43,32-.56,23.31-.3,47.11,0,70.27.58,17.44.46,33.91,2.25,51.27,2.64,17.12.39,37,.68,53.42-.84C86.37,54.71,97,54.05,110,54.05c1.95,0,4.07,0,6.19,0A6.85,6.85,0,0,0,114.94,51.3Z"/><path d="M116.62,61.52c-17.26,3.78-53,1.74-71.54-.41C35.36,60,26.37,59,16,58.33A98.59,98.59,0,0,0-10.38,59.7c-13.11,2.11-25.27,2-39.59.84-14.82-1.19-27.72-1.48-43.19-1.71-13.78-.2-27.29,0-41.15,0-6.21,0-12.69-.1-19.05-.06a2.89,2.89,0,0,1-.29.15c0,.17,0,.34.07.51a1.24,1.24,0,0,1,.85.24c1.2-.06,2.36-.12,3.41-.14,8-.19,16.14.2,24.12,0,15.11-.35,27.42-.1,42.3.69,7.79.41,15.89.28,23.64.71,7.05.38,13.48,1.28,20.59,1.64a168.66,168.66,0,0,0,23.17,0C-8.72,62-4.68,61,1.36,60.18c6.49-.88,11-.31,16.85.54,7.3,1.07,14.46,1.73,22.53,2.29,15.86,1.1,32.19,2.34,48.56,2.34,5.23,0,18.85-1,27.27-.62.1-1.07.16-2.15.2-3.24Z"/></g></g></g></g></svg>