<svg id="Layer_1" data-name="Layer 1" xmlns="http://www.w3.org/2000/svg" viewBox="0 0 200 34.2"><title>Top Cover left</title><path d="M200,34.2H46.08V8.55A8.55,8.55,0,0,1,54.64,0H200V1.83H54.64a6.72,6.72,0,0,0-6.72,6.72V32.37H200Z"/><path d="M46.08,19.71V34.2H0L13.62,22.28a10.38,10.38,0,0,1,6.84-2.57h1.45a9.33,9.33,0,0,0-.8,1.32,9.32,9.32,0,0,0-7,9h6v1.8h9.72v-1.8h6.05a9.25,9.25,0,0,0-.54-3.1h.54v-1.8h6a9.23,9.23,0,0,0-1.76-5.45Z"/><path d="M30.11,32.11H19.89V29.82H30.11Zm-9.72-.49h9.23V30.31H20.38Z"/><path d="M36.16,30.3H13.85v-.25a9.55,9.55,0,0,1,7.2-9.26,9.43,9.43,0,0,1,2.36-.3H26.6a9.52,9.52,0,0,1,6.76,2.8A9.82,9.82,0,0,1,34.73,25a9.68,9.68,0,0,1,1.43,5Zm-21.81-.49H35.66a9.21,9.21,0,0,0-1.35-4.53A9.32,9.32,0,0,0,33,23.64,9,9,0,0,0,26.6,21H23.41a8.94,8.94,0,0,0-2.24.28A9.06,9.06,0,0,0,14.35,29.81Z"/><path d="M42.2,25.4H34.38l-.07-.12A9.3,9.3,0,0,0,33,23.64,9,9,0,0,0,26.6,21H23.41a8.94,8.94,0,0,0-2.24.28l-.52.13.24-.48a9.59,9.59,0,0,1,8.57-5.33h3.18a9.52,9.52,0,0,1,6.76,2.8,9.2,9.2,0,0,1,1,1.18,9.44,9.44,0,0,1,1.8,5.59Zm-7.55-.49h7.06A9,9,0,0,0,40,19.86a8.68,8.68,0,0,0-.94-1.11,9,9,0,0,0-6.42-2.65H29.46a9.09,9.09,0,0,0-7.35,3.77,9.3,9.3,0,0,0-.53.82,9.53,9.53,0,0,1,1.83-.18H26.6a9.52,9.52,0,0,1,6.76,2.8A9.86,9.86,0,0,1,34.66,24.91Z"/><path d="M36.16,27.2h-1L35.15,27a9,9,0,0,0-.83-1.75l-.23-.37h2.08Zm-.61-.49h.12V25.4h-.72A9.53,9.53,0,0,1,35.55,26.71Z"/></svg>