<svg id="Layer_1" data-name="Layer 1" xmlns="http://www.w3.org/2000/svg" viewBox="0 0 200 34.2"><title>Top Cover right</title><path d="M0,33.19H156.62V9.06A8.05,8.05,0,0,0,148.57,1H0V2.73H148.58a6.33,6.33,0,0,1,6.33,6.33V31.47H0Z"/><path d="M156.62,19.56V33.19H200L187.18,22a9.77,9.77,0,0,0-6.44-2.42h-1.37a8.78,8.78,0,0,1,.75,1.24,8.77,8.77,0,0,1,6.6,8.5H181V31H171.9V29.3h-5.7a8.71,8.71,0,0,1,.5-2.92h-.5V24.68h-5.69a8.69,8.69,0,0,1,1.66-5.13Z"/><path d="M171.66,29.07h9.61v2.15h-9.61Zm9.15.46h-8.69v1.23h8.69Z"/><path d="M166,29.3a9.11,9.11,0,0,1,1.34-4.74,9.24,9.24,0,0,1,1.29-1.63A9,9,0,0,1,175,20.3h3a8.87,8.87,0,0,1,2.22.28A9,9,0,0,1,187,29.3v.23H166ZM180.07,21a8.42,8.42,0,0,0-2.11-.26h-3a8.5,8.5,0,0,0-6,2.5,8.77,8.77,0,0,0-1.22,1.55,8.66,8.66,0,0,0-1.27,4.26H186.5A8.53,8.53,0,0,0,180.07,21Z"/><path d="M160.28,24.68a8.89,8.89,0,0,1,1.7-5.26,8.66,8.66,0,0,1,.94-1.11,9,9,0,0,1,6.36-2.63h3a9,9,0,0,1,8.06,5l.22.45-.49-.13a8.42,8.42,0,0,0-2.11-.26h-3a8.5,8.5,0,0,0-6,2.5,8.75,8.75,0,0,0-1.22,1.55l-.07.11h-7.36Zm8.32-1.75A9,9,0,0,1,175,20.3h3a9,9,0,0,1,1.73.17,8.75,8.75,0,0,0-.5-.77,8.55,8.55,0,0,0-6.92-3.55h-3a8.5,8.5,0,0,0-6,2.5,8.17,8.17,0,0,0-.89,1,8.42,8.42,0,0,0-1.61,4.76h6.64A9.28,9.28,0,0,1,168.6,22.93Z"/><path d="M166,24.45h2l-.22.35a8.51,8.51,0,0,0-.78,1.65l-.05.15H166Zm1.14.46h-.68v1.23h.11A9,9,0,0,1,167.11,24.91Z"/></svg>