<svg id="Layer_1" data-name="Layer 1" xmlns="http://www.w3.org/2000/svg" viewBox="0 0 236 65"><title>Top cover Left</title><path d="M236,65H104.82V22.66C104.82,10.17,115.23,0,128,0H236V1.56H128c-11.91,0-21.61,9.47-21.61,21.1V63.44H236Z"/><path d="M1.3,64.5,34.95,34.12a9.29,9.29,0,0,1,6.22-2.4h2.45a20.59,20.59,0,0,0-1.54,2.68A22.9,22.9,0,0,0,32.9,40a22.67,22.67,0,0,0-6.68,16.14v.5H41.05V60.2H64.68V56.64h15v-.5a22.8,22.8,0,0,0-3.08-11.46H90.48V43.4a20.55,20.55,0,0,0-3.59-11.69h17.43V64.5Z"/><path d="M103.82,32.22V64H2.6L35.28,34.49a8.79,8.79,0,0,1,5.89-2.27H42.7q-.53.86-1,1.77a23.41,23.41,0,0,0-9.17,5.66,23.17,23.17,0,0,0-6.83,16.49v1H40.55V60.7H65.18V57.14h15v-1a23.31,23.31,0,0,0-2.73-11H91V43.4a21.06,21.06,0,0,0-3.17-11.19h16m1-1H85.91A20.16,20.16,0,0,1,90,43.4v.78H75.87v.32a22.25,22.25,0,0,1,3.27,11.64h-15V59.7H41.55V56.14H26.72A22.34,22.34,0,0,1,42.44,34.81a20.12,20.12,0,0,1,2.16-3.59H41.17a9.79,9.79,0,0,0-6.56,2.53L0,65H104.82V31.22Z"/><path d="M56.82,34.62A21.44,21.44,0,0,1,75,44.64c.06.09.12.18.17.28a21.5,21.5,0,0,1,3.14,10.42H27.53a21.37,21.37,0,0,1,6.29-14.42,21.59,21.59,0,0,1,8.85-5.35,21.84,21.84,0,0,1,6.37-1h7.79m0-.8H49a22.59,22.59,0,0,0-6.6,1A22.34,22.34,0,0,0,26.72,56.14H79.14A22.25,22.25,0,0,0,75.87,44.5c-.06-.11-.13-.21-.2-.32A22.28,22.28,0,0,0,56.82,33.82Z"/><path d="M69.71,24.19A19.21,19.21,0,0,1,88.92,43.12H76.24A23.26,23.26,0,0,0,56.82,32.76H49a23.57,23.57,0,0,0-4.51.44q.43-.69.92-1.34A19.07,19.07,0,0,1,60.8,24.19h8.91m0-1.06H60.8A20.26,20.26,0,0,0,42.44,34.81a22.59,22.59,0,0,1,6.6-1h7.79A22.28,22.28,0,0,1,75.67,44.18H90V43.4A20.27,20.27,0,0,0,69.71,23.13Z"/><path d="M75.87,44.18h-.2c.07.11.14.21.2.32v-.32Z"/></svg>