<svg id="Layer_1" data-name="Layer 1" xmlns="http://www.w3.org/2000/svg" viewBox="0 0 236 65"><title>Top cover Right</title><path d="M0,65H131.18V22.66C131.18,10.17,120.77,0,108,0H0V1.56H108c11.91,0,21.61,9.47,21.61,21.1V63.44H0Z"/><path d="M131.68,64.5V31.72h17.43a20.55,20.55,0,0,0-3.59,11.69v1.28h13.92a22.81,22.81,0,0,0-3.08,11.46v.5h15V60.2h23.63V56.64h14.84v-.5A22.67,22.67,0,0,0,203.1,40a22.91,22.91,0,0,0-9.18-5.6,20.6,20.6,0,0,0-1.54-2.68h2.45a9.29,9.29,0,0,1,6.22,2.4L234.7,64.5Z"/><path d="M194.83,32.22a8.79,8.79,0,0,1,5.89,2.27L233.4,64H132.18V32.22h16A21.06,21.06,0,0,0,145,43.4v1.78h13.57a23.31,23.31,0,0,0-2.73,11v1h15V60.7h24.63V57.14h14.84v-1a23.17,23.17,0,0,0-6.83-16.49A23.41,23.41,0,0,0,194.28,34q-.45-.91-1-1.77h1.53m0-1h-3.42a20.12,20.12,0,0,1,2.16,3.59,22.34,22.34,0,0,1,15.72,21.33H194.45V59.7H171.82V56.14h-15a22.25,22.25,0,0,1,3.27-11.64v-.32H146V43.4a20.16,20.16,0,0,1,4.07-12.19H131.18V65H236L201.39,33.74a9.79,9.79,0,0,0-6.56-2.53Z"/><path d="M179.18,34.62H187a21.84,21.84,0,0,1,6.37,1,21.59,21.59,0,0,1,8.85,5.35,21.37,21.37,0,0,1,6.29,14.42h-50.8a21.5,21.5,0,0,1,3.14-10.42c.06-.1.11-.19.17-.28a21.44,21.44,0,0,1,18.19-10m0-.8a22.28,22.28,0,0,0-18.84,10.36c-.07.11-.14.21-.2.32a22.25,22.25,0,0,0-3.27,11.64h52.43a22.34,22.34,0,0,0-15.72-21.33,22.59,22.59,0,0,0-6.6-1Z"/><path d="M166.29,24.19h8.91a19.07,19.07,0,0,1,15.36,7.66q.49.65.92,1.34a23.57,23.57,0,0,0-4.51-.44h-7.79a23.26,23.26,0,0,0-19.42,10.36H147.08a19.21,19.21,0,0,1,19.21-18.93m0-1.06A20.27,20.27,0,0,0,146,43.4v.78h14.32a22.28,22.28,0,0,1,18.84-10.36H187a22.59,22.59,0,0,1,6.6,1A20.26,20.26,0,0,0,175.2,23.13Z"/><path d="M160.33,44.18h-.2v.32c.06-.11.13-.21.2-.32Z"/></svg>