<?xml version="1.0" encoding="UTF-8"?>
<svg id="Layer_2" data-name="Layer 2" xmlns="http://www.w3.org/2000/svg" viewBox="0 0 168.3 10.7">
  <g id="Layer_1-2" data-name="Layer 1">
    <path d="M0,0H168.3V10.7H0V0ZM27.94,9.9V1.02h-5.9V9.9h5.9Zm13.43-.06V1h-5.94V9.84h5.94Zm6.94-.03h5.97V1.03h-5.97V9.81Zm19.4,.02V1.01h-5.92V9.83h5.92ZM80.69,1.05h-6.01V9.79h6.01V1.05Zm7.34,8.73h5.97V.98h-5.97V9.78ZM101.09,.91V9.78h5.85V.91h-5.85Zm19.25,8.99V1.02h-5.85V9.89h5.85Zm7.01-.08h5.98V1.03h-5.98V9.81ZM140.34,.96V9.75h5.94V.96h-5.94Z"/>
  </g>
</svg>