<?xml version="1.0" encoding="UTF-8"?>
<svg id="Layer_2" data-name="Layer 2" xmlns="http://www.w3.org/2000/svg" viewBox="0 0 153.02 8.75">
  <g id="Layer_1-2" data-name="Layer 1">
    <path d="M153.02,.02c-1.09,1.59-1.9,2.78-2.88,4.22h-3.99l-.32-2.25-.74-.2c-.37,1.14-.99,2.25-1.08,3.41-.24,3.03-.65,3.55-3.75,3.54-33.61-.02-67.23-.05-100.84-.08-8.86,0-17.73,0-26.59,0-4.26,0-4.23-.03-4.92-4.18-.15-.89-.61-1.72-.93-2.58l-.72,.16-.31,2.19H1.78L0,.9C.11-.13,1.32,0,2.53,0c21.08,.01,42.16,0,63.24,0,27.95,0,55.89,0,83.84,0h3.42ZM8.62,1.08l.97,6.06c1.15,0,2.09,0,3.04,0,35.29,.02,70.58,.03,105.88,.05,7.35,0,14.69,.04,22.04-.02,.71,0,1.92-.5,2.02-.96,.36-1.65,.34-3.38,.46-5.13H8.62Z"/>
  </g>
</svg>