<?xml version="1.0" standalone="no"?>
<!DOCTYPE svg PUBLIC "-//W3C//DTD SVG 20010904//EN"
 "http://www.w3.org/TR/2001/REC-SVG-20010904/DTD/svg10.dtd">
<svg version="1.0" xmlns="http://www.w3.org/2000/svg"
 width="173.000000pt" height="173.000000pt" viewBox="0 0 173.000000 173.000000"
 preserveAspectRatio="xMidYMid meet">
<metadata>
Created by potrace 1.14, written by Peter Selinger 2001-2017
</metadata>
<g transform="translate(0.000000,173.000000) scale(0.100000,-0.100000)"
fill="#000000" stroke="none">
<path d="M825 1707 c-8 -13 -72 -149 -141 -303 -69 -153 -212 -468 -316 -699
-156 -343 -308 -689 -308 -700 0 -1 362 -2 804 -2 l804 0 -8 21 c-29 75 -763
1649 -786 1684 -18 28 -30 28 -49 -1z m89 -712 c38 -83 94 -201 123 -263 29
-63 78 -168 109 -235 31 -67 77 -165 101 -217 25 -52 52 -108 59 -125 8 -16
20 -38 26 -47 7 -9 9 -21 4 -25 -9 -9 -1106 -11 -1112 -2 -8 13 128 320 363
819 19 41 58 125 85 185 28 61 62 132 75 160 l26 50 36 -75 c20 -42 67 -143
105 -225z"/>
<path d="M768 925 c-2 -1 -24 -5 -50 -8 -53 -6 -76 -17 -99 -44 -33 -37 -28
-112 10 -157 9 -10 47 -37 86 -60 l70 -41 -59 -7 c-97 -12 -173 -71 -211 -162
-67 -160 90 -361 276 -351 130 7 236 103 267 242 28 123 -63 269 -226 366 -91
54 -132 96 -132 136 0 76 79 65 172 -23 34 -33 51 -43 67 -39 25 6 25 6 7 42
-15 27 -80 91 -94 91 -4 0 -24 4 -44 9 -20 5 -38 7 -40 6z m102 -395 c43 -30
61 -89 59 -187 -3 -134 -43 -191 -137 -195 -76 -3 -129 49 -156 156 -37 140 9
240 118 256 45 7 75 -1 116 -30z"/>
</g>
</svg>
