<?xml version="1.0" encoding="UTF-8"?>
<svg id="Layer_2" data-name="Layer 2" xmlns="http://www.w3.org/2000/svg" viewBox="0 0 1181.54 326.37">
  <g id="Layer_1-2" data-name="Layer 1">
    <g>
      <path d="M1181.54,0V326.37H0V0H1181.54Zm-3.02,2.98H3.16V323.39H1178.53V2.98Z"/>
      <path d="M161.12,91.86h26.38v176.36h-26.38V91.86Zm23.29,173.56V94.88h-20.37v170.54h20.37Z"/>
      <path d="M281.42,268.41h-26.4V102.04h26.4v166.36Zm-3.02-2.98V104.88h-20.37v160.54h20.37Z"/>
      <path d="M370.42,267.4h-26.41V111.04h26.41v156.37Zm-23.32-153.53v150.36h20.4V113.88h-20.4Z"/>
      <path d="M467.42,268.41h-26.39V122.05h26.39v146.37Zm-23.31-143.54v140.36h20.41V124.88h-20.41Z"/>
      <path d="M534.11,130.87h26.39v136.37h-26.39V130.87Zm3.01,2.99v130.54h20.38V133.86h-20.38Z"/>
      <path d="M622.1,140.88h26.41v126.37h-26.41v-126.37Zm3.01,2.99v120.37h20.39v-120.37h-20.39Z"/>
      <path d="M719.11,150.87h26.39v116.37h-26.39v-116.37Zm23.3,113.55v-110.37h-20.39v110.37h20.39Z"/>
      <path d="M807.11,160.87h26.39v106.37h-26.39v-106.37Zm2.9,3v100.46h20.4v-100.46h-20.4Z"/>
      <path d="M900.12,169.86h26.38v96.37h-26.38v-96.37Zm2.84,93.4h20.57v-90.32h-20.57v90.32Z"/>
      <path d="M1020.57,171.03v96.32h-26.57v-96.32h26.57Zm-23.46,2.84v90.37h20.39v-90.37h-20.39Z"/>
      <path d="M902.79,284.58c.02-6.96,4.22-11.03,11.28-10.92,6.71,.11,10.69,4.22,10.67,11.03-.02,6.96-4.22,11.03-11.28,10.92-6.71-.11-10.69-4.22-10.67-11.03Zm18.83,.07c0-3.91-3.66-7.71-7.6-7.87-4.07-.17-8.11,3.74-8.12,7.84,0,3.91,3.66,7.71,7.59,7.87,4.07,.17,8.11-3.74,8.12-7.84Z"/>
      <path d="M357.7,274.67c6.99-.02,11.1,4.13,11.04,11.16-.06,6.74-4.14,10.77-10.91,10.79-6.99,.02-11.1-4.13-11.04-11.16,.06-6.74,4.14-10.77,10.91-10.79Zm7.92,10.95c-.01-3.92-3.69-7.69-7.63-7.84-4.07-.15-8.1,3.78-8.09,7.88,.01,3.92,3.69,7.69,7.63,7.84,4.07,.15,8.1-3.78,8.09-7.88Z"/>
      <path d="M546.38,296.61c-6.85-.13-10.82-4.49-10.59-11.6,.22-6.59,4.48-10.48,11.35-10.34,6.85,.13,10.82,4.49,10.59,11.6-.22,6.59-4.48,10.48-11.35,10.34Zm8.24-10.98c0-3.92-3.67-7.7-7.61-7.85-4.07-.16-8.1,3.76-8.1,7.86,0,3.92,3.67,7.7,7.61,7.85,4.07,.16,8.1-3.76,8.1-7.86Z"/>
      <path d="M634.64,296.61c-6.94-.04-10.99-4.28-10.85-11.34,.13-6.68,4.27-10.64,11.1-10.6,6.94,.04,10.99,4.28,10.85,11.34-.13,6.68-4.27,10.64-11.1,10.6Zm7.98-10.99c-.01-3.92-3.69-7.69-7.63-7.84-4.07-.15-8.1,3.78-8.09,7.88,.01,3.92,3.69,7.69,7.63,7.84,4.07,.15,8.1-3.78,8.09-7.88Z"/>
      <path d="M742.74,285.77c-.05,6.93-4.28,10.98-11.35,10.84-6.68-.13-10.64-4.28-10.59-11.1,.05-6.93,4.28-10.98,11.35-10.84,6.68,.13,10.64,4.28,10.59,11.1Zm-11.16-7.99c-3.94,.12-7.63,3.87-7.66,7.8-.04,4.09,3.98,8.04,8.05,7.91,4.12-.12,7.93-4.26,7.66-8.3-.27-3.94-4.17-7.53-8.04-7.42Z"/>
      <path d="M819.81,296.61c-6.99,.02-11.09-4.14-11.02-11.17,.07-6.74,4.15-10.76,10.92-10.77,6.99-.02,11.09,4.14,11.02,11.17-.07,6.74-4.15,10.76-10.92,10.77Zm7.81-11.11c-.09-3.94-3.81-7.65-7.75-7.72-4.07-.07-8.06,3.93-7.96,8,.09,3.94,3.81,7.65,7.75,7.72,4.07,.07,8.05-3.93,7.96-8Z"/>
      <path d="M1008.17,274.67c6.67,.14,10.62,4.31,10.56,11.13-.06,6.93-4.31,10.96-11.38,10.81-6.84-.14-10.81-4.51-10.56-11.63,.23-6.58,4.5-10.46,11.38-10.32Zm-.27,18.83c3.94-.09,7.65-3.81,7.72-7.75,.07-4.07-3.93-8.06-8-7.96-3.94,.09-7.65,3.81-7.72,7.75-.07,4.07,3.93,8.05,8,7.96Z"/>
      <path d="M183.74,286.23c.15,7.08-3.89,11.33-10.81,11.38-6.83,.06-10.99-3.9-11.13-10.56-.15-7.08,3.89-11.33,10.81-11.38,6.83-.06,10.99,3.9,11.13,10.56Zm-3.12,.25c-.1-3.94-3.84-7.64-7.77-7.69-4.08-.06-8.05,3.95-7.94,8.02,.1,4.11,4.23,7.95,8.27,7.69,3.93-.25,7.54-4.14,7.45-8.01Z"/>
      <path d="M278.74,286.62c0,6.98-4.16,11.07-11.2,10.99-6.73-.08-10.74-4.17-10.74-10.96,0-6.98,4.16-11.07,11.2-10.99,6.73,.08,10.74,4.17,10.74,10.96Zm-3.12,.14c.07-3.88-3.55-7.75-7.49-7.98-4.05-.24-8.15,3.62-8.23,7.74-.07,3.88,3.56,7.75,7.49,7.98,4.05,.24,8.15-3.62,8.23-7.74Z"/>
      <path d="M441.79,286.59c.02-6.96,4.22-11.03,11.27-10.92,6.71,.1,10.69,4.21,10.67,11.02-.02,6.96-4.22,11.03-11.27,10.92-6.71-.1-10.69-4.21-10.67-11.02Zm18.83,.29c.15-3.87-3.41-7.78-7.37-8.08-4.05-.31-8.19,3.46-8.35,7.6-.15,3.87,3.41,7.78,7.37,8.08,4.04,.31,8.19-3.46,8.35-7.6Z"/>
    </g>
  </g>
</svg>