<svg viewBox="0 0 213.85 46" xmlns="http://www.w3.org/2000/svg"><g fill="#191919"><path d="m39 28.67-4.29.85 4.78 2.75a1.51 1.51 0 0 1 .75 1 1.59 1.59 0 0 1 -.16 1.24 1.64 1.64 0 0 1 -2.24.59l-4.77-2.72 1.41 4.11a1.48 1.48 0 0 1 -.31 1.63 1.71 1.71 0 0 1 -1.55.52 1.45 1.45 0 0 1 -1.24-1.08l-2.62-7.7-7-4v8l5.39 6.14a1.67 1.67 0 0 1 .44 1 1.39 1.39 0 0 1 -.29.94 2.34 2.34 0 0 1 -.73.64 1.29 1.29 0 0 1 -.95.14 1.58 1.58 0 0 1 -.93-.56l-2.88-3.29v5.5a1.67 1.67 0 0 1 -1.64 1.63 1.57 1.57 0 0 1 -1.17-.49 1.59 1.59 0 0 1 -.49-1.15v-5.5l-2.87 3.29a1.61 1.61 0 0 1 -.94.56 1.29 1.29 0 0 1 -1-.14 2.46 2.46 0 0 1 -.73-.64 1.38 1.38 0 0 1 -.28-.94 1.61 1.61 0 0 1 .44-1l5.33-6.11v-8l-6.95 4-2.51 7.67a1.47 1.47 0 0 1 -1.3 1.08 1.73 1.73 0 0 1 -1.55-.52 1.48 1.48 0 0 1 -.31-1.63l1.42-4.11-4.78 2.72a1.63 1.63 0 0 1 -2.23-.59 1.63 1.63 0 0 1 -.17-1.24 1.49 1.49 0 0 1 .76-1l4.77-2.75-4.28-.85a1.51 1.51 0 0 1 -1.08-.74 1.73 1.73 0 0 1 -.25-1.19 1.68 1.68 0 0 1 .65-1 1.52 1.52 0 0 1 1.35-.29l8 1.59 7-4-7.07-4.03-7.93 1.56a1.35 1.35 0 0 1 -.34 0 1.53 1.53 0 0 1 -1.16-.43 1.7 1.7 0 0 1 -.48-1 1.75 1.75 0 0 1 .28-1.13 1.44 1.44 0 0 1 1-.66l4.28-.85-4.74-2.76a1.49 1.49 0 0 1 -.76-1 1.63 1.63 0 0 1 .17-1.23 1.57 1.57 0 0 1 1-.77 1.48 1.48 0 0 1 1.23.18l4.78 2.72-1.42-4.11a1.48 1.48 0 0 1 .31-1.63 1.73 1.73 0 0 1 1.55-.52 1.47 1.47 0 0 1 1.3 1.08l2.62 7.7 7 4v-8l-5.43-6.15a1.61 1.61 0 0 1 -.44-1 1.38 1.38 0 0 1 .25-.93 2.46 2.46 0 0 1 .73-.64 1.29 1.29 0 0 1 1-.14 1.61 1.61 0 0 1 .94.56l2.87 3.29v-5.5a1.59 1.59 0 0 1 .46-1.15 1.57 1.57 0 0 1 1.17-.49 1.55 1.55 0 0 1 1.15.49 1.55 1.55 0 0 1 .49 1.15v5.5l2.88-3.29a1.58 1.58 0 0 1 .93-.56 1.29 1.29 0 0 1 .95.14 2.34 2.34 0 0 1 .73.64 1.39 1.39 0 0 1 .29.94 1.67 1.67 0 0 1 -.44 1l-5.34 6.11v8l7-4 2.62-7.7a1.45 1.45 0 0 1 1.24-1.08 1.71 1.71 0 0 1 1.55.52 1.48 1.48 0 0 1 .31 1.63l-1.41 4.11 4.77-2.72a1.64 1.64 0 0 1 2.24.59 1.59 1.59 0 0 1 .16 1.24 1.51 1.51 0 0 1 -.75 1l-4.78 2.75 4.29.85a1.48 1.48 0 0 1 .95.69 1.81 1.81 0 0 1 .28 1.11 1.77 1.77 0 0 1 -.49 1 1.51 1.51 0 0 1 -1.13.46 1.31 1.31 0 0 1 -.33 0l-8-1.59-7 4 7 4 8-1.59a1.5 1.5 0 0 1 1.28.27 1.69 1.69 0 0 1 .66 1 1.78 1.78 0 0 1 -.22 1.2 1.53 1.53 0 0 1 -1.05.81z"/><path d="m72.1 32.88a15.28 15.28 0 0 1 -6.28 1.12c-7.73 0-12.43-4.88-12.43-12.28 0-8 5.56-12.86 13-12.86a14 14 0 0 1 5.93 1.08l-1 3.54a11.89 11.89 0 0 0 -4.77-.94c-4.94 0-8.52 3.11-8.52 9 0 5.35 3.14 8.78 8.49 8.78a12.32 12.32 0 0 0 4.84-.91z"/><path d="m91.86 24.64c0 6.47-4.55 9.36-9 9.36-5 0-8.82-3.43-8.82-9.07s3.8-9.32 9.11-9.32 8.71 3.69 8.71 9.03zm-13.26.18c0 3.4 1.66 6 4.37 6 2.53 0 4.3-2.49 4.3-6 0-2.82-1.27-5.96-4.27-5.96s-4.4 3.04-4.4 5.96z"/><path d="m112.22 24.64c0 6.47-4.55 9.36-9 9.36-5 0-8.82-3.43-8.82-9.07s3.8-9.32 9.1-9.32 8.72 3.69 8.72 9.03zm-13.22.18c0 3.4 1.66 6 4.37 6 2.53 0 4.3-2.49 4.3-6 0-2.74-1.23-5.89-4.26-5.89s-4.41 2.97-4.41 5.89z"/><path d="m115.87 8h4.48v25.6h-4.48z"/><path d="m125.33 9.58a37.21 37.21 0 0 1 6.47-.5c3.29 0 5.31.39 7 1.55a5.12 5.12 0 0 1 2.53 4.55 5.65 5.65 0 0 1 -4.05 5.27v.08a6.13 6.13 0 0 1 4.91 6 6.32 6.32 0 0 1 -2.34 5c-1.74 1.51-4.59 2.27-9 2.27a44.23 44.23 0 0 1 -5.46-.32zm4.41 9.61h2.26c3.07 0 4.8-1.45 4.8-3.5 0-2.28-1.73-3.33-4.55-3.33a12.75 12.75 0 0 0 -2.53.18zm0 11.2a15.34 15.34 0 0 0 2.35.1c2.85 0 5.38-1.08 5.38-4.08 0-2.81-2.46-4-5.53-4h-2.2z"/><path d="m146 21.68c0-2.38 0-4.08-.15-5.67h3.87l.14 3.36h.14a5.26 5.26 0 0 1 4.81-3.76 4.9 4.9 0 0 1 1 .11v4.19a6.45 6.45 0 0 0 -1.3-.14 3.92 3.92 0 0 0 -4 3.36 7.71 7.71 0 0 0 -.14 1.37v9.1h-4.37z"/><path d="m172.14 29.37a28.35 28.35 0 0 0 .25 4.23h-4l-.28-2h-.11a6.56 6.56 0 0 1 -5.2 2.35 5.23 5.23 0 0 1 -5.53-5.24c0-4.44 3.94-6.68 10.44-6.65v-.28c0-1.16-.47-3.07-3.58-3.07a9.3 9.3 0 0 0 -4.73 1.3l-.87-2.89a12.62 12.62 0 0 1 6.36-1.56c5.64 0 7.26 3.58 7.26 7.41zm-4.33-4.37c-3.15-.07-6.14.62-6.14 3.29a2.33 2.33 0 0 0 2.52 2.53 3.61 3.61 0 0 0 3.47-2.42 3.2 3.2 0 0 0 .15-1z"/><path d="m176.83 21.25c0-2 0-3.72-.14-5.24h3.9l.22 2.64h.11a6.31 6.31 0 0 1 5.59-3c3.07 0 6.25 2 6.25 7.55v10.4h-4.44v-9.93c0-2.53-.94-4.44-3.36-4.44a3.73 3.73 0 0 0 -3.47 2.6 4.58 4.58 0 0 0 -.18 1.44v10.33h-4.48z"/><path d="m213.71 8v20.65c0 1.81.07 3.76.14 5h-4l-.18-2.78h-.07a6.34 6.34 0 0 1 -5.71 3.13c-4.19 0-7.52-3.58-7.52-9 0-5.88 3.65-9.39 7.88-9.39a5.56 5.56 0 0 1 4.94 2.32h.08v-9.93zm-4.44 15.38a6.4 6.4 0 0 0 -.11-1.15 3.9 3.9 0 0 0 -3.83-3.23c-2.85 0-4.44 2.53-4.44 5.82s1.59 5.56 4.4 5.56a3.92 3.92 0 0 0 3.83-3.14 4.88 4.88 0 0 0 .15-1.3z"/></g></svg>