<svg id="Layer_1" data-name="Layer 1" xmlns="http://www.w3.org/2000/svg" xmlns:xlink="http://www.w3.org/1999/xlink" viewBox="0 0 200 200"><defs><style>.cls-1{fill:url(#linear-gradient);}.cls-2{fill:#fff;}.cls-3{fill:#9cb654;}</style><linearGradient id="linear-gradient" x1="-136.02" y1="1551.5" x2="-136.02" y2="1721.5" gradientTransform="matrix(1, 0, 0, -1, 236.02, 1736.5)" gradientUnits="userSpaceOnUse"><stop offset="0" stop-color="#9cb654"/><stop offset="1" stop-color="#b6d463"/></linearGradient></defs><title>Check</title><circle class="cls-1" cx="100" cy="100" r="85"/><circle class="cls-2" cx="100" cy="100" r="69.51"/><path class="cls-3" d="M147.39,75.77,135,63.33a2.16,2.16,0,0,0-3.05,0L85.81,109.5a2.16,2.16,0,0,1-3.05,0L68.1,94.85a2.16,2.16,0,0,0-3.05,0L52.61,107.29a2.16,2.16,0,0,0,0,3.05L76.25,134a11.38,11.38,0,0,0,16.07,0l7.44-7.44h0l47.64-47.72A2.16,2.16,0,0,0,147.39,75.77Z"/></svg>