<?xml version="1.0" encoding="UTF-8"?>
<svg id="Layer_2" data-name="Layer 2" xmlns="http://www.w3.org/2000/svg" viewBox="0 0 1182.75 327.8">
  <g id="Layer_1-2" data-name="Layer 1">
    <g>
      <path d="M591.3,327.66c-193.33,0-386.66,0-579.99,0-1.67,0-3.35-.16-5,.03C1.5,328.22,0,326.14,0,321.39,.1,216.36,.1,111.33,0,6.3,0,1.46,1.68-.45,6.39,.09c1.15,.13,2.33,.02,3.5,.02,387.66,0,775.32,0,1162.98,0q9.73,0,9.73,9.78c0,102.86,0,205.72,0,308.58,0,1.83,.44,3.86-.2,5.44-.6,1.48-2.17,3.04-3.66,3.56-1.79,.62-3.95,.2-5.95,.2-193.83,0-387.66,0-581.49,0Zm.55-324.11c-193.17,0-386.33,0-579.5,0q-8.82,0-8.83,9.04c0,101.2,0,202.39,0,303.59q0,8.04,7.81,8.05c386.67,0,773.34,0,1160,0q7.82,0,7.83-8.03c0-101.03,0-202.06,0-303.09,0-10.37,.93-9.54-9.31-9.54-192.67,0-385.33,0-578,0Z"/>
      <path d="M188.53,145.63c0,26.66,0,53.32,0,79.97,0,3.17-.53,6.44,4.15,7.12,.79,.11,1.74,2.68,1.76,4.12,.15,10.99,.03,21.99,.11,32.99,.03,3.34-1.26,4.86-4.71,4.83-10.99-.09-21.99-.09-32.98,0-3.37,.03-4.82-1.33-4.79-4.75,.09-11,.07-21.99,.01-32.99-.01-2.98,.92-4.96,4.25-4.69,4.31,.35,4.8-2.17,4.79-5.63-.07-27.16-.04-54.32-.04-81.47,0-26.82,.1-53.65-.09-80.47-.04-5,1.5-6.95,6.58-6.6,4.97,.35,10,.3,14.98,.01,4.6-.26,6.07,1.58,6.05,6.09-.15,27.16-.07,54.32-.07,81.47Zm-3.44,1.25c0-24,0-47.99,0-71.99q0-13.37-13.53-13.32-7.01,.02-7.03,7.33c0,49.82,0,99.65,0,149.47q0,13.91,14.03,13.82c6.5-.04,6.52-.04,6.53-6.83,0-26.16,0-52.32,0-78.48Zm-11.46,88.76c-4.49,0-8.99,.12-13.48-.04-3.48-.12-4.71,1.38-4.66,4.76,.13,8.82,.11,17.65,.01,26.47-.04,3.24,1.35,4.43,4.5,4.4,8.82-.1,17.64-.12,26.46,.01,3.48,.05,4.71-1.38,4.66-4.76-.13-8.82-.11-17.65-.01-26.47,.04-3.24-1.34-4.48-4.5-4.39-4.32,.12-8.65,.03-12.98,.03Z"/>
      <path d="M282.54,139.66c0,25.16,.01,50.31-.01,75.47,0,3.1-.27,6.04,4.26,6.37,1,.07,2.58,2.53,2.6,3.91,.21,11.32,.1,22.65,.13,33.98,0,2.93-1.33,4.24-4.24,4.23-11.33-.04-22.65-.04-33.98,0-2.95,0-4.2-1.39-4.19-4.28,.04-11.33-.12-22.66,.18-33.98,.04-1.41,2.25-3.82,3.62-3.95,3.75-.36,4.29-2.35,4.19-5.37-.1-3.16-.02-6.33-.02-9.5,0-47.31,0-94.63,0-141.94,0-7.46,.02-7.46,7.51-7.48,4.66-.01,9.34,.23,13.99-.06,4.65-.29,6.03,1.66,6.01,6.13-.14,25.49-.07,50.98-.07,76.47Zm-3.44,1.32V74q0-13.47-13.42-13.43-7.12,.02-7.13,7.22c0,46.32,0,92.64,0,138.97,0,14.56,0,14.38,14.42,14.53,4.86,.05,6.26-1.57,6.22-6.32-.19-24.66-.09-49.32-.09-73.98Zm-10.78,119.21c4.33,0,8.66-.11,12.98,.04,3.31,.11,4.89-1.03,4.84-4.58-.14-8.82-.1-17.65-.01-26.47,.03-3.08-1.01-4.61-4.32-4.57-8.99,.1-17.97,.08-26.96,.01-2.86-.02-4.33,1-4.31,4.06,.07,9.16,.07,18.31,0,27.47-.02,3.05,1.44,4.12,4.3,4.06,4.49-.09,8.99-.02,13.48-.01Z"/>
      <path d="M371.54,134.39c0,23.49,.04,46.98-.04,70.47-.01,3.67,.08,6.63,5.04,6.63,.98,0,2.8,2.38,2.83,3.69,.22,11.49,.26,22.99-.05,34.48-.04,1.35-2.45,3.74-3.81,3.78-11.48,.3-22.98,.3-34.46,0-1.34-.04-3.71-2.47-3.75-3.84-.3-11.49-.25-22.99-.06-34.48,.02-1.26,1.51-3.53,2.41-3.57,4.83-.25,4.45-3.46,4.45-6.71-.02-45.48-.01-90.96-.01-136.44,0-1.67,.15-3.35-.03-4.99-.52-4.78,1.47-6.62,6.27-6.33,5.14,.31,10.33,.27,15.48,.01,4.39-.22,5.8,1.57,5.77,5.85-.13,23.82-.06,47.65-.06,71.47Zm-3.44,1.49v-61.98q0-13.37-13.53-13.32-7.01,.02-7.03,7.32c0,43.16,0,86.31,0,129.47q0,13.91,14.03,13.82c6.5-.04,6.52-.04,6.53-6.82,.01-22.83,0-45.65,0-68.48Zm7.99,96.21c0-4.33-.09-8.66,.03-12.98,.09-3.15-1.15-4.54-4.39-4.5-8.82,.1-17.64,.11-26.46-.01-3.38-.05-4.81,1.18-4.76,4.66,.13,8.82,.11,17.65,.01,26.47-.03,3.15,1.16,4.53,4.4,4.5,8.82-.1,17.64-.11,26.46,.01,3.38,.05,4.88-1.18,4.76-4.66-.16-4.49-.04-8.99-.04-13.48Z"/>
      <path d="M468.55,130.38c0,21.82,0,43.65,0,65.47,0,2.99-.52,6.09,3.91,6.78,.87,.14,1.95,2.57,1.97,3.95,.16,11.16,.05,22.32,.12,33.48,.02,3.12-1.25,4.57-4.44,4.56-11.16-.06-22.32-.06-33.48,0-3.14,.02-4.54-1.31-4.52-4.48,.06-11.16-.11-22.33,.18-33.48,.04-1.5,2.19-4.23,3.31-4.21,5.06,.13,5.57-2.54,5.57-6.62-.09-41.98-.06-83.97-.06-125.95,0-1.67,0-3.33,0-5,.05-6.56,.2-6.73,6.73-6.76,5-.03,10,.19,14.99-.06,4.37-.22,5.81,1.54,5.79,5.83-.14,22.16-.07,44.31-.06,66.47Zm-24,1.5v56.98q0,13.36,13.53,13.32,7.01-.02,7.03-7.32c0-39.82,0-79.64,0-119.46q0-13.9-14.03-13.82c-6.5,.04-6.52,.04-6.53,6.82-.01,21.16,0,42.32,0,63.48Zm8.45,109.31c4.49,0,8.99-.12,13.48,.04,3.47,.12,4.71-1.38,4.66-4.76-.13-8.82-.09-17.64-.03-26.47,.02-2.81-.88-4.39-3.99-4.37-9.15,.07-18.31,.07-27.46,0-3-.02-4.15,1.32-4.13,4.23,.07,8.99,.09,17.98-.01,26.97-.04,3.24,1.34,4.48,4.49,4.4,4.32-.12,8.65-.03,12.98-.03Z"/>
      <path d="M561.56,125.35c0,20.16,.01,40.31,0,60.47,0,3.25-.39,6.46,4.45,6.71,.9,.05,2.39,2.31,2.41,3.57,.19,11.49,.1,22.99,.13,34.48,0,3.04-1.63,4.05-4.42,4.04-11.16-.03-22.32-.05-33.47,.01-3.14,.02-4.54-1.31-4.52-4.48,.06-11.16-.11-22.32,.18-33.48,.04-1.51,2.1-4.18,3.31-4.23,4.92-.2,4.52-3.35,4.52-6.59-.01-39.48,0-78.96,0-118.44,0-1.67,.06-3.33,.02-5-.07-2.89,1.23-4.3,4.18-4.28,6.33,.05,12.66,.08,18.98,0,4.22-.06,4.26,2.73,4.26,5.74-.02,20.49,0,40.98,0,61.47Zm-3.44,2.06v-51.98q0-13.93-14-13.85c-6.53,.04-6.56,.04-6.56,6.79,0,36.49,0,72.98,0,109.46,0,14.5,0,14.31,14.5,14.45,4.95,.05,6.2-1.74,6.15-6.4-.2-19.49-.09-38.99-.09-58.48Zm-11.27,103.78c4.49,0,8.99-.11,13.48,.04,3.33,.11,4.88-1.06,4.82-4.59-.14-8.82-.1-17.65-.01-26.47,.03-3.1-1.05-4.59-4.34-4.56-8.99,.1-17.97,.08-26.96,.01-2.87-.02-4.31,1.03-4.29,4.07,.07,9.16,.07,18.31,0,27.47-.02,3.06,1.46,4.1,4.32,4.04,4.33-.09,8.65-.02,12.98-.01Z"/>
      <path d="M649.56,119.6c0,18.66,.03,37.31-.02,55.97,0,3.07,.12,5.56,4.22,5.91,1.03,.09,2.62,2.5,2.65,3.87,.22,11.32,.1,22.65,.14,33.98,0,2.89-1.24,4.29-4.19,4.28-11.32-.04-22.65-.03-33.97,0-2.91,0-4.26-1.29-4.25-4.22,.04-11.33-.1-22.66,.15-33.98,.03-1.41,1.98-3.94,3.07-3.95,4.76-.06,4.79-2.91,4.78-6.36-.05-36.15-.03-72.29-.03-108.44q0-9.53,9.46-9.53c4.16,0,8.34,.17,12.49-.04,4.11-.21,5.57,1.46,5.55,5.55-.13,18.99-.06,37.98-.05,56.97Zm-24,.76c0,15.83,0,31.65,0,47.48q0,13.37,13.52,13.33,7.02-.02,7.04-7.31c0-32.82,0-65.64,0-98.46,0-15.11,0-14.95-15.02-14.92-4.52,0-5.65,1.7-5.61,5.91,.17,17.99,.07,35.99,.07,53.98Zm9.62,64.27c-4.49,0-8.99,.07-13.48-.02-2.99-.06-4.17,1.29-4.14,4.22,.07,9.16,.06,18.31,.02,27.47-.01,2.74,1.26,3.89,3.95,3.88,9.15-.04,18.31-.06,27.46,.01,2.99,.02,4.17-1.29,4.14-4.22-.07-9.16-.06-18.31-.02-27.47,.01-2.74-1.26-3.91-3.95-3.88-4.66,.06-9.32,.02-13.98,.01Z"/>
      <path d="M746.57,115.84c0,16.82,.04,33.65-.03,50.47-.01,3.27,.12,5.93,4.46,6.21,.91,.06,2.39,2.31,2.41,3.57,.19,11.49,.1,22.98,.13,34.48,0,3.04-1.62,4.06-4.41,4.05-11.16-.03-22.31-.05-33.47,.01-3.13,.02-4.55-1.29-4.53-4.47,.06-11.16-.11-22.32,.17-33.48,.04-1.51,2.08-4.17,3.31-4.23,4.42-.23,4.55-2.8,4.54-6.08-.05-29.98-.03-59.96-.02-89.95,0-4.5,.1-9-.01-13.49-.08-3.35,1.27-4.88,4.71-4.81,5.66,.11,11.33,.21,16.98-.04,4.33-.19,5.86,1.46,5.82,5.8-.16,17.32-.07,34.65-.06,51.97Zm-3.44,1.01c0-16.33-.14-32.65,.09-48.98,.06-4.65-1.18-6.89-6.15-6.35-2.63,.29-5.35,.29-7.98,0-4.95-.55-6.66,1.23-6.62,6.39,.21,32.65,.18,65.3,.02,97.95-.02,4.65,1.17,6.89,6.14,6.35,2.63-.29,5.35-.29,7.98,0,4.95,.55,6.72-1.23,6.62-6.4-.3-16.32-.11-32.65-.11-48.98Zm6.99,76.72c0-4.49-.09-8.99,.03-13.48,.09-3.15-1.16-4.53-4.39-4.5-8.99,.1-17.97,.08-26.96,.01-2.92-.02-4.26,1.13-4.23,4.13,.07,8.99,.08,17.98-.01,26.97-.03,3.14,1.16,4.54,4.4,4.5,8.82-.1,17.64-.11,26.46,.01,3.38,.05,4.88-1.18,4.75-4.66-.16-4.32-.04-8.65-.04-12.98Z"/>
      <path d="M834.58,108.45c0,15.49,.04,30.98-.02,46.47-.01,2.96,.33,5.12,4.07,5.53,1.09,.12,2.76,2.42,2.78,3.75,.22,11.49,.25,22.99-.05,34.47-.04,1.34-2.47,3.7-3.85,3.74-11.31,.31-22.64,.14-33.96,.21-3.21,.02-4.44-1.48-4.42-4.58,.06-11.16-.1-22.32,.19-33.47,.04-1.48,2.15-4.07,3.41-4.14,4.53-.24,4.42-3,4.42-6.17-.03-29.81-.02-59.63-.01-89.44,0-1.67-.44-3.55,.19-4.94,.67-1.47,2.32-3.45,3.63-3.53,6.47-.37,12.98-.13,19.47-.2,3.84-.04,4.15,2.42,4.15,5.34-.03,15.66-.01,31.31,0,46.97Zm-3.44,1.74c0-14.99-.13-29.99,.08-44.98,.06-4.4-1.45-6.04-5.79-5.7-3.48,.27-6.99,.16-10.49,.04-3.25-.12-4.45,1.36-4.38,4.51,.11,5.66,.02,11.33,.02,16.99,0,24.49,.09,48.98-.08,73.46-.03,4.4,1.44,6.06,5.79,5.7,3.14-.26,6.34-.25,9.48,0,4.21,.33,5.48-1.48,5.43-5.54-.17-14.82-.07-29.65-.07-44.48Zm-28.55,71.2c0,4.33,.11,8.66-.04,12.98-.11,3.32,1.03,4.89,4.58,4.84,8.82-.14,17.64-.1,26.46-.01,3.08,.03,4.61-1.02,4.57-4.32-.1-8.99-.08-17.98-.01-26.97,.02-2.86-1-4.33-4.06-4.3-9.15,.07-18.31,.07-27.46,0-3.05-.02-4.11,1.44-4.06,4.3,.09,4.49,.02,8.99,.01,13.48Z"/>
      <path d="M1021.59,105.38c0,13.49,.03,26.98-.01,40.47-.01,3.29-.3,6.43,4.49,6.67,.88,.04,2.35,2.33,2.37,3.6,.19,11.49,.24,22.98-.06,34.47-.04,1.36-2.42,3.77-3.77,3.81-11.48,.31-22.98,.31-34.46,0-1.35-.04-3.75-2.44-3.79-3.8-.3-11.48-.29-22.98-.02-34.47,.03-1.33,2.11-3.69,3.32-3.73,4.46-.17,4.52-2.83,4.52-6.08-.04-26.81-.03-53.63-.02-80.44q0-7.74,7.73-7.76c4.83,0,9.66,.15,14.48-.04,3.9-.15,5.3,1.48,5.26,5.31-.13,13.99-.05,27.98-.04,41.97Zm-3.44,1.58c0-10.33,0-20.65,0-30.98,0-14.55,0-14.37-14.43-14.51-4.86-.05-6.26,1.6-6.22,6.34,.2,23.15,.09,46.3,.09,69.45,0,15.16,0,15.01,14.94,14.99,4.42,0,5.77-1.52,5.7-5.82-.21-13.15-.08-26.31-.07-39.47Zm-11.04,84.21c4.33,0,8.66-.13,12.98,.04,3.53,.14,5.19-1.02,5.11-4.82-.17-8.65-.13-17.31-.01-25.97,.04-3.3-1.01-4.9-4.57-4.85-8.82,.14-17.64,.1-26.46,.01-3.07-.03-4.62,1-4.58,4.31,.1,8.99,.1,17.98,0,26.97-.04,3.29,1.46,4.42,4.56,4.33,4.32-.12,8.65-.03,12.98-.02Z"/>
      <path d="M927.58,104.33c0,13.82,.05,27.65-.03,41.47-.02,3.26,.51,5.38,4.5,5.6,1.23,.07,3.31,2.38,3.34,3.71,.27,11.49,.29,22.98-.02,34.47-.04,1.36-2.42,3.78-3.77,3.82-11.48,.31-22.98,.31-34.46,0-1.36-.04-3.76-2.43-3.8-3.79-.31-11.48-.25-22.98-.07-34.47,.02-1.28,1.47-3.58,2.35-3.62,4.78-.24,4.52-3.35,4.52-6.65-.03-26.48-.02-52.96-.02-79.44q0-8.29,8.19-8.3c4.5,0,9,.19,13.48-.05,4.32-.24,5.89,1.44,5.83,5.79-.18,13.82-.07,27.65-.06,41.47Zm-3.45,1.47c0-13.32-.09-26.65,.06-39.97,.04-3.81-1.16-5.56-5.16-5.3-3.48,.23-7,.19-10.49,0-3.63-.19-5.03,1.22-5.01,4.92,.1,26.98,.08,53.97,.01,80.95,0,3.36,1.12,4.94,4.63,4.78,3.49-.16,7.01-.22,10.49,.02,4.08,.28,5.6-1.25,5.54-5.43-.19-13.32-.07-26.65-.07-39.97Zm-9.8,84.37c4.16,0,8.33-.16,12.48,.05,3.74,.18,5.48-1.01,5.38-5.07-.21-8.48-.16-16.98-.02-25.47,.06-3.51-1-5.2-4.82-5.12-8.65,.17-17.31,.13-25.96,.01-3.29-.04-4.91,.99-4.86,4.56,.14,8.82,.13,17.65,0,26.47-.05,3.52,1.47,4.72,4.81,4.6,4.32-.15,8.65-.04,12.98-.03Z"/>
      <path d="M162.11,253.11c.06-7.63,3.59-10.97,11.51-10.9,7.63,.06,10.96,3.59,10.9,11.51-.06,7.63-3.59,10.97-11.51,10.9-7.63-.06-10.96-3.58-10.9-11.51Zm18.05,.2c-.05-4.07-2.87-6.8-6.95-6.75-4.07,.05-6.8,2.86-6.74,6.95,.05,4.08,2.86,6.8,6.95,6.75,4.07-.05,6.8-2.86,6.74-6.95Z"/>
      <path d="M268.42,253.62c-7.84,.02-11.29-3.36-11.31-11.1-.02-7.84,3.36-11.29,11.1-11.31,7.84-.02,11.29,3.36,11.31,11.1,.02,7.84-3.36,11.29-11.1,11.31Zm6.74-11.38c-.09-4.08-2.92-6.77-7.02-6.68-4.06,.09-6.76,2.93-6.67,7.02,.09,4.06,2.93,6.76,7.02,6.67,4.07-.09,6.76-2.92,6.67-7.02Z"/>
      <path d="M358.55,243.62c-7.9,.05-11.38-3.29-11.43-10.98-.05-7.91,3.29-11.39,10.98-11.44,7.9-.05,11.38,3.29,11.43,10.98,.05,7.9-3.29,11.39-10.98,11.44Zm-.4-18.06c-4.06,.09-6.76,2.93-6.67,7.02,.09,4.07,2.93,6.77,7.02,6.67,4.06-.09,6.76-2.93,6.67-7.03-.09-4.06-2.93-6.76-7.02-6.67Z"/>
      <path d="M453.1,212.2c7.9-.05,11.38,3.29,11.43,10.98,.05,7.91-3.29,11.39-10.97,11.44-7.9,.05-11.38-3.29-11.43-10.98-.05-7.9,3.29-11.39,10.98-11.43Zm7.08,11.38c.09-4.09-2.61-6.94-6.67-7.03-4.09-.09-6.93,2.61-7.02,6.67-.09,4.09,2.61,6.93,6.67,7.02,4.09,.09,6.93-2.61,7.02-6.67Z"/>
      <path d="M547.49,224.61c-7.87,.03-11.33-3.33-11.36-11.05-.03-7.87,3.33-11.33,11.05-11.36,7.87-.03,11.32,3.33,11.36,11.05,.03,7.88-3.32,11.33-11.05,11.36Zm6.69-11.03c.09-4.09-2.61-6.94-6.67-7.03-4.09-.09-6.93,2.61-7.02,6.67-.09,4.09,2.61,6.93,6.67,7.02,4.09,.09,6.93-2.61,7.02-6.67Z"/>
      <path d="M646.55,202.59c-.04,7.71-3.5,11.06-11.4,11.02-7.71-.04-11.06-3.5-11.01-11.4,.04-7.71,3.5-11.06,11.39-11.02,7.71,.04,11.06,3.51,11.02,11.4Zm-4.36-.15c.02-4.09-2.72-6.87-6.81-6.89-4.09-.02-6.87,2.73-6.89,6.81-.02,4.09,2.73,6.87,6.81,6.89,4.09,.02,6.87-2.72,6.89-6.81Z"/>
      <path d="M732.31,182.19c7.8,0,11.23,3.4,11.24,11.17,0,7.8-3.4,11.24-11.17,11.25-7.8,0-11.24-3.4-11.24-11.17,0-7.8,3.4-11.24,11.17-11.25Zm0,4.36c-4.08,.02-6.83,2.8-6.81,6.89,.02,4.08,2.8,6.83,6.89,6.81,4.08-.02,6.83-2.8,6.81-6.89-.02-4.08-2.8-6.83-6.89-6.81Z"/>
      <path d="M820.13,170.18c7.9-.05,11.38,3.29,11.43,10.98,.05,7.91-3.29,11.38-10.98,11.43-7.91,.05-11.38-3.29-11.43-10.98-.05-7.91,3.29-11.38,10.98-11.43Zm.12,18.06c4.09,.06,6.9-2.66,6.96-6.74,.06-4.09-2.67-6.9-6.74-6.96-4.09-.06-6.9,2.67-6.96,6.74-.06,4.09,2.67,6.9,6.74,6.96Z"/>
      <path d="M1008.81,162.18c7.56,.09,10.86,3.66,10.77,11.65-.09,7.57-3.66,10.87-11.64,10.77-7.56-.09-10.87-3.66-10.77-11.64,.09-7.57,3.66-10.87,11.64-10.77Zm-.48,18.06c4.09,.02,6.87-2.72,6.89-6.8,.02-4.09-2.72-6.87-6.8-6.89-4.09-.02-6.87,2.72-6.89,6.8-.02,4.09,2.72,6.87,6.8,6.89Z"/>
      <path d="M914.44,183.6c-7.82,.02-11.26-3.38-11.28-11.13-.02-7.82,3.38-11.27,11.13-11.28,7.82-.02,11.26,3.38,11.28,11.13,.02,7.82-3.38,11.27-11.13,11.28Zm6.77-11.1c.06-4.1-2.66-6.9-6.74-6.96-4.09-.06-6.9,2.66-6.96,6.74-.06,4.09,2.66,6.9,6.74,6.96,4.09,.06,6.9-2.66,6.96-6.74Z"/>
    </g>
  </g>
</svg>