<?xml version="1.0" encoding="UTF-8"?><svg id="Layer_2" xmlns="http://www.w3.org/2000/svg" viewBox="0 0 171.36 41.52"><defs><style>.cls-1{fill:#020202;}.cls-2{fill:#fcfcfc;}.cls-3{fill:#a07e47;}.cls-4{fill:#ae8a51;}.cls-5{fill:#af8a4d;}.cls-6{fill:#b18b4d;}.cls-7{fill:#b18b4e;}.cls-8{fill:#b18a4c;}.cls-9{fill:#0b0b0b;}.cls-10{fill:#151515;}.cls-11{fill:#070707;}.cls-12{fill:#0e0e0e;}.cls-13{fill:#0a0a0a;}</style></defs><g id="Layer_1-2"><g><path class="cls-2" d="M.5,41.52c-.16-.08-.43-.13-.46-.25-.07-.26-.02-.55-.02-.83V0H171.36V41.52H38.9c-.02-.15,0-.31-.07-.45-2.37-5.12-4.73-10.24-7.12-15.35-3.87-8.27-7.75-16.54-11.65-24.8-.13-.28-.46-.62-.72-.64-.2-.01-.52,.38-.65,.66-1.46,3.17-2.9,6.35-4.34,9.53-1.91,4.22-3.82,8.45-5.73,12.67-1.86,4.09-3.74,8.16-5.57,12.26-.9,2.01-1.71,4.07-2.56,6.1ZM90.98,24.48V.83h-5.03V10.75c-.36-.49-.54-1-.71-1.51-.82-2.5-1.61-5.01-2.45-7.51-.12-.36-.46-.9-.73-.92-1.54-.09-3.08-.04-4.62-.04V24.38h5.13V14.63l.19-.04,.33,1.1c.78,2.64,1.55,5.28,2.38,7.91,.11,.35,.55,.82,.86,.84,1.51,.09,3.03,.04,4.66,.04ZM142,.63V24.4h6.13V13.95c1.4-.05,1.66,.07,1.73,1.31,.12,2.31,.11,4.63,.14,6.94,.01,.74,0,1.48,0,2.2h5.62c0-2.55-.07-5.03,.02-7.49,.09-2.25-.37-4.07-3.01-4.75,2.36-.67,2.87-1.28,2.96-3.51,.04-1.12,.05-2.24-.05-3.35-.2-2.32-1.45-3.98-3.57-4.19-3.28-.32-6.59-.33-9.97-.47Zm-17.39,.18c0,6.44-.04,12.75,.03,19.06,.02,1.58,.89,2.88,2.24,3.77,2.02,1.33,4.27,1.58,6.56,1.19,3.42-.58,5.09-2.56,5.12-6.01,.04-5.75,.01-11.51,0-17.26,0-.23-.06-.45-.1-.73h-5.99v1.35c0,5,0,9.99,0,14.99,0,.96-.03,1.92-.18,2.86-.05,.31-.51,.56-.78,.84-.24-.31-.63-.59-.68-.93-.14-.9-.17-1.83-.17-2.74-.01-5.04,0-10.07,0-15.11,0-.42-.05-.84-.07-1.28h-5.97Zm-56.49,14.61c0,1.56,.07,3-.04,4.43-.03,.36-.61,.69-.94,1.03-.32-.33-.71-.62-.93-1.01-.16-.29-.13-.7-.13-1.06-.02-2.08-.05-4.16-.04-6.23,0-2.36,.02-4.72,.09-7.07,.02-.58,.17-1.37,.99-1.14,.36,.1,.74,.75,.79,1.19,.16,1.25,.17,2.51,.23,3.78h6.12c-.1-1.43-.16-2.78-.29-4.11-.19-1.98-1.37-3.25-3.06-4.13-1.78-.92-3.69-1.08-5.6-.76-3.54,.6-5.25,2.55-5.32,6.12-.08,4.15-.03,8.31-.02,12.47,0,2.62,1.16,4.55,3.61,5.55,2.32,.95,4.46,.69,6.05-1.32,.38,.46,.69,1.19,1.11,1.25,1.12,.17,2.27,.06,3.39,.06V11.86h-7.04v3.43l1.03,.14Zm40.17,9.02c-.18-1.21-.34-2.31-.5-3.42-.97-6.51-1.94-13.01-2.88-19.53-.11-.76-.55-.74-1.09-.74-2.16,0-4.31,0-6.47,0-.5,0-1,0-1.51,0-1.07,7.99-2.11,15.8-3.16,23.64h6.44c.09-1.14,.24-2.21,.25-3.28,0-.86,.43-.96,1.13-.96,.72,0,1.24,.03,1.24,.97,.01,1.09,.15,2.19,.24,3.3h6.31ZM34.14,16.05c0,1.36-.12,2.61,.02,3.82,.33,2.76,1.79,4.37,4.55,4.81,1.51,.24,3.11,.25,4.62,.02,3.06-.47,4.42-2.11,4.63-5.18,.05-.8,.03-1.6,0-2.4-.09-2.58-1.15-4.6-3.38-5.98-1.22-.76-2.43-1.54-3.62-2.35-1.17-.8-1.7-2.26-1.2-3.58,.14-.38,.67-.76,1.07-.84,.21-.04,.72,.55,.79,.92,.16,.81,.13,1.65,.18,2.53h5.51c0-1.04,.02-2,0-2.95-.04-1.94-1.02-3.24-2.79-3.93-2.44-.95-4.92-1.01-7.38-.17-1.47,.5-2.71,1.47-2.94,3.05-.25,1.67-.24,3.41-.13,5.1,.1,1.54,.99,2.75,2.28,3.64,1.25,.86,2.44,1.82,3.75,2.58,1.85,1.06,2.1,2.68,1.89,4.53-.08,.68-.36,1.24-1.21,1.2-.81-.04-.94-.61-.97-1.25-.07-1.18-.14-2.36-.21-3.58h-5.47ZM168.93,.87h-10.16V24.4h10.56v-4.7h-4.36v-5.25h3.66v-4.4h-3.64V5.49h3.94V.87Zm-56.11,23.52h6.25V5.46h3.45V.83h-13.26V5.53h3.56V24.39Zm-55.98,.05V.87h-6.04V24.44h6.04Zm24.15,16.07v-10.57c-1.1-.34-1.63-.06-1.91,1.09-.62,2.56-1.41,5.07-2.13,7.6h-.2c-.8-2.91-1.61-5.81-2.42-8.73h-1.79v10.61h1.18v-8.88c.92,2.66,1.66,5.34,2.38,8.03,.17,.62,.33,1.18,1.24,.79,.77-2.69,1.56-5.44,2.34-8.19l.26,.07v8.18h1.05Zm69.72-.03v-10.66l-1.13,.12v7.82c-1.48-2.3-2.8-4.64-4.04-7.03-.39-.75-.82-1.11-1.7-.81v10.56h1.21v-8.2c1.42,2.61,2.73,4.94,3.96,7.31,.38,.74,.77,1.18,1.69,.88Zm-56.32,.03v-8.25c1.44,2.65,2.76,5,4,7.39,.39,.74,.8,1.13,1.66,.82v-10.55c-.93-.3-1.1,.12-1.09,.88,.04,2.32,.01,4.64,.01,6.96-1.54-2.33-2.86-4.68-4.1-7.07-.4-.77-.85-1.07-1.7-.75v10.57h1.21Zm-30.05-4.61c1.97-.54,3.02,.36,3.74,1.91,.28,.61,.67,1.18,.93,1.81,.34,.81,.83,1.2,1.84,.78l-2.82-4.82c.18-.08,.51-.19,.81-.37,1.13-.7,1.43-1.78,1.26-3.01-.14-1.04-.57-2.08-1.72-2.18-1.72-.15-3.47-.04-5.18-.04v10.51h1.15v-4.59Zm102.08-.34c.08-.03,.28-.08,.46-.16,1.33-.64,1.91-1.86,1.62-3.38-.26-1.38-1.05-2.09-2.59-2.17-1.42-.07-2.86-.01-4.32-.01v10.62h1.2v-4.6c2.3-.22,2.51-.12,3.59,1.8,.37,.66,.78,1.31,1.06,2.01,.34,.82,.87,1.06,1.83,.78l-2.86-4.88Zm-13.21-5.69v10.64h6.41v-1.24h-5.22v-3.72h4.91l-.07-1.19h-4.83v-3.38h5.23l-.08-1.11h-6.35Zm-61.75,5.37l-.29-.13c-.07-.59-.09-1.2-.21-1.78-.39-1.93-1.79-3.42-3.37-3.62-1.76-.23-3.29,.48-4.05,2.11-1.11,2.38-1.16,4.8,.26,7.09,1.41,2.27,4.5,2.5,6.04,.32,.81-1.14,1.09-2.65,1.62-3.99Zm-39.19,5.28v-10.69l-1.18,.05v4.31h-4.58v-4.4l-1.07,.11v10.66l1.18-.09v-4.9h4.56v4.94h1.09Zm88.12-10.64c0,2.53,.05,4.93-.02,7.32-.04,1.61-.84,2.35-2.27,2.35-1.33,0-2.16-.8-2.2-2.29-.06-2.32-.03-4.64-.05-6.95,0-.15-.06-.3-.11-.5l-.89,.08c0,2.74-.12,5.38,.04,7.99,.12,1.94,1.29,2.8,3.21,2.82,1.9,.02,3.18-.93,3.29-2.88,.16-2.61,.04-5.25,.04-7.93h-1.05Zm-27.01,2.88c-.38-1.82-1.35-2.85-2.76-3.06-1.7-.25-3.25,.45-4.01,1.98-1.14,2.28-1.06,4.62-.03,6.92,.46,1.03,1.24,1.74,2.39,1.98,2.34,.49,3.94-.69,4.55-3.47l-1.09-.26c-.08,.3-.12,.49-.18,.68-.39,1.15-1.06,1.97-2.37,2.01-1.11,.04-2.22-.73-2.47-2.04-.25-1.31-.34-2.7-.19-4.02,.19-1.65,1.27-2.59,2.6-2.71,1.15-.1,1.92,.54,2.65,2.25l.92-.26Zm-51.45,7.7c-.23-.71-.45-1.39-.68-2.07-.88-2.6-1.75-5.21-2.67-7.8-.11-.32-.52-.62-.85-.73-.17-.06-.64,.28-.72,.52-1.08,3.35-2.12,6.71-3.17,10.07,.86,.25,1.33,.06,1.43-.8,.05-.39,.27-.76,.31-1.15,.12-1.04,.67-1.31,1.69-1.28,2.46,.08,2.5,.01,3.2,2.45,.23,.79,.6,1.04,1.47,.79Zm60.5,0c-1.13-3.33-2.22-6.62-3.37-9.88-.11-.31-.57-.7-.85-.69-.28,.01-.69,.43-.8,.76-1.06,3.26-2.07,6.53-3.09,9.8,.81,.29,1.32,.13,1.43-.81,.05-.39,.27-.76,.31-1.15,.11-1.08,.71-1.28,1.7-1.26,2.47,.07,2.5,.01,3.16,2.35,.23,.81,.56,1.16,1.5,.88Zm6.55-9.42v9.54l1.22-.11v-9.45h2.74v-1.13h-6.76l.08,1.15h2.72Zm-26.42-1.16v10.61h1.06v-10.61h-1.06Z"/><path class="cls-5" d="M.5,41.52c.85-2.03,1.66-4.09,2.56-6.1,1.83-4.1,3.72-8.18,5.57-12.26,1.92-4.22,3.82-8.45,5.73-12.67,1.44-3.18,2.88-6.36,4.34-9.53,.13-.28,.45-.67,.65-.66,.26,.02,.59,.36,.72,.64,3.9,8.26,7.78,16.53,11.65,24.8,2.39,5.11,4.75,10.23,7.12,15.35,.06,.13,.05,.3,.07,.45H.5Zm13.66-1.65c5.17-.02,10.34-.03,15.51-.05,.32,0,.64,.02,.95,0,.75-.07,.76-.43,.34-.94-.16-.27-.35-.53-.49-.81-2.02-4.32-4.04-8.64-6.06-12.96-1.69-3.63-3.37-7.26-5.07-10.88-.55-1.17-1.14-2.31-1.78-3.59-.24,.34-.39,.51-.49,.71-1.85,3.96-3.68,7.93-5.52,11.9-1.94,4.17-3.9,8.34-5.81,12.53-.6,1.32-1.08,2.7-1.62,4.05,0,.07,0,.14,0,.2,0,.02,.06,.05,.09,.05,3.21,0,6.43-.01,9.64-.03,.1,0,.2-.11,.3-.17Z"/><path class="cls-6" d="M90.98,24.48c-1.64,0-3.15,.05-4.66-.04-.31-.02-.75-.49-.86-.84-.83-2.62-1.59-5.27-2.38-7.91l-.33-1.1-.19,.04v9.74h-5.13V.77c1.54,0,3.09-.04,4.62,.04,.27,.02,.61,.56,.73,.92,.85,2.49,1.64,5,2.45,7.51,.17,.52,.35,1.03,.71,1.51V.83h5.03V24.48Z"/><path class="cls-6" d="M142,.63c3.39,.14,6.7,.15,9.97,.47,2.12,.21,3.37,1.87,3.57,4.19,.1,1.11,.09,2.24,.05,3.35-.09,2.23-.61,2.84-2.96,3.51,2.64,.68,3.1,2.5,3.01,4.75-.1,2.47-.02,4.94-.02,7.49h-5.62c0-.72,0-1.46,0-2.2-.03-2.32-.02-4.63-.14-6.94-.07-1.24-.33-1.35-1.73-1.31v10.45h-6.13V.63Zm6.16,9.36c1.21,.18,1.71-.36,1.78-1.36,.05-.71,.03-1.43,.02-2.15-.01-1.14-.59-1.66-1.8-1.55v5.06Z"/><path class="cls-8" d="M124.62,.81h5.97c.03,.44,.07,.86,.07,1.28,0,5.04,0,10.07,0,15.11,0,.92,.03,1.84,.17,2.74,.05,.34,.44,.62,.68,.93,.27-.28,.73-.52,.78-.84,.15-.94,.18-1.9,.18-2.86,.01-5,0-9.99,0-14.99V.83h5.99c.04,.27,.1,.5,.1,.73,0,5.75,.04,11.51,0,17.26-.03,3.45-1.69,5.43-5.12,6.01-2.29,.39-4.54,.14-6.56-1.19-1.36-.9-2.23-2.19-2.24-3.77-.08-6.31-.03-12.62-.03-19.06Z"/><path class="cls-8" d="M68.13,15.42l-1.03-.14v-3.43h7.04v12.61c-1.11,0-2.27,.11-3.39-.06-.41-.06-.72-.79-1.11-1.25-1.59,2.01-3.73,2.27-6.05,1.32-2.44-1-3.6-2.94-3.61-5.55-.01-4.16-.06-8.31,.02-12.47,.07-3.57,1.79-5.52,5.32-6.12,1.92-.33,3.83-.16,5.6,.76,1.69,.88,2.88,2.15,3.06,4.13,.13,1.34,.19,2.68,.29,4.11h-6.12c-.07-1.27-.07-2.54-.23-3.78-.06-.44-.44-1.09-.79-1.19-.83-.22-.98,.56-.99,1.14-.07,2.36-.08,4.71-.09,7.07,0,2.08,.02,4.16,.04,6.23,0,.36-.03,.77,.13,1.06,.22,.39,.61,.67,.93,1.01,.33-.34,.91-.66,.94-1.03,.11-1.43,.04-2.87,.04-4.43Z"/><path class="cls-8" d="M108.3,24.44h-6.31c-.09-1.11-.23-2.2-.24-3.3,0-.94-.53-.97-1.24-.97-.7,0-1.12,.1-1.13,.96,0,1.07-.16,2.14-.25,3.28h-6.44c1.05-7.84,2.09-15.65,3.16-23.64,.51,0,1.01,0,1.51,0,2.16,0,4.31,0,6.47,0,.54,0,.98-.02,1.09,.74,.94,6.51,1.92,13.02,2.88,19.53,.16,1.1,.32,2.2,.5,3.42Zm-8.9-8.45h2.03c-.27-2.93-.53-5.78-.8-8.63-.42,1.44-.61,2.86-.77,4.29-.16,1.42-.3,2.84-.46,4.34Z"/><path class="cls-8" d="M34.14,16.05h5.47c.07,1.22,.14,2.4,.21,3.58,.04,.64,.16,1.21,.97,1.25,.84,.04,1.13-.52,1.21-1.2,.21-1.85-.04-3.47-1.89-4.53-1.31-.75-2.5-1.72-3.75-2.58-1.29-.89-2.18-2.09-2.28-3.64-.11-1.69-.12-3.43,.13-5.1,.23-1.58,1.47-2.55,2.94-3.05,2.47-.85,4.95-.79,7.38,.17,1.78,.7,2.75,2,2.79,3.93,.02,.96,0,1.91,0,2.95h-5.51c-.05-.87-.02-1.72-.18-2.53-.07-.37-.58-.96-.79-.92-.41,.07-.93,.46-1.07,.84-.5,1.32,.02,2.78,1.2,3.58,1.19,.81,2.4,1.59,3.62,2.35,2.23,1.38,3.3,3.4,3.38,5.98,.03,.8,.05,1.6,0,2.4-.21,3.07-1.57,4.71-4.63,5.18-1.51,.23-3.11,.22-4.62-.02-2.76-.44-4.22-2.05-4.55-4.81-.14-1.21-.02-2.46-.02-3.82Z"/><path class="cls-7" d="M168.93,.87V5.49h-3.94v4.57h3.64v4.4h-3.66v5.25h4.36v4.7h-10.56V.87h10.16Z"/><path class="cls-7" d="M112.82,24.39V5.53h-3.56V.83h13.26V5.46h-3.45V24.39h-6.25Z"/><path class="cls-7" d="M56.84,24.44h-6.04V.87h6.04V24.44Z"/><path class="cls-12" d="M80.99,40.52h-1.05v-8.18l-.26-.07c-.79,2.75-1.57,5.49-2.34,8.19-.9,.39-1.07-.17-1.24-.79-.72-2.68-1.46-5.37-2.38-8.03v8.88h-1.18v-10.61h1.79c.81,2.92,1.61,5.82,2.42,8.73h.2c.72-2.53,1.51-5.04,2.13-7.6,.28-1.15,.8-1.43,1.91-1.09v10.57Z"/><path class="cls-13" d="M150.72,40.49c-.92,.31-1.31-.14-1.69-.88-1.23-2.37-2.54-4.7-3.96-7.31v8.2h-1.21v-10.56c.88-.31,1.3,.05,1.7,.81,1.24,2.38,2.56,4.72,4.04,7.03v-7.82l1.13-.12v10.66Z"/><path class="cls-13" d="M94.4,40.52h-1.21v-10.57c.85-.32,1.3-.02,1.7,.75,1.24,2.39,2.56,4.74,4.1,7.07,0-2.32,.02-4.64-.01-6.96-.01-.77,.15-1.18,1.09-.88v10.55c-.86,.31-1.27-.08-1.66-.82-1.24-2.39-2.56-4.74-4-7.39v8.25Z"/><path class="cls-11" d="M64.35,35.91v4.59h-1.15v-10.51c1.72,0,3.46-.11,5.18,.04,1.14,.1,1.57,1.15,1.72,2.18,.17,1.22-.12,2.31-1.26,3.01-.29,.18-.63,.29-.81,.37l2.82,4.82c-1.01,.41-1.49,.02-1.84-.78-.26-.62-.65-1.19-.93-1.81-.71-1.55-1.77-2.45-3.74-1.91Zm.03-1.36c1.03,0,1.94,.03,2.86,0,1.09-.05,1.64-.68,1.67-1.77,.03-1.07-.52-1.68-1.54-1.76-.98-.08-1.97-.02-2.98-.02v3.56Z"/><path class="cls-11" d="M166.43,35.57l2.86,4.88c-.96,.28-1.49,.05-1.83-.78-.29-.7-.69-1.35-1.06-2.01-1.09-1.91-1.3-2.02-3.59-1.8v4.6h-1.2v-10.62c1.46,0,2.89-.05,4.32,.01,1.54,.07,2.33,.79,2.59,2.17,.29,1.52-.29,2.74-1.62,3.38-.18,.09-.37,.13-.46,.16Zm-3.62-4.58v3.57c.72,0,1.39,0,2.06,0,.28,0,.56,.01,.84-.01,1.07-.1,1.6-.73,1.6-1.84,0-1.08-.59-1.63-1.6-1.7-.94-.06-1.9-.01-2.9-.01Z"/><path class="cls-13" d="M153.21,29.88h6.35l.08,1.11h-5.23v3.38h4.83l.07,1.19h-4.91v3.72h5.22v1.24h-6.41v-10.64Z"/><path class="cls-13" d="M91.46,35.25c-.52,1.34-.81,2.85-1.62,3.99-1.54,2.18-4.63,1.95-6.04-.32-1.42-2.29-1.37-4.71-.26-7.09,.77-1.64,2.29-2.35,4.05-2.11,1.58,.21,2.97,1.69,3.37,3.62,.12,.58,.14,1.19,.21,1.78l.29,.13Zm-7.54-.17c.14,.85,.19,1.66,.42,2.41,.38,1.25,1.51,2.08,2.64,2.08,1.11,0,2.08-.74,2.56-2,.63-1.68,.58-3.37-.1-5.01-.45-1.08-1.31-1.76-2.48-1.75-1.23,0-2.11,.73-2.5,1.88-.27,.78-.36,1.61-.53,2.4Z"/><path class="cls-1" d="M52.28,40.54h-1.09v-4.94h-4.56v4.9l-1.18,.09v-10.66l1.07-.11v4.4h4.58v-4.31l1.18-.05v10.69Z"/><path class="cls-11" d="M140.4,29.9h1.05c0,2.68,.12,5.32-.04,7.93-.12,1.95-1.39,2.9-3.29,2.88-1.92-.02-3.09-.88-3.21-2.82-.16-2.62-.04-5.26-.04-7.99l.89-.08c.05,.2,.11,.35,.11,.5,.02,2.32-.02,4.64,.05,6.95,.04,1.49,.88,2.29,2.2,2.29,1.43,0,2.22-.74,2.27-2.35,.07-2.4,.02-4.79,.02-7.32Z"/><path class="cls-13" d="M113.39,32.78l-.92,.26c-.73-1.71-1.5-2.35-2.65-2.25-1.33,.12-2.4,1.06-2.6,2.71-.16,1.32-.07,2.71,.19,4.02,.25,1.31,1.36,2.08,2.47,2.04,1.31-.04,1.99-.86,2.37-2.01,.06-.18,.1-.38,.18-.68l1.09,.26c-.61,2.77-2.21,3.96-4.55,3.47-1.15-.24-1.93-.94-2.39-1.98-1.03-2.31-1.11-4.64,.03-6.92,.76-1.52,2.3-2.22,4.01-1.98,1.41,.2,2.38,1.24,2.76,3.06Z"/><path class="cls-9" d="M61.94,40.48c-.87,.24-1.24,0-1.47-.79-.7-2.43-.74-2.37-3.2-2.45-1.02-.03-1.57,.24-1.69,1.28-.04,.39-.26,.76-.31,1.15-.1,.85-.56,1.05-1.43,.8,1.05-3.36,2.09-6.72,3.17-10.07,.08-.24,.55-.58,.72-.52,.33,.11,.74,.41,.85,.73,.92,2.59,1.79,5.2,2.67,7.8,.23,.68,.45,1.36,.68,2.07Zm-4.14-9.39l-1.5,5.09h3.1l-1.6-5.09Z"/><path class="cls-9" d="M122.43,40.47c-.94,.28-1.27-.07-1.5-.88-.66-2.34-.7-2.28-3.16-2.35-.99-.03-1.59,.18-1.7,1.26-.04,.39-.27,.76-.31,1.15-.11,.94-.62,1.1-1.43,.81,1.02-3.27,2.03-6.55,3.09-9.8,.11-.32,.51-.75,.8-.76,.28-.01,.74,.38,.85,.69,1.15,3.27,2.25,6.55,3.37,9.88Zm-2.54-4.29l-1.62-5.07-1.49,5.07h3.11Z"/><path class="cls-10" d="M128.98,31.05h-2.72l-.08-1.15h6.76v1.13h-2.74v9.45l-1.22,.11v-9.54Z"/><path class="cls-1" d="M102.57,29.89h1.06v10.61h-1.06v-10.61Z"/><path class="cls-3" d="M4.3,39.82c3.28,.02,6.57,.04,9.85,.05-.1,.06-.2,.17-.3,.17-3.21,.02-6.43,.02-9.64,.03-.03,0-.09-.03-.09-.05-.01-.07,0-.14,0-.2,.06-.02,.13-.02,.19,0Z"/><path class="cls-4" d="M18.16,27.05c-1.27-.79-2.44-1.44-3.53-2.2-1.14-.8-1.56-2.18-1.18-3.35,.34-1.06,1.07-1.51,2.15-1.74,2.89-.62,4.77,.05,6.11,2.34,.12,.2,.18,.43,.29,.7-.8,.42-1.22,.2-1.77-.49-.62-.77-1.49-1.43-2.4-1.84-.72-.32-1.9-.33-2.12,.66-.14,.63,.33,1.62,.85,2.11,.82,.78,1.9,1.3,2.89,1.88,2.79,1.63,4.61,3.95,5.09,7.19,.06,.42-.15,.88-.24,1.33-.72,3.4-3.16,5.52-6.56,5.7-2.73,.14-5.6-2.19-6.49-4.74-.71-2.07-.11-3.65,1.02-5.19,1.24-1.68,2.98-2.46,5.09-2.36,.22,.01,.43,0,.8,0Zm3.34,6.19l-.14-.02c0-.52,.06-1.05-.02-1.55-.09-.54-.26-1.08-.47-1.59-.55-1.34-1.91-2.07-3.61-2-1.49,.06-2.61,.91-3.05,2.24-.7,2.13-.24,4.15,.74,6.04,.65,1.26,1.88,1.83,3.29,1.76,1.45-.06,2.48-.96,2.87-2.42,.21-.8,.27-1.64,.39-2.46Z"/></g></g></svg>